<svg id="asset-vault-story" xmlns="http://www.w3.org/2000/svg" width="76.447" height="90" viewBox="0 0 76.447 90">
  <path id="Path_7054" data-name="Path 7054" d="M84.17,40.6c.279,2.141.465,4.282.745,6.423a5.635,5.635,0,0,1,0,1.769c-.186,1.4.279,2.606.279,4,.093,1.676,0,3.351.186,4.934.186,2.606.279,5.213.372,7.819.093,1.4.186,2.886.372,4.375a1.941,1.941,0,0,1-.838,1.955,28.662,28.662,0,0,0-4,3.537l-2.234,1.955a49.916,49.916,0,0,0-3.724,4c-1.862,2.048-3.91,3.91-5.958,5.865a35.289,35.289,0,0,0-3.537,3.91.952.952,0,0,1-1.3.279,3.46,3.46,0,0,0-1.955-.093,39.872,39.872,0,0,1-5.771.186,12.732,12.732,0,0,0-2.606-.186c-2.7-.093-5.492-.372-8.192-.559L40.7,90.5c-2.141-.093-4.282-.465-6.423-.559a62.7,62.7,0,0,0-7.168-.372c-2.793.186-5.585.465-8.378.559-2.513,0-4.934.559-7.447.372-.279,0-.745.093-.838-.279-.093-.838-.559-1.582-.652-2.327C9.7,86.215,9.7,84.54,9.7,82.771c0-2.793.186-5.585.465-8.378.093-1.3,0-2.7.186-4,.372-3.258.279-6.609.465-9.867.093-2.327.093-4.561,0-6.888-.093-1.21-.093-2.513-.093-3.723,0-1.3-.279-2.513-.279-3.817a52.207,52.207,0,0,1,.093-6.609c.186-.838-.186-1.676-.093-2.606.279-3.444-.093-6.982.186-10.426.186-2.327.186-4.747.372-7.075a3.167,3.167,0,0,0-.093-.931.653.653,0,0,1,.372-.838c1.024-.559,1.862-1.4,2.793-1.955,1.3-.838,2.42-1.955,3.724-2.793,1.676-1.024,3.072-2.42,4.747-3.444,2.141-1.3,4.1-2.793,6.237-4.189,1.4-.931,2.793-1.862,4.1-2.793,1.21-.838,2.513-.652,3.817-.745,1.489-.093,3.072,0,4.561-.093,2.793-.093,5.585.279,8.378.372,2.141.093,4.189.465,6.33.465,1.489,0,2.979.186,4.468.279,2.606.093,5.12.372,7.726.465a22.638,22.638,0,0,0,2.513,0c2.513.093,5.027.279,7.54.465l3.351.279c.559,0,1.21.931,1.3,1.676a26.852,26.852,0,0,1,.186,3.817c0,.279-.279.745.372.838.093,0,.186.093,0,.186-.838.465-.372,1.21-.279,1.769a15.084,15.084,0,0,1,.093,2.048c.093,2.234.279,4.375.186,6.609-.093,1.955-.093,4-.093,5.958,0,2.793.465,5.492.559,8.192C83.984,36.972,84.264,38.741,84.17,40.6ZM81.564,6.812a18.231,18.231,0,0,0-2.42,1.862L76.91,10.349a50.735,50.735,0,0,1-4.282,3.537c-2.513,1.862-4.841,4-7.354,5.771a.629.629,0,0,0-.372.559c0,.652-.093,1.3-.093,1.955.093,2.7-.186,5.4-.279,8.192v4.189c0,3.072.186,6.144.279,9.216a8.265,8.265,0,0,1,.093,2.141,5.8,5.8,0,0,0-.093,1.769,48.9,48.9,0,0,1,.279,5.213c-.093,1.676-.093,3.444-.093,5.12a17.937,17.937,0,0,0-.093,2.234c.186,1.955.093,4,.186,5.958,0,1.489.093,2.979.093,4.468,0,1.024.186,2.141.093,3.165-.186,2.793.093,5.585-.279,8.378a12.477,12.477,0,0,0,.093,1.862c.093,1.3.186,2.606.279,4,.652-.465,1.024-1.21,1.489-1.582a21.829,21.829,0,0,0,2.979-2.886c2.048-2.234,4.375-4.1,6.33-6.516a26.173,26.173,0,0,1,3.258-3.165,45,45,0,0,1,3.91-3.444,1.168,1.168,0,0,0,.559-1.024c-.186-1.489-.186-3.072-.279-4.561-.093-1.582-.093-3.165-.186-4.747,0-2.048-.279-4-.186-6.051,0-.931-.093-1.862-.186-2.886-.186-1.676-.279-3.444-.372-5.12-.093-1.3-.093-2.513-.279-3.817-.279-1.955-.279-4-.559-5.958-.186-1.3-.093-2.606-.186-3.91a58.873,58.873,0,0,1-.279-11.45c.093-1.024-.093-1.955,0-2.979a7.608,7.608,0,0,0-.093-2.513,18.313,18.313,0,0,1-.093-3.91C81.378,10.163,81.285,8.58,81.564,6.812ZM12.4,19.844c0,.465.093,1.024.093,1.582-.186,2.141-.093,4.375-.186,6.516a26.092,26.092,0,0,0-.093,4.654,7.046,7.046,0,0,1,.093,1.4c-.093,3.165,0,6.237-.093,9.4-.093,2.234.186,4.468.186,6.7a24.344,24.344,0,0,0,0,2.606,47.94,47.94,0,0,1,.186,6.33A35.873,35.873,0,0,1,12.4,63.5c-.093,2.327-.093,4.561-.186,6.888-.093,3.165-.372,6.237-.465,9.4a45.274,45.274,0,0,0,0,5.027,7.961,7.961,0,0,0,0,1.489c.186.559.186,1.117-.465,1.4-.093.093-.279.186-.186.279,0,.093.186.186.279.186.652-.186,1.117.279,1.769.279a23.127,23.127,0,0,0,3.63-.186c2.606-.465,5.306-.372,8.006-.745a35.9,35.9,0,0,1,7.726.186q3.491.419,6.982.559c2.979.186,5.958.372,8.936.652,2.42.279,4.934.279,7.447.372,1.583,0,3.258,0,4.841-.093.745-.093,1.4-.093,2.048-.186.279,0,.465-.186.372-.465a26.97,26.97,0,0,1-.093-4.747c0-2.234-.093-4.468,0-6.7a38.76,38.76,0,0,0,.093-5.678c-.186-2.42-.093-4.841-.186-7.261-.186-2.886.093-5.771.093-8.564,0-2.886.093-5.678-.093-8.564-.186-2.606-.093-5.213-.186-7.819a94.386,94.386,0,0,1,.186-12.567c.186-1.582-.093-3.258.186-4.841.093-.465-.093-.652-.559-.652-1.024,0-2.048,0-3.072-.093-1.117,0-2.234-.186-3.351-.093-1.583.093-3.165,0-4.654,0-1.862,0-3.817-.093-5.678-.186-2.048-.093-4.1-.279-6.144-.372-2.979-.093-6.051-.186-9.03-.372a50.978,50.978,0,0,0-7.54.093c-2.793.186-5.585-.465-8.378-.279Zm1.955-1.769c1.582,0,3.072-.093,4.561,0,1.676.093,3.351-.186,5.12,0a17.891,17.891,0,0,0,2.234,0,24.39,24.39,0,0,1,2.606-.093c2.141.093,4.282.372,6.423.465,2.7.093,5.306.093,8.006.279,1.862.093,3.724.186,5.585.186H60.712a15.018,15.018,0,0,1,2.048,0c.652.093,1.4.279,1.955-.279.372-.372.838-.652,1.21-1.024a57.413,57.413,0,0,1,5.027-4.468c1.3-1.117,2.7-2.141,4-3.258,1.4-1.117,2.793-2.327,4.189-3.444a.342.342,0,0,0,.093-.279c0-.093-.186-.093-.279-.093-1.676,0-3.351-.465-5.027-.465-1.955,0-3.817-.186-5.678-.279-2.42-.093-4.841-.186-7.354-.372-1.955-.093-3.91-.465-5.958-.372h-.093c-2.141-.465-4.375-.372-6.516-.652-1.4-.186-2.886-.093-4.282-.186a33.861,33.861,0,0,0-6.144,0,13.7,13.7,0,0,1-1.955,0,1.982,1.982,0,0,0-1.489.279,24.652,24.652,0,0,0-3.724,2.234c-3.072,2.234-6.144,4.282-9.309,6.33a44.011,44.011,0,0,0-5.306,4C15.658,17.145,14.913,17.331,14.354,18.075Z" transform="translate(-9.7 -1.584)"/>
  <path id="Path_7055" data-name="Path 7055" d="M20.08,26.485a46.626,46.626,0,0,1,6.248-.186,53.827,53.827,0,0,1,6.714.186,20.27,20.27,0,0,0,3.357.187c2.331,0,4.569.093,6.9,0,2.331,0,4.569-.187,6.9-.28h3.73c.187,0,.466.093.653,0,1.026-.187,1.492.093,1.772,1.119.093.28.093.653.746.466.559-.187.653.373.653.653,0,1.026-.093,2.145-.187,3.17a34.461,34.461,0,0,0-.186,4.383,50.884,50.884,0,0,1-.186,6.527c0,.932-.093,1.865-.093,2.8,0,3.077.093,6.154-.187,9.232a58.4,58.4,0,0,0-.187,6.994c0,1.119-.093,2.238,0,3.357.093.839-.093,1.772-.093,2.7.093,2.238.093,4.569.373,6.807A37.6,37.6,0,0,1,57.38,80.2a19.6,19.6,0,0,1-.466,4.01c-.093.653-.839.746-1.492.653a11.365,11.365,0,0,0-2.518,0c-2.238-.093-4.476,0-6.714-.28a7.012,7.012,0,0,0-1.4,0c-2.424,0-4.849.186-7.367,0-1.585-.093-3.264.186-4.849.093-1.4-.093-2.891-.093-4.289-.093-2.331.093-4.662-.093-6.994.186a11.091,11.091,0,0,1-3.916-.186c-.559-.093-.653-.653-.653-1.212,0-.093.186-.28,0-.373-.839-.559-.746-1.585-.839-2.331a40.883,40.883,0,0,1-.093-7.553,35.842,35.842,0,0,0,0-4.476c.093-1.958.28-3.823.466-5.781V61.827c-.093-1.865.187-3.637.187-5.408,0-1.958.28-3.823.466-5.781a100.438,100.438,0,0,0,.28-11.843,18.391,18.391,0,0,1,.187-3.916c.28-1.305-.187-2.518-.187-3.823a14.97,14.97,0,0,1,0-2.891c.093-.466.373-1.026.466-1.585,0-.28.373-.187.653-.187A13.924,13.924,0,0,0,20.08,26.485Zm1.585,1.958H20.36c-.559-.093-.653.093-.653.653,0,1.119.093,2.331,0,3.45a11.388,11.388,0,0,0-.093,2.518c.186,1.305-.093,2.611,0,3.823,0,1.119-.093,2.145,0,3.264s0,2.331,0,3.45c0,2.145-.466,4.289-.56,6.434,0,2.145-.28,4.289-.28,6.341,0,3.543-.559,7.18-.559,10.724,0,1.772,0,3.543-.093,5.222-.093,1.119-.186,2.145-.186,3.264.093,1.585.373,3.077.559,4.569,0,.28.093.373.466.466a12.745,12.745,0,0,0,3.264,0c1.958-.093,4.01,0,5.968-.187,1.212-.093,2.424.093,3.637.093a39.3,39.3,0,0,0,4.662-.093c1.119-.093,2.238.093,3.357,0,1.119,0,2.238,0,3.357-.093,3.45-.187,6.807.28,10.257.186.28,0,.559-.093.839-.093,1.119.093,1.212-.373,1.026-1.305a19.491,19.491,0,0,1,.093-2.331c-.187-2.331-.466-4.662-.559-6.994a21.014,21.014,0,0,0,0-2.424,37.078,37.078,0,0,1-.093-6.434c.093-2.8.093-5.688.373-8.486.187-1.958.093-3.916.093-5.875a24.433,24.433,0,0,1-.093-2.611,69.969,69.969,0,0,0,.373-7.646c.093-3.17.186-6.341.559-9.418,0-.187.187-.559-.28-.559-1.306.093-2.611,0-3.916,0-3.543-.093-7.087.28-10.724.186a15.973,15.973,0,0,0-2.984-.093,13.769,13.769,0,0,1-4.383-.093c-1.026-.093-2.051-.187-3.17-.187-1.305-.093-2.611.093-3.916.093a11.388,11.388,0,0,0-2.518-.093A7.47,7.47,0,0,1,21.665,28.444Z" transform="translate(-10.102 -3.408)"/>
  <path id="Path_7056" data-name="Path 7056" d="M29.462,38.267c.839,1.119,1.585,2.331,2.424,3.45.186.28.373.28.653,0a15.176,15.176,0,0,1,4.569-2.7c.187-.093.466-.093.373-.28a8.792,8.792,0,0,1,.559-4.1,4.014,4.014,0,0,0,0-1.492c0-.746.373-1.026,1.026-.746a1.688,1.688,0,0,0,1.492.093,1.741,1.741,0,0,1,1.865.746.424.424,0,0,1,0,.466c-.746,1.4-.466,2.984-.839,4.476-.187.839.653,1.772,1.492,2.051.186.093.28,0,.373-.093,1.305-1.4,3.077-2.331,4.289-3.823l.093-.093c.373-1.119,1.119-.746,1.772-.373A3.313,3.313,0,0,1,51.1,36.868c.373.653.373,1.119-.187,1.585-1.026.932-1.958,1.865-2.984,2.8-.653.559-.932,1.492-1.585,2.051-.28.28.187.373.28.653.186.559.373,1.026,1.212.653.373-.186.932.187,1.492.28a38.981,38.981,0,0,0,4.662.187c.746,0,1.026.373.932,1.026a10.275,10.275,0,0,1-.187,1.678c-.186.932-1.212,1.4-2.424,1.119a18.909,18.909,0,0,0-4.01-.28c-.373,0-.373.093-.466.466-.187.932-.466,1.772-.559,2.7,0,.093-.187.28.187.373A3.51,3.51,0,0,1,49.6,53.653a5.115,5.115,0,0,0,2.051,1.678c.466.187.466.653.466,1.119a.7.7,0,0,1-.56.653,2.718,2.718,0,0,0-1.4,1.305c-.28.653-1.119.56-1.678-.093-.653-.653-1.305-1.4-1.958-2.051-.466-.559-1.119-.746-1.492-1.4-.093-.187-.28-.187-.466,0a10.173,10.173,0,0,1-3.077,1.772c-.28.093-.28.28-.28.466a47.142,47.142,0,0,0-.186,5.129,6.606,6.606,0,0,1-.093,1.305c-.28,1.119-.653,1.305-1.772,1.119a1.612,1.612,0,0,0-.932.093,1.481,1.481,0,0,1-1.865-1.678,12.451,12.451,0,0,0,0-1.865,11.817,11.817,0,0,1,.373-3.17c.093-.466.187-.839-.559-.746H35.9c-1.119-.839-1.865,0-2.8.559l-3.637,2.8q-1.119.839-1.678-.559a12.962,12.962,0,0,1-1.026-1.958c-.28-1.305-.187-1.4.746-1.865a13.877,13.877,0,0,0,2.984-2.238.717.717,0,0,0,.093-.932A7.792,7.792,0,0,1,29.462,50.2c-.093-.28-.093-.373-.373-.373a10.266,10.266,0,0,1-3.73-.466,4.191,4.191,0,0,0-2.145.373.883.883,0,0,1-1.026-.28c-.373-.373,0-.466.093-.746a1.915,1.915,0,0,0,0-1.026,1.513,1.513,0,0,1,1.772-1.678,14.41,14.41,0,0,0,4.476,0c.093,0,.186-.093.28,0,1.026.373,1.026-.28,1.212-1.026.28-1.119.373-1.119-.187-2.145a11.011,11.011,0,0,0-2.984-3.543,1.182,1.182,0,0,1,0-2.051,5.4,5.4,0,0,1,1.585-1.305,1.262,1.262,0,0,1,1.492.28,28.626,28.626,0,0,0,2.331,2.424,5.855,5.855,0,0,0,1.119,1.026.622.622,0,0,1,0,1.119,1.635,1.635,0,0,1-2.051-.373A4.691,4.691,0,0,0,29.462,38.267Zm16.505,9.791c0-1.585,0-1.678-1.026-3.543a6.226,6.226,0,0,0-5.688-3.543A7.526,7.526,0,0,0,34.124,43.3,7.32,7.32,0,0,0,31.7,50.016a2.931,2.931,0,0,0,1.026,2.424c.932.653,1.678,1.492,2.8,1.678a.513.513,0,0,1,.466.28c.28.839,1.026.746,1.678.653.559-.093,1.026-.187,1.585-.28A7.67,7.67,0,0,0,42.7,53.56C44.568,52.161,46.06,50.576,45.967,48.058Zm-7.74,13.055v.653c0,.28-.186.653.28.746.373,0,.653-.093.746-.559.28-1.492-.093-2.984.093-4.476,0-.186.093-.466-.187-.559-.466-.093-.373.28-.373.466A16.377,16.377,0,0,0,38.227,61.113ZM49.51,55.891a.431.431,0,0,0-.28-.466c-.746-.932-1.772-1.4-2.518-2.331-.187-.186-.373,0-.466.093s-.28.186-.093.373a32.138,32.138,0,0,0,2.611,2.424C49.137,56.451,49.231,55.984,49.51,55.891ZM40.092,34.537c-.28,0-.28.187-.28.28a6.438,6.438,0,0,0-.373,2.331,4.619,4.619,0,0,0-.186,1.585.5.5,0,0,0,.559.56c.466-.093.093-.373.093-.56.093-.746,0-1.492.093-2.238A6.912,6.912,0,0,0,40.092,34.537ZM29.182,57.943A6.436,6.436,0,0,0,31.7,56.357c.373-.28.839-.466,1.026-.932.093-.187.466-.28.186-.466-.186-.186-.373,0-.559.187C31.233,56.078,30.208,57.01,29.182,57.943Zm.466-10.63c-1.585.559-3.264,0-4.756.28,1.4.093,2.8.373,4.2.373C29.648,48.058,29.741,47.872,29.648,47.312Zm16.505-6.994c-.093-.093-.187-.093-.187-.186-.28.373-.653.746-.932,1.119-.093.093-.28.186-.093.28.187.186.187,0,.28-.093A2.249,2.249,0,0,0,46.153,40.318Z" transform="translate(-10.567 -3.734)"/>
  <path id="Path_7057" data-name="Path 7057" d="M38.769,53.24a3.753,3.753,0,0,1-4.01-2.051c-.746-1.119-.839-3.823.28-4.942a7.4,7.4,0,0,1,2.051-1.772,2.512,2.512,0,0,1,1.865-.28,11.889,11.889,0,0,0,1.865.093,3.667,3.667,0,0,1,3.264,3.077A4.631,4.631,0,0,1,41.753,52.4,3.473,3.473,0,0,1,38.769,53.24Zm-.839-1.865c.28.093.653-.187.932-.187a3.608,3.608,0,0,0,3.357-2.611c.466-1.305.187-1.678-.932-2.145a3.01,3.01,0,0,0-2.8.373.73.73,0,0,1-.746.093c-.373-.187-.559-.093-.839.186a6.619,6.619,0,0,0-.932,1.305A1.993,1.993,0,0,0,37.93,51.375Z" transform="translate(-11.399 -4.532)"/>
</svg>
