<svg xmlns="http://www.w3.org/2000/svg" width="360" height="162.878" viewBox="0 0 360 162.878">
  <g id="centralised-organisation" transform="translate(-20 -1156.48)">
    <g id="noun-shelf-4171437" transform="translate(20 1272.711)">
      <path id="Path_7042" data-name="Path 7042" d="M79.913,36.245a.775.775,0,0,0,0-.218v-.079l-.1-.149-.06-.06h0l-9.931-7.995a.735.735,0,0,0-.467-.159H65.384L64.927,26A.745.745,0,0,0,64,25.5l-6.8,1.986H30.387a.735.735,0,0,0-.467.159l-9.931,7.995h0l-.06.06-.1.149v.079a.774.774,0,0,0,0,.218V71.372a.745.745,0,0,0,.745.745h58.6a.745.745,0,0,0,.745-.745V36.245Zm-6.157-3.377H67L66.675,31.7h5.651ZM67.8,35.53l-.348-1.172h8.163l1.46,1.172Zm1.172-6.495,1.46,1.172H66.2l-.358-1.172ZM64.113,28.5l2.135,7.031Zm-25.046,4.37H25.828l1.46-1.172h15.89l-4.032,1.192ZM30.6,29.035h21.59l-3.972,1.172H29.145Zm-6.624,5.323H34.25L30.277,35.53H22.521ZM78.433,70.627H21.151V37.02H78.433Z" transform="translate(-19.822 -25.469)"/>
      <path id="Path_7043" data-name="Path 7043" d="M63.151,47.45h-26.5a.755.755,0,0,0-.745.745v9.216a.755.755,0,0,0,.745.745h26.5a.755.755,0,0,0,.745-.745V48.195a.755.755,0,0,0-.745-.745ZM42.435,48.989h14.9V53.8h-14.9Zm19.971,7.726H37.4V48.989h3.565v5.551a.755.755,0,0,0,.745.745H58.116a.755.755,0,0,0,.745-.745V48.989h3.545Z" transform="translate(-19.933 -25.62)"/>
      <ellipse id="Ellipse_37" data-name="Ellipse 37" cx="0.993" cy="0.993" rx="0.993" ry="0.993" transform="translate(18.261 24.729)"/>
      <ellipse id="Ellipse_38" data-name="Ellipse 38" cx="0.993" cy="0.993" rx="0.993" ry="0.993" transform="translate(39.692 24.729)"/>
    </g>
    <g id="noun-folder-2291475" transform="translate(38.508 1156.48)">
      <g id="Group_2332" data-name="Group 2332" transform="translate(0 0)">
        <path id="Path_7021" data-name="Path 7021" d="M2398.833,7555.225H2352.79c-2.127-.053-2.815-1.159-3.125-3.016l-11.427-78.8a3.034,3.034,0,0,1,3.126-3.252l13.611-.023-1.2-14.811c-.282-3.478,1.581-4.865,4.865-4.865h37.169a6.893,6.893,0,0,1,2.55.233c.981.378,3.211,2.838,4.063,3.688,1.8,1.795,2.288,1.43,4.573,1.43h72.494c3.119,0,4.984.927,5.074,4.257l-.114,3.006h3.15a3.1,3.1,0,0,1,3.133,3.188l-4.916,74.953,6.484-.026a.852.852,0,0,1,.013,1.7l-6.609.026-.605,9.229a3.194,3.194,0,0,1-3.132,3.081h-8.217a31.394,31.394,0,0,1-.931,8.145,9.913,9.913,0,0,1-.84,2.114l20.125-.053a.851.851,0,0,1,0,1.7l-21.819.059a3.757,3.757,0,0,1-2.17-.461,5.218,5.218,0,0,1-1.9-3.332c-3.221.23-7.586,1.526-12.345,2.94-9.415,2.794-20.336,6.036-27.9,2.679a7.039,7.039,0,0,0-2.675-.413,13.571,13.571,0,0,1-8.456-2.8c-3.51-2.45-9.112-2.734-13.383-6.5A8.735,8.735,0,0,1,2398.833,7555.225Zm72.262,7.961c-1.032.038-2.047.08-3.149.129a4.527,4.527,0,0,0,.669,1.562C2469.911,7566.663,2470.767,7564.27,2471.1,7563.186Zm.945-7.961h-33.308a6.9,6.9,0,0,0,3.31,2.443.853.853,0,0,1-.527,1.623c-7.259-2.383-8.012-13.98-8.406-20.039-.1-5.2-5.657-4.721-5.615-1.394.1,7.77.115,15.365,5.139,21.636a.852.852,0,0,1-1.329,1.067c-5.307-6.624-5.41-14.45-5.513-22.684-.021-1.73-.045-3.461-.09-5.192-.114-4.437-6.912-4.018-6.916.411-.007,9.15-.267,19.331,5.134,27.2a.853.853,0,0,1-1.409.962c-5.594-8.149-5.431-18.308-5.428-27.771,0-2.456-1.333-3.541-3.223-3.506-1.675.028-3.277,1.484-3.27,4.587a72.914,72.914,0,0,0,.857,13.387,29.651,29.651,0,0,0,5.453,12.374.851.851,0,0,1-1.356,1.029,30.634,30.634,0,0,1-3.505-5.832c-1.677-.285-3.581-.577-4.764-1.807-2.449-2.54-1.759-7.961-1.8-11.312-.046-4.138-5.049-3.838-5.584.538a32.454,32.454,0,0,0,.429,11.312,7.311,7.311,0,0,0,2.259,3.77c4.053,3.569,9.676,3.9,13.229,6.383a12.087,12.087,0,0,0,7.528,2.492,8.317,8.317,0,0,1,3.316.559c6.993,3.1,17.6-.044,26.737-2.759,4.73-1.4,9.218-2.853,14.168-3.075,1.378-.061,2.615-.114,3.956-.158A33.961,33.961,0,0,0,2472.04,7555.225Zm9.722-79.767a.512.512,0,0,1,1.022.063l-4.348,66.881a.512.512,0,0,1-1.021-.064Zm-44.1,78.057h44.309a1.5,1.5,0,0,0,1.43-1.479l5.632-85.886c.051-.78-.46-1.356-1.429-1.374h-94.179c-1.661,0-1.756-.138-2.245,1.34-.346,1.047-.713,2.1-1.039,3.153-.517,1.666-.777,2.5-3.678,2.51l-45.095.077c-.67,0-1.546.551-1.437,1.31l11.427,78.8c.125.893.5,1.546,1.436,1.546h45.61a36.441,36.441,0,0,1-.2-10.776c.8-6.512,8.913-6.591,8.983-.346.03,2.689-.639,8.11,1.322,10.146.658.682,1.807.743,2.732,1.04a32.583,32.583,0,0,1-1.464-5.312,74.374,74.374,0,0,1-.884-13.7c-.015-6.033,5.984-8.526,9.037-4.4,2.543-3.814,9.343-2.851,9.48,2.479q.024.945.041,1.837c3.625-2.332,7.226.675,7.367,4.662C2435.063,7543.007,2435.471,7549.278,2437.658,7553.515Z" transform="translate(-2338.211 -7450.453)"/>
      </g>
    </g>
    <g id="Group_2371" data-name="Group 2371" transform="translate(10.65 -37.285)">
      <path id="Rectangle_4" data-name="Rectangle 4" d="M0,0H169.349V31.316H0Z" transform="translate(200 1208.129)" fill="#fbb438"/>
      <text id="Collision" transform="translate(208.719 1213.334)" font-size="14" font-family="Plus Jakarta Sans" font-weight="800" opacity="0.9"><tspan x="0" y="15">Property</tspan></text>
      <text id="Collision-2" data-name="Collision" transform="translate(351.99 1219.102)" font-size="7" font-family="Plus Jakarta Sans" font-weight="500"><tspan x="-7.193" y="7">(1)</tspan></text>
      <path id="Rectangle_4-2" data-name="Rectangle 4" d="M0,0H169.349V31.316H0Z" transform="translate(200 1242.005)" fill="#fbb438"/>
      <text id="Collision-3" data-name="Collision" transform="translate(208.719 1247.21)" font-size="14" font-family="Plus Jakarta Sans" font-weight="800" opacity="0.9"><tspan x="0" y="15">Furnishings</tspan></text>
      <text id="Collision-4" data-name="Collision" transform="translate(344.703 1254.02)" font-size="7" font-family="Plus Jakarta Sans" font-weight="500"><tspan x="-13.022" y="7">(56)</tspan></text>
      <path id="Rectangle_4-3" data-name="Rectangle 4" d="M0,0H169.349V31.316H0Z" transform="translate(200 1275.881)" fill="#fbb438"/>
      <text id="Collision-5" data-name="Collision" transform="translate(208.719 1281.086)" font-size="14" font-family="Plus Jakarta Sans" font-weight="800" opacity="0.9"><tspan x="0" y="15">Technology</tspan></text>
      <text id="Collision-6" data-name="Collision" transform="translate(349.908 1286.855)" font-size="7" font-family="Plus Jakarta Sans" font-weight="500"><tspan x="-8.927" y="7">(8)</tspan></text>
      <path id="Rectangle_4-4" data-name="Rectangle 4" d="M0,0H169.349V31.316H0Z" transform="translate(200 1310.115)" fill="#fbb438"/>
      <text id="Collision-7" data-name="Collision" transform="translate(208.719 1315.32)" font-size="14" font-family="Plus Jakarta Sans" font-weight="800" opacity="0.9"><tspan x="0" y="15">Sports equipment</tspan></text>
      <text id="Collision-8" data-name="Collision" transform="translate(346.785 1322.13)" font-size="7" font-family="Plus Jakarta Sans" font-weight="500"><tspan x="-11.385" y="7">(21)</tspan></text>
    </g>
  </g>
</svg>
