<svg xmlns="http://www.w3.org/2000/svg" width="320" height="194.398" viewBox="0 0 320 194.398">
  <g id="easy-life-admin-posessions" transform="translate(-40 -109.328)">
    <g id="Group_2357" data-name="Group 2357" transform="translate(1.98 -124.045)">
      <g id="noun-coffee-machine-3232073" transform="translate(64.336 356.48)">
        <path id="Path_5285" data-name="Path 5285" d="M18.418,33.087c-.034-3.33-.025-6.66-.074-9.991-.041-2.723-.078-5.449-.25-8.17a3.013,3.013,0,0,1,1.285-2.805c2.182-1.724,4.3-3.527,6.49-5.239a3.042,3.042,0,0,1,1.753-.718c2.664.059,5.329.243,7.994.4,5.114.306,10.227.679,15.341.922,4.506.214,9.015.283,13.522.427,2.064.066,2.235.253,2.274,2.339,0,.166-.007.332-.009.5-.033,3.6-.117,7.207-.085,10.813.046,5.217.183,10.437.266,15.655.056,3.5.036,7,.139,10.5.119,4.048.31,8.1.524,12.145a5.686,5.686,0,0,1-1.6,4.854,97.28,97.28,0,0,0-6.532,7.752,2.177,2.177,0,0,1-1.969.912c-2.331-.126-4.664-.191-7-.267-3.393-.111-6.786-.227-10.178-.314-4-.1-8.007-.164-12.011-.265q-4.17-.106-8.341-.276c-1.359-.056-1.563-.29-1.5-1.6.124-2.6.314-5.2.379-7.8a2.358,2.358,0,0,1,.6-1.615c1.091-1.293,2.089-2.663,3.176-3.959a3.38,3.38,0,0,0,.819-2.571c-.114-1.719-.058-3.443-.1-5.164a6.37,6.37,0,0,0-.222-1.058c-1.156.181-2.241.338-3.32.523a2.171,2.171,0,0,1-2.634-1.445c-.461-1.632.09-3.046,1.372-3.423a28.75,28.75,0,0,1,3.353-.87,1.7,1.7,0,0,0,1.607-1.745c.029-.386.112-.765.162-1.149a20.615,20.615,0,0,0-.333-5.865l-4.693.024A11.926,11.926,0,0,1,18.418,33.087ZM46.492,58.864c-1.082.185-1.41.412-1.764,1.18-.2.44-.429.869-.645,1.3l-1.15.889c.922.132.922.132,1.123-.914A5.145,5.145,0,0,0,46.492,58.864Zm-26.5-25.9c1.857.139,3.786.342,5.716.417,4.06.159,8.121.262,12.181.369,3.616.1,7.232.159,10.848.25,2.556.065,5.115.089,7.668.258a3.525,3.525,0,0,0,2.939-1.14,9.909,9.909,0,0,1,1.351-1.181c.828-.578,1.38-.312,1.412.7.055,1.779.058,3.558.048,5.335-.008,1.33-.114,2.657-.1,3.988q.075,7.25.207,14.5a5.205,5.205,0,0,1-1.429,4.214,13.055,13.055,0,0,0-2.148,3.05c-.57,1.011-1.436,1-2.392.946q-1.829-.1-3.658-.165Q46.65,64.3,40.666,64.1l-17.352-.6c-.935-.031-1.87,0-2.892.01l-.52,7.232c1.554.048,3.037.1,4.521.139,6.342.188,12.684.391,19.025.557q7,.182,13.993.255a2.074,2.074,0,0,0,1.371-.676c1.648-1.823,3.23-3.706,4.831-5.572a11.643,11.643,0,0,1,1.274-1.492,3.95,3.95,0,0,0,1.376-3.521c-.122-2.89-.144-5.78-.2-8.671-.095-4.66-.221-9.321-.27-13.98-.059-5.657-.023-11.312-.084-16.969-.033-3-.173-6-.294-9A15.229,15.229,0,0,0,65.074,9.9l-5.882,5.941L19.786,14.27C19.414,16.064,19.556,31.414,19.991,32.965Zm28,24.328a102.419,102.419,0,0,0,12.777.462c.314-7.953.039-15.781.038-23.838a9.343,9.343,0,0,1-2.326,1.64,7.684,7.684,0,0,1-2.45-.171,8.718,8.718,0,0,0-1.1.073c.18.368.3.6.41.837.694,1.449,1.472,2.868,2.046,4.36a7.567,7.567,0,0,1,.292,2.469c.094,3.38.138,6.76.23,10.141a2.855,2.855,0,0,1-.864,2.354,3.656,3.656,0,0,1-3.189-.355,2.785,2.785,0,0,1-.645-1.8c.611-3.736.26-7.526.33-11.288.021-1.117.191-2.321-.588-3.37a10.918,10.918,0,0,0-4.022-3.541c-.884-.42-1.37-.126-1.365.9a6.793,6.793,0,0,1-.967,3.95,1.963,1.963,0,0,0-.146.956,5.116,5.116,0,0,0,.11.657c.215,2.086-.446,3.033-2.6,3.57a2.6,2.6,0,0,1-2.6,2.785,8.2,8.2,0,0,0,.795.332c.536.163,1.087.273,1.619.447,2.033.665,2.421,1.17,2.5,3.278C49.26,53.658,49.435,54.155,47.993,57.293ZM50.617,8.563c-5.282-.225-10.564-.514-15.846-.764-1.111-.052-2.223-.056-3.334-.074a5.959,5.959,0,0,1-1.825-.035c-1.871-.671-3.04.369-4.227,1.426-1.327,1.181-2.639,2.378-4.177,3.766,1.972.139,3.608.267,5.244.365,2.5.15,5,.293,7.5.414q5.832.282,11.665.528c3.836.155,7.672.253,11.508.421A3.627,3.627,0,0,0,60.4,13.142c1.056-1.35,2.246-2.594,3.585-4.12C59.285,8.864,54.951,8.748,50.617,8.563ZM34.943,57c-.148-.963-.275-1.816-.412-2.668a11.7,11.7,0,0,1-.292-1.8c0-.743-.47-1.584.215-2.22.915-.85,1.772-1.8,3.157-1.922.685-.062,1.361-.186,2.042-.282l0-.356a5.768,5.768,0,0,1-1.909-.71,5.365,5.365,0,0,1-.895-1.78c-1.185-.147-9.847,1.952-12.157,2.965a30.779,30.779,0,0,0,.307,8.478C28.212,56.878,31.464,57.349,34.943,57ZM36.122,52.1a4.57,4.57,0,0,0-.225,1.166c.15,1.714.255,3.439.568,5.131a3.055,3.055,0,0,0,2.224,2.342A10.843,10.843,0,0,0,41.806,61a1.869,1.869,0,0,0,1.7-1.365,20.568,20.568,0,0,0,1.214-7.575Zm-1.268-17.27c.028,1.361-.011,2.618.1,3.867.088.994.961,1.411,1.768,1.576a14.551,14.551,0,0,0,7.539-.208,2.3,2.3,0,0,0,1.664-1.863,28.889,28.889,0,0,0,.155-3.074,83.572,83.572,0,0,0-11.228-.3Zm-1.066,4.958-.2-4.981L25.2,34.546a29.986,29.986,0,0,0-.218,7.913l8.8-2.667ZM54.668,52.367a4.145,4.145,0,0,0,.049,1.314.973.973,0,0,0,.7.571,1.631,1.631,0,0,0,.923-.483c.122-.109.083-.419.081-.639q-.039-4.323-.089-8.646-.013-1.162-.047-2.325c-.015-.51-.018-1.052-.734-1.1s-.746.468-.752,1q-.039,3.576-.089,7.152l.112.009C54.768,50.268,54.708,51.316,54.668,52.367ZM36.278,50.8c2.6.31,5.078.653,7.487-.309-.942-1.308-1.865-1.381-3.419-.208C38.887,48.652,37.514,48.8,36.278,50.8ZM21.914,61.95a23.767,23.767,0,0,0,3.422-3.786c-.877-.412-1.442-.327-1.9.272q-1.279,1.671-2.552,3.345l.139.306C21.326,62.047,21.738,62.12,21.914,61.95Zm8.9-3.635-2.383,3.7c1.261-.109,3.086-1.983,3.758-3.844C31.579,57.782,31.144,57.8,30.81,58.315Zm.5,3.555c1.223.073,2.727-1.539,3.343-3.687C33.437,58.328,32.836,59.016,31.313,61.87Zm18.481-2.087c-.228.486-.461.971-.722,1.438-.222.4-.487.768-.79,1.241,1.058-.251,3.146-2.456,3.542-3.621-1.486-.2-1.5-.187-2.03.942Zm5.572.085a13.178,13.178,0,0,1-1.757,2.328,1.251,1.251,0,0,0,1.79-.409c.653-.832,1.245-1.713,1.923-2.658-.922-.161-1.527-.2-1.956.739Zm-6.393-.943c-1.127.034-1.885.873-2.966,3.442A6.5,6.5,0,0,0,48.973,58.924Zm-19.6-.958c-1.148.039-1.164,1.155-1.7,1.718-.591.624-1.081,1.344-1.614,2.023a5.956,5.956,0,0,0,3.312-3.741Zm29.222,2.973c.453-.514.838-1.088,1.255-1.638-1.162-.157-2.042.807-2.878,3.31,1.12-.231,1.162-1.15,1.623-1.672ZM35.451,59.6l-1.819,2.635c2.156-.062,2.765-1.048,1.819-2.635Zm18.6-.621a7.737,7.737,0,0,0-2.883,3.66,12.86,12.86,0,0,0,2.883-3.66Zm.994-19.575a4.318,4.318,0,0,0-2.893-3.646l2.893,3.646ZM27.174,57.931c-.293.057-.444.041-.486.1-.582.829-1.15,1.668-1.721,2.5C25.859,59.825,27.081,59.357,27.174,57.931Zm10.8,4.484.066-.28-1.165-.4-.1.438ZM46.8,53.691l-.211.209.829.911L47.7,54.5Zm-.551,3.363-.148-.214-.785.456.216.316Z" transform="translate(-17 -6.164)"/>
        <path id="Path_5286" data-name="Path 5286" d="M26.1,22.607c.134-2.077.149-2.918,2.684-2.455.434.079.942-.06,1.309.125.389.2.918.664.923,1a38.3,38.3,0,0,1-.233,4.263.872.872,0,0,1-1.023.84c-1.251-.138-2.5-.307-3.847-.476C25.987,24.672,26.038,23.638,26.1,22.607Zm1.55-.81c-.044.638-.115,1.268-.122,1.9-.007.578.305.883.909.954.7.083,1.063-.254,1.089-.877a16.346,16.346,0,0,0-.154-1.987Z" transform="translate(-19.08 -9.397)"/>
        <path id="Path_5287" data-name="Path 5287" d="M25.5,31.675c.011-.733.294-1.189.991-1.259a6.5,6.5,0,0,1,3.668.349c.067,1.678.165,3.273.177,4.865,0,.553-.2,1.188-.943,1.078-1.25-.187-2.492-.461-3.727-.75-.228-.053-.408-.35-.414-.355C25.352,34.045,25.477,32.863,25.5,31.675Zm1.361.441a13.249,13.249,0,0,0-.1,1.653,1.37,1.37,0,0,0,1.523,1.2c.735-.083.811-.644.779-1.216-.03-.542-.141-1.083-.236-1.768Z" transform="translate(-18.923 -11.792)"/>
        <path id="Path_5288" data-name="Path 5288" d="M59.791,36.766c-.026.577-.49.823-1.07.741-1.2-.168-2.39-.352-3.741-.553-.066-1.652-.129-3.231-.193-4.811-.052-1.281.2-1.567,1.519-1.478,1.1.074,2.19.25,3.61.419C59.879,33.058,59.873,34.915,59.791,36.766Zm-3.305-4.7a4.48,4.48,0,0,0-.226,2.975.993.993,0,0,0,1.018.89c.592.022,1.219-.044,1.281-.7a22.028,22.028,0,0,0-.084-2.828Z" transform="translate(-25.811 -11.875)"/>
        <path id="Path_5289" data-name="Path 5289" d="M54.466,24.976c-.129-1.705,1.3-3.491,2.778-3.467a3.324,3.324,0,0,1,3.1,3.352A2.407,2.407,0,0,1,57.907,27.7,3.132,3.132,0,0,1,54.466,24.976Zm4.458-.224a2.005,2.005,0,0,0-1.8-1.707,1.658,1.658,0,0,0-1.54,1.591,1.807,1.807,0,0,0,1.91,1.507C58.489,26.1,58.993,25.612,58.924,24.752Z" transform="translate(-25.736 -9.743)"/>
      </g>
      <g id="noun-coat-1264253" transform="matrix(0.995, -0.105, 0.105, 0.995, 201.244, 334.119)">
        <path id="Path_5278" data-name="Path 5278" d="M45.014,33.867a39.144,39.144,0,0,0,.516,7.223c.6,4.3.688,8.6,1.118,12.9.688,8.168,1.376,16.423,2.494,24.591.344,2.322,0,2.493-2.236,2.493-7.051-.172-14.015-.344-21.066-.258-3.181,0-6.363.344-9.544.258-2.322-.086-2.236-.086-1.892-2.322q.9-6.062,1.548-12.124c.516-4.385,1.376-8.684,1.978-13.069.774-5.417,1.806-10.748,2.322-16.251a12.192,12.192,0,0,0-.172-4.643c-.6,1.2-1.29,2.408-1.892,3.611-3.009,6.449-5.933,12.9-8.942,19.346A1.642,1.642,0,0,1,7.1,56.739C4.946,56.051,2.8,55.363.647,54.5c-1.032-.344-.6-1.2-.258-1.892C2.367,48.485,3.742,44.1,5.462,39.886c2.58-6.449,5.073-12.9,7.481-19.432,1.118-3.009,1.978-6.019,3.009-9.028a2.081,2.081,0,0,1,2.15-1.72c2.15-.172,4.213-1.376,6.1-2.408.86-.516.946-1.462,1.2-2.322.258-.946-.344-1.978.6-2.751A7.6,7.6,0,0,1,29.881.248a16.2,16.2,0,0,1,6.1.086c1.634.43,3.267,1.118,3.783,2.837,1.118,3.611,3.869,5.589,6.965,7.223a7.18,7.18,0,0,1,3.525,4.385c1.806,4.9,3.955,9.716,5.761,14.617,2.665,7.137,6.1,13.929,8.684,21.066.258.774.688,1.462,1.032,2.236.6,1.376.43,2.15-.946,2.751-2.15.86-4.3,1.462-6.535,2.15-.774.258-1.118-.172-1.462-.86-1.376-3.009-2.837-6.1-4.3-9.114-2.064-4.127-4.213-8.34-6.277-12.468C45.874,34.641,45.788,34.125,45.014,33.867ZM19.305,52.526c-.6,3.7-1.2,7.309-1.72,10.92-.688,4.815-1.2,9.716-1.806,14.531-.086.946.086,1.462,1.29,1.548,5.159.086,10.318-.172,15.391-.258,1.462,0,1.806-.688,1.806-1.978,0-2.322.172-4.557.258-6.879.172-7.652.344-15.391.516-23.043.086-2.923.172-5.847.172-8.77,0-1.376-.258-1.548-1.548-1.2a7.334,7.334,0,0,1-3.353.258,19.932,19.932,0,0,0-3.181.086c-.43,0-.946.086-1.032.516-.258,1.376-1.462,2.665-.086,4.041.6.6.344,1.376.086,2.064-.6,1.892-1.2,3.7-1.72,5.589-.86,3.439-.946,3.525-4.471,2.408C19.907,52.526,19.735,52.526,19.305,52.526ZM40.027,40.832c.688-.086,1.2-.086,1.806-.172.774-.086,1.376.258,1.376,1.032,0,2.751.6,5.5.86,8.254a1.452,1.452,0,0,1-.688,1.462c-.946.516-1.892.946-2.837,1.376-.774.344-1.29.086-1.29-.86a25.24,25.24,0,0,0-.946-7.223c-.516-1.892.516-3.7.172-5.589-.086-.688.172-1.72-.86-1.72-.86,0-1.032.946-1.032,1.634v.516c-.344,10.4-.688,20.722-.688,31.126,0,2.408-.172,4.729,0,7.137.086,1.29.516,1.72,1.806,1.72,2.579,0,5.245.086,7.824.086,1.548,0,1.72-.172,1.634-1.72-.086-2.322-.258-4.557-.516-6.879-.43-5.417-1.118-10.834-1.376-16.337-.344-5.5-.688-10.92-1.376-16.337-.258-1.978-.6-2.236-2.494-1.806-1.634.344-1.892.774-1.634,2.408A10.5,10.5,0,0,0,40.027,40.832ZM36.244,15.037c.172-2.494.172-2.494-2.064-2.494a10.157,10.157,0,0,1-5.245-1.118c-1.2-.6-2.665-.86-3.783-1.72a1.883,1.883,0,0,0-1.634-.258c-1.462.516-2.923,1.032-4.385,1.634a.755.755,0,0,0-.516,1.118c1.118,2.665.516,6.191,3.525,8,2.837,4.127,4.729,8.512,4.3,13.757-.172,2.064,0,2.064,1.978,2.064.946,0,1.892.086,2.923.086,4.729-.172,4.041.774,4.385-4.729.086-1.118,0-2.15-1.462-2.322a1.027,1.027,0,0,1-.946-1.2c.086-.774.688-1.548,1.118-1.376,1.806.6,1.29-.688,1.29-1.462a47.127,47.127,0,0,1,.43-4.9c.258-1.548-.086-2.15-1.548-2.665-.6-.258-1.118-.516-1.032-1.2a1.369,1.369,0,0,1,1.032-1.29C35.126,14.951,35.642,15.037,36.244,15.037Zm12.124-.172h-.6c-1.118,4.127-2.494,8.254-2.665,12.554a6.425,6.425,0,0,0,.516,3.353c2.064,4.3,4.041,8.512,6.1,12.811l1.548,3.1a1.6,1.6,0,0,0,1.978.86,26.567,26.567,0,0,0,4.385-1.548c1.462-.516,1.548-.688,1.032-2.064-.774-1.892-1.72-3.7-2.408-5.589-2.665-7.051-5.5-14.015-8.512-20.808C49.313,16.585,48.8,15.725,48.368,14.865Zm-31.212-1.2a7.219,7.219,0,0,0-1.72,3.439c-.516,1.634-1.032,3.267-1.634,4.815-3.009,7.309-5.245,14.875-8.512,22.1-.344.688-.258,1.118.6,1.548,1.376.6,2.837,1.29,4.213,1.892,1.032.43,1.462.172,1.806-.774,1.548-3.955,3.869-7.566,5.159-11.608a14.551,14.551,0,0,1,1.118-2.665,12.271,12.271,0,0,0,1.548-8A84.637,84.637,0,0,0,17.156,13.661ZM36.76,29.31a34.456,34.456,0,0,0-.086,5.159c.086.516.086,1.118.688,1.118.688,0,.6-.6.6-1.118a20.009,20.009,0,0,1,4.9-13.241,12.529,12.529,0,0,0,2.665-5.847c.688-3.7.86-3.611-2.408-5.245a2.074,2.074,0,0,0-2.665.172,4.214,4.214,0,0,1-1.72.946,1.742,1.742,0,0,0-1.376,1.978C37.62,18.562,36.932,23.979,36.76,29.31ZM63.845,52.44c-.43-1.376-.6-3.439-1.892-4.557-.946-.86-2.408.172-3.7.43-.6.172-1.29.258-1.892.43-.946.258-1.462.688-.86,1.72.774,1.376,1.462,2.665,2.236,4.041a.923.923,0,0,0,1.032.516c1.462-.258,2.837-.516,4.3-.86C63.759,54.073,63.845,53.472,63.845,52.44ZM6.58,54.933c.946.43,1.29-.086,1.634-.688.6-1.2,1.2-2.494,1.892-3.7.43-.86.086-1.376-.774-1.634-1.376-.43-2.751-.946-4.127-1.462-.6-.172-1.118-.172-1.462.43-.688,1.462-1.29,3.009-1.892,4.471a.719.719,0,0,0,.516,1.118C3.828,53.988,5.032,55.105,6.58,54.933ZM44.068,22.346a14.5,14.5,0,0,0-3.955,6.363,13.97,13.97,0,0,0-.6,5.331c0,.516,0,1.032.688,1.118,1.548.258,3.525-1.376,3.267-2.923a9.727,9.727,0,0,1,.258-3.869A17.645,17.645,0,0,0,44.068,22.346ZM34.524,10.48h.516c.516,0,1.118,0,.946-.688-.086-.6-.688-.258-1.032-.172-.86.086-1.2-.344-1.29-1.118-.086-.688.43-1.032.946-1.2a1.835,1.835,0,0,1,.688,0c.344.086.6.086.688-.344,0-.344-.086-.688-.43-.774a3.856,3.856,0,0,0-.946-.086,8.093,8.093,0,0,1-6.277-1.2c-.344-.258-.774-.516-1.118-.172a4.5,4.5,0,0,0-1.032,2.923c-.086.774.6.86,1.032,1.118C29.537,10.136,32.031,10.222,34.524,10.48ZM21.283,22.346a17.312,17.312,0,0,0,.6,5.159,4.245,4.245,0,0,1,.258,2.322,27.239,27.239,0,0,0-.172,3.7,1.9,1.9,0,0,0,2.064,1.892c1.2,0,.774-1.032.86-1.634C25.582,29.4,23.948,25.785,21.283,22.346ZM19.907,49.43c1.118-2.064,1.376-4.213,1.892-6.363.258-.946.258-1.892,1.462-2.322,1.376-.43,1.118-1.72,1.118-2.665,0-.86-.86-1.032-1.634-1.2s-.946.43-1.032,1.032a14.583,14.583,0,0,1-.516,2.665C20.165,43.412,20.079,46.421,19.907,49.43Zm21.066-6.793c-1.29,1.2-1.118,2.665-1.032,3.955a24.656,24.656,0,0,1,.43,2.665c0,.516-.086,1.29.774,1.29.774,0,1.548-.516,1.29-1.376C41.919,47.023,42,44.787,40.973,42.638ZM28.935,3.086c3.009,2.064,4.987,2.064,7.653.344C34.18,1.882,31.773,2.4,28.935,3.086ZM24.55,44.615c-.086-.516.086-1.118-.516-1.2-.43-.086-.688.344-.774.774-.516,1.978-1.118,3.869-1.548,5.847-.086.344-.258.86.172,1.032.6.258.946-.172,1.032-.688C23.432,48.485,24.034,46.507,24.55,44.615ZM37.62,7.213v.43c.086.6.086,1.2.688,1.462A1.238,1.238,0,0,0,39.6,8.76a1.329,1.329,0,0,0,.258-1.72,11.016,11.016,0,0,0-.946-1.72.711.711,0,0,0-1.29.172Z" transform="translate(0 0)"/>
        <path id="Path_5279" data-name="Path 5279" d="M1.2,0A1.1,1.1,0,0,1,2.15,1.2a1.206,1.206,0,0,1-1.032,1.2A1.066,1.066,0,0,1,0,1.376,1.224,1.224,0,0,1,1.2,0Z" transform="translate(29.193 15.467)"/>
        <path id="Path_5280" data-name="Path 5280" d="M1.2,0c.688.086,1.118.43,1.118,1.118A1.308,1.308,0,0,1,.946,2.494c-.774,0-.946-.6-.946-1.2A1.379,1.379,0,0,1,1.2,0Z" transform="translate(28.763 27.161)"/>
      </g>
      <g id="noun-house-2609998" transform="translate(125.609 233.373)">
        <g id="Group_1991" data-name="Group 1991" transform="translate(0 0)">
          <path id="Path_5783" data-name="Path 5783" d="M151.454,81.145a5.089,5.089,0,0,0,.518-5.024,14.27,14.27,0,0,1-.673-9.18,8.87,8.87,0,0,0,.063-2.239,7.481,7.481,0,0,0-2.28-5.379,11.17,11.17,0,0,1-3.9-6.388,8.621,8.621,0,0,0-1.134-2.488,6.8,6.8,0,0,0-3.485-3.066c-5.025-1.721-13.13,1.8-11.152,9.131.577,2.135-.227,3.58-2.343,4.923a36.553,36.553,0,0,1-3.123-3.378c-3.262-4.5-6.426-9.08-9.628-13.629-.859-1.221-1.809-2.387-2.568-3.667q-3.69-6.222-7.255-12.518A33.87,33.87,0,0,1,102.439,24a2.4,2.4,0,0,0-.636-.931c-23.857,2.228-47.958-.6-71.928-1.11-.306-.007-.572-.072-.862-.1a4.686,4.686,0,0,0-2.381,2.435,11.836,11.836,0,0,1-1.22,1.9c-.025.051-.039.109-.065.159a78.684,78.684,0,0,1-4.605,7.862A168.462,168.462,0,0,1,9.589,53.4a35.431,35.431,0,0,1-5.021,8.212C4,62.384,3.485,63.2,2.949,63.993c-.323,1.965-.711,3.92-1.115,5.874.107,5.067.274,10.133.285,15.2A17.972,17.972,0,0,1,2,88.1a83.91,83.91,0,0,1,.588,8.88,40.841,40.841,0,0,1,1.018,7.989,15,15,0,0,0,1.748,3.139c.849.1,1.7.249,2.552.415,3.732-.162,7.463-.374,11.2-.514,2.316-.087,4.638.007,6.956-.049,1.318-.032,2.632-.293,3.948-.29,1.568,0,3.136.247,4.7.269,4.488.064,8.976.081,13.464.092,1.983,0,3.968-.013,5.95-.083,4.378-.154,8.754-.386,13.133-.51,2.572-.073,5.148.046,7.721,0,4.491-.083,8.991-.482,13.467-.285,5.736.254,11.447.48,17.195.175,4.3-.228,8.63.014,12.945.127,1.65.043,3.292.369,4.943.451a15.061,15.061,0,0,0,3.913-.123c1.769-.386,2.07-1.09,1.805-2.906a19.867,19.867,0,0,1-.154-5.5l6,.456-.94,9.033a9.233,9.233,0,0,0,1.337.983c.868-.168,1.72-.366,2.577-.557a3.515,3.515,0,0,0,.2-1.206,17.318,17.318,0,0,0-.207-2.23,24.09,24.09,0,0,1,.408-6.772c1.935-.439,3.613-.914,5.323-1.188a9.354,9.354,0,0,0,7.908-7.838,13.135,13.135,0,0,0-.6-4.892A4.414,4.414,0,0,1,151.454,81.145Zm-3.049-15.1-.745,3.384L147,69.3A2.739,2.739,0,0,1,148.4,66.044ZM138.068,52.716l-.345-1.421c1.941-1.412,1.988-1.278,3.414.462a5.215,5.215,0,0,1,1.168,3.316,6.95,6.95,0,0,0,3.273,5.315c.635.445,1.226.954,1.837,1.434l-.161.527a4.777,4.777,0,0,1-1.5.206,22.918,22.918,0,0,1-2.611-.78,2.089,2.089,0,0,0-2.311.277,2.178,2.178,0,0,1-1.156.421c-.8.106-1.862.434-2.182-.549a3.957,3.957,0,0,1,.393-2.254c.519-1.441,1.253-2.812,1.681-4.275a3.781,3.781,0,0,0-.6-1.763,4.6,4.6,0,0,1-2.063,4.748c-1.671,1.136-2.871.6-3.232-1.361a5.37,5.37,0,0,1-.045-.993c.012-2.657.753-4.806,4.441-3.308Zm7.784,15.88c-1.768,1-1.768,1-2.34-.484l2.34.484Zm-13.407-9.925c1.042.96,2,1.708,2.793,2.6,1.494,1.68,1.446,2.181,0,3.979a4.144,4.144,0,0,0-.424.843c-1.012.8-2.009.063-3.013-.033l-1.461-2.617,2.107-4.772Zm-6.382,9.671.581,1.587.566-.32c.061-.446.136-.891.182-1.339.243-2.347.94-2.88,3.215-2.445.4.076.792.17,1.187.257a3.85,3.85,0,0,1,.838,1.444,2.139,2.139,0,0,1-.625,1.625,25.944,25.944,0,0,1-2.748,1.56c-.773.464-1.5,1.009-2.432,1.646l-1.339-3.619Zm-1.672-5.53-2.276-4.035c2.835,2.42,2.891,2.524,2.276,4.035Zm-1.936,2.821-1.883-3.472c1.745.484,2.147,1.107,1.883,3.472Zm-1.782.332a7.667,7.667,0,0,1-2.72-4.538,7.9,7.9,0,0,1,2.72,4.539Zm-1.982-.324c-1.955-.3-1.955-.3-2.077-3.23Zm-1.64-14.785.817,1.027-.476.375-.67-1.186Zm.787,10.383A13.3,13.3,0,0,1,116.29,59.5a52.963,52.963,0,0,1-5.325-11.078c2.384,4.226,5.253,8.184,6.874,12.817Zm-4.029,3.911-.493.367c-1.771-.786-3.694-4.359-3.894-7.683ZM103.454,43.957c1.3,1.212,5.837,10.632,6.094,12.7a57.747,57.747,0,0,1-6.094-12.7Zm4.917,20.519c-1.546-.133-1.556-.971-1.774-1.949,1.137.15,1.357.857,1.773,1.949Zm-2.915-5.989c-.124-1.9-.242-3.694-.359-5.487l.271-.145,2.662,5.921Zm-.792-20.513-.581.271L101.618,32.9A9.43,9.43,0,0,1,104.664,37.973Zm-.079,13.712a52.261,52.261,0,0,1-5.362-11.83,27.146,27.146,0,0,1,5.362,11.83Zm-1.252,4.924a66.412,66.412,0,0,1-2.91-6.759c-.638-2.039-1.477-3.4-3.98-3.133l2.2,5.236-.647.276c-1.29-2.015-1.771-4.44-3.083-6.6L98.287,43.3c1.077,1.078,4.675,9.943,5.046,13.31ZM103,61.443l-.891-.235.814-.608Zm-2.742-3.592c-1.926.6-2.17-.671-2.609-2.213ZM97.517,42.337a9.883,9.883,0,0,1-2.1-4.734,4.367,4.367,0,0,1,2.1,4.734ZM94.954,28.555l.746,1.79-.385.179-.826-1.759Zm-1.261,9.862-1.705-4.176A4.409,4.409,0,0,1,93.693,38.417Zm.983,10.93a25.824,25.824,0,0,1-3.979-8.7A16.744,16.744,0,0,1,94.676,49.347Zm-4.149-4.31a13.51,13.51,0,0,1,1.153,2.654c.4.864.853,1.711,1.336,2.534.664,1.132,1.46,2.193,2.054,3.358a48.11,48.11,0,0,1,3.673,9.076l-.456.205c-1.205-2.517-2.377-5.051-3.635-7.541A21.475,21.475,0,0,0,93.12,53.17a7.839,7.839,0,0,1-.954-1.652,14.219,14.219,0,0,0-2.689-4.655,19.928,19.928,0,0,1-2.3-5.2,39.579,39.579,0,0,1,3.351,3.375ZM87.42,58.566l3.557,6.757c-1.438-.4-2.638-2.871-3.557-6.757Zm.473,6.655a1.465,1.465,0,0,1-.654.436,3.191,3.191,0,0,1-.35-.8,1.942,1.942,0,0,1,.609-.461,1.918,1.918,0,0,1,.395.826Zm-.356-9.785.489-.29,2.04,2.512a16.614,16.614,0,0,0-2.026-5.64,1.3,1.3,0,0,1,1.53,1.118,9.8,9.8,0,0,0,2.892,4.791c-.308.759.167,1.712-.936,2.362-.419.247-.1,1.754-.372,2.843l-3.617-7.7Zm4.521-.563a8.817,8.817,0,0,1,2.77,5.311L92.5,57.946l-.441-3.074ZM85.7,28.44l.654,1.825L85.216,28.7Zm.131,3.645.587-1.643a10.62,10.62,0,0,1,.688,2.2,32.819,32.819,0,0,1-.025,3.564l-1.695.775a45.213,45.213,0,0,1-1.646-4.22c-.131-.453.6-1.128.513-1.625-.184-1.032-.654-2.012-.776-3.2Zm-3.878-2.856c-1.2-.4-1.1-1.23-1.1-2.446C81.8,27.562,82.547,28,81.951,29.229ZM81.845,33.7c.645,2.295,1.552,4.515,2.284,6.787a10.072,10.072,0,0,0,2.322,4.045,7.948,7.948,0,0,1,1.09,2.453l-.456.392-2.774-1.4c.557-3.445-1.628-5.917-2.622-8.76-.564-1.612-1.315-3.159-2.017-4.82a1.657,1.657,0,0,1,2.174,1.3Zm1.017,11.383-.577.261-.968-2.927ZM71.186,28.526l1.941-1.8,2.832,1.134L74.34,28.9l1.395,2.958.434-.061.3-2.034a46.163,46.163,0,0,1,4.728,12.34l-3.337-7-.494.132A12.836,12.836,0,0,0,77.8,37.17c.63,1.625,1.36,3.211,2.005,4.83,1.846,4.627,3.687,9.256,5.486,13.9a22.32,22.32,0,0,1,.69,2.722l-.564.207c-.683-1.281-1.064-3.129-2.127-3.7a8.958,8.958,0,0,1-2.454-2.516l-1.317.445c-2.9-7.427-6.436-14.548-9.328-22.484l2.157.966ZM86.32,63.535c-.866-.82-1.879-1.555-1.512-3.147a2.43,2.43,0,0,1,1.512,3.147Zm-3.216.1c-1.29-.574-1.133-1.733-1.37-2.667A2.445,2.445,0,0,1,83.1,63.64Zm-3.434-4.2a7.415,7.415,0,0,1-1.932-3.766,2.624,2.624,0,0,1,.511-1.222,2.493,2.493,0,0,1,1.174.576c.486,1.357,1.629,2.732.247,4.412Zm.6,4.853L78.414,63.2l.806-1.736,1.054,2.826ZM78.063,59.97a17.112,17.112,0,0,1-2.955-6.8A13.467,13.467,0,0,1,78.063,59.97Zm-8.072-31.7c-1.249.01-1.249.01-1.489-1.527a1.466,1.466,0,0,1,1.489,1.527Zm-11.011-.828-.166,1.681-.437.116L57.1,26.287a1.951,1.951,0,0,1,1.882,1.156Zm-3.742-1.668c1.794.683.84,2.288,1.457,3.216.636.957,1.135,2.005,1.784,3.176l1.881-1.449L58.992,27.46l.02.028c1.14-1.366,1.573.4,2.39.554l1.332-.926c.376.912.7,1.652.988,2.4a4.728,4.728,0,0,0,1.735,2.23,9.438,9.438,0,0,1,2.119,3.506c.436.886.62,1.9,1.05,2.786a2.232,2.232,0,0,0,1.291.917c-.122-3.045-2.684-5.233-2.8-8.215a1.129,1.129,0,0,1,1.6.873c1.307,2.78,2.579,5.576,3.839,8.377.578,1.285,1.156,2.576,1.634,3.9a28.308,28.308,0,0,1,.718,2.862c-1.113.512-1.9.548-2.274-.472-.423-1.153-.672-2.37-1.018-3.552-.2-.667-.433-1.323-.652-1.983-.647.235-1.294.468-1.939.706-.153.056-.3.126-.491.206l-4.474-5.879c-1.312,1.752-1.308,1.767,1.547,7.36a8.456,8.456,0,0,1,2.865,1.227,2.608,2.608,0,0,1,.3,3.106L67.4,47.115a1.372,1.372,0,0,0-.143.512,3.347,3.347,0,0,0,3.706,2.908,1.405,1.405,0,0,1,1.5.976c1.453,2.986,2.85,6,4.316,8.978.461.937,1.069,1.8,1.613,2.7l-.007,0a3.025,3.025,0,0,1-.93.257,19.992,19.992,0,0,1-1.332-2.369c-.336-.7-.58-1.451-.981-2.478-1.651,1.987.325,3.232.181,4.881-2.642-1.447-2.621-4.765-5.059-6.568.278,2.634,1.593,4.617,2.579,6.931a1.987,1.987,0,0,1-1.854-1.412,18.225,18.225,0,0,0-3.936-4.937C64.912,55.9,64.3,53,64.084,50.3l.491-.235L66.854,54.1l.566-.157a3.661,3.661,0,0,0,0-1.44c-1-2.168-2.5-4.139-2.353-6.727a2.183,2.183,0,0,0-.836-.753,2.372,2.372,0,0,0-.671.868,11.018,11.018,0,0,0,.075,1.927l-2.54.685L59.566,44.19l1.662.949a14.017,14.017,0,0,1-.8-4,7.2,7.2,0,0,0-2.346-6.353,2.866,2.866,0,0,1-.509-1.1c-.811-2.257-1.62-4.515-2.4-6.784a3.7,3.7,0,0,1,.064-1.125ZM71.244,46.5l-.6.188L69.78,44.21C71.023,44.659,70.943,45.661,71.244,46.5ZM68.55,61.749c.4.841.723,1.473,1.013,2.119.259.578.486,1.17.866,2.091l-1.506-.24c.418-1.36-2.649-2.032-.373-3.969Zm-7.735-7.59A7.253,7.253,0,0,1,60.6,52.3l.779-.191,5.1,12.265a4.45,4.45,0,0,1-1.7-.608Q62.717,59,60.815,54.159Zm2.38,12.1a3.437,3.437,0,0,1-3.563-.057l3.563.057Zm-4.306-17.4a16.71,16.71,0,0,1-2.766-6.714C58.37,43.811,58.511,46.38,58.889,48.857ZM57.056,36.282a.76.76,0,0,1,.419-.358,3.579,3.579,0,0,1,.706.581l-.655.5A3.858,3.858,0,0,1,57.056,36.282ZM53.069,33.3l2.245,5.765-.557.215-2.265-5.757Zm2.59,13.309-.63.259-1.367-3.147.71-.333,1.287,3.221ZM51.135,36.438l1.322,2.627C51.083,38.226,51.083,38.226,51.135,36.438Zm-.715,7.493a7.453,7.453,0,0,1,1.037,1.422c.732,1.745,1.4,3.518,2.048,5.3s1.183,3.6,1.867,5.37c.471,1.216,1.134,2.356,1.671,3.547.4.88.73,1.79,1.092,2.686l-.494.438a2.591,2.591,0,0,1-1.044-.7c-.912-2.263-2.321-4.307-2.438-6.923a13,13,0,0,0-1.474-4.183c-.747-1.748-1.621-3.442-2.386-5.182a7.515,7.515,0,0,1-.326-1.549Zm4.963,20.86-1.1-2.219c1.317.7,1.325.715,1.1,2.219Zm.043,1.447c-.907-.615-.911-.631-.045-1.361.014.432.029.865.045,1.361ZM47.826,30.7a2.608,2.608,0,0,0,1.627,2.663l-.41.376a3.852,3.852,0,0,1-1.45-.966,16.833,16.833,0,0,1-2.16-6.71A6.7,6.7,0,0,1,47.826,30.7Zm1.193,9.5a14.852,14.852,0,0,1-2.908-5.962C47.6,35.4,48.45,37.17,49.019,40.2ZM42.531,27.146l-.44-2.042c1.33,1.16,1.338,1.18.44,2.042ZM40.91,25.639l1.6,1.529,0,0c-.022.315-.044.629-.1,1.42l-1.779-2.752Zm-1.865-.034c.178.809.133,1.672.352,2.466a29.717,29.717,0,0,0,1.1,2.855l1.208-.974c1.071,1.938,2.247,3.743,3.094,5.691.855,1.967,1.32,4.1,2.071,6.117.715,1.922,1.578,3.789,2.462,5.884a2.884,2.884,0,0,0-.4,1.372,2.777,2.777,0,0,0,.956,1.932c2.319.99,2.137,3.389,3.1,5.113a6.109,6.109,0,0,1,.136,5.139,3.546,3.546,0,0,1-1.891-3.142A17.465,17.465,0,0,0,49.065,51.8c-1.537-3.19-3.28-6.39-3.275-10.112a.7.7,0,0,0-.052-.243c-1.028-2.678-2.058-5.355-3.193-8.308l-1.222,1.671-3.979-9.647c.98-.592,1.517-.4,1.7.443Zm7.51,27.942.456-.173,3.948,8.2c-1.522-1.157-3.626-5.241-4.4-8.029Zm2.105,8.995c-1.927-1.791-3.678-5.387-3.4-6.978a16.409,16.409,0,0,1,3.4,6.978ZM34.551,25.66c1.12,2.2,2.275,4.38,3.352,6.6,1.811,3.731,3.573,7.487,5.356,11.232a1.757,1.757,0,0,1-.485,2.447c-3.318-6.584-5.845-13.364-8.654-20.02Zm8.859,28.083L41.985,50.77c1.556,1.176,1.556,1.176,1.426,2.973ZM41.553,48.4l-.573.269-1.1-2.7A3.911,3.911,0,0,1,41.553,48.4Zm-3.718-7.965a11.638,11.638,0,0,1-2.892-6.284A16.342,16.342,0,0,1,37.835,40.436ZM32.152,25.09l.314,1.194-.275.1-.509-1.1Zm18.473,78.337a1.594,1.594,0,0,1-1.7,1.478c-1.649.205-3.3.511-4.95.564-4.9.156-9.8.3-14.706.278-4.8-.017-9.608-.3-14.413-.334-2.216-.014-4.433.4-6.652.433-2.112.036-2.922-.489-3.246-2.628a96.287,96.287,0,0,1-.933-10.147c-.268-6.06-.372-12.128-.539-18.192-.034-1.247.059-2.506-.082-3.74a11.131,11.131,0,0,1,1.783-6.868c2.8-4.879,5.8-9.634,8.662-14.479,3.326-5.641,6.559-11.336,9.878-16.981,1.5-2.552,3.111-5.039,4.944-8,2.063,4.645,3.857,8.74,5.7,12.814q2.259,5,4.616,9.948c2.256,4.715,4.554,9.41,6.859,14.1a18.668,18.668,0,0,0,1.713,3.032c1.506,2,1.161,4.788,2.934,6.67a2.2,2.2,0,0,1,.14,1.218c.142,4.564.272,9.129.415,13.693.081,2.572.314,5.148.241,7.715C51.2,97.151,50.858,100.287,50.625,103.427Zm76.175-.538a74.362,74.362,0,0,1-18.159,2.169c-5.149-.025-10.3.246-15.449.215-4.484-.027-8.991-.664-13.444-.372-8.5.557-16.959-.478-25.438-.179a4.54,4.54,0,0,1-.96-.237,8.523,8.523,0,0,1-.332-2.038A135.138,135.138,0,0,0,52.655,83.8c-.287-4.3-.41-8.621-.6-12.932-.079-1.762.494-2.414,2.324-2.41,6.807.012,13.613.087,20.42.082a26.871,26.871,0,0,0,3.458-.427,8.6,8.6,0,0,1,.986-.15c7.305-.1,14.61-.256,21.916-.25,2.815,0,5.627.442,8.446.552,1.479.058,2.975-.295,4.453-.23a30.835,30.835,0,0,1,6.386.674,5.225,5.225,0,0,1,2.9,7.37c.01-.619,0-1.24.034-1.857a1.546,1.546,0,0,0-1.776-1.854c-1,.018-1.987.175-2.982.212-1.995.074-3.993.064-5.985.169-2.132.112-2.636.77-2.453,2.817a18.222,18.222,0,0,1,.01,2.7c-.127,2.124.226,2.41,2.341,2.257,2.71-.2,5.43-.256,8.317-.383.088,3.21-1.615,6.352,1.257,9.387-2.364.317-4.206.629-6.061.788-1.238.106-2.5-.073-3.742-.007a1.8,1.8,0,0,0-2.037,2.187c.026,1.164.049,2.334.189,3.488a1.942,1.942,0,0,0,2.315,2.024q4.241.028,8.482-.028a2.586,2.586,0,0,0,3.027-2.564c.192-1.025.251-2.075.382-3.216,2.195,1.34,3,5.73,2.142,10.688Zm-4.724-26.813a1.88,1.88,0,0,1-2.254,2.21c-1.562-.026-2.1-.65-2.03-2.364.06-1.5.588-1.955,2.222-1.915C121.617,74.045,122.114,74.545,122.076,76.076Zm-5.428.189c.029,1.815-.616,2.425-2.541,2.4-1.9-.023-2.322-.321-2.37-1.692A3.307,3.307,0,0,1,115,74.318c1.179.032,1.626.56,1.648,1.947Zm5.609,18.117a1.937,1.937,0,0,1-2.187,1.847c-1.224-.016-1.622-.51-1.58-1.962q.067-2.314,1.722-2.217a2.145,2.145,0,0,1,2.045,2.332Zm-5.542-1.926c-.021,1.318-.037,2.348-.058,3.595a20.142,20.142,0,0,1-2.288.128c-1.649-.1-2.018-.481-1.978-1.873.041-1.423.431-1.8,2.007-1.88.657-.031,1.318.014,2.316.03Zm18.279,1.566a7.077,7.077,0,0,1-2.3,1.391,10.934,10.934,0,0,1-2.454.308l-.129-.81a2.734,2.734,0,0,0,3.645-2.055,2.373,2.373,0,0,1,1.257-.94,1.063,1.063,0,0,1,.676.483,3.4,3.4,0,0,1-.7,1.622Zm.7-3.563-2.089-1.248-1.593,4.531c-2.547-1.9-3.294-4.617-2.133-6.715l-1.573-.884a6.077,6.077,0,0,1-1.526,1.7,1.947,1.947,0,0,1-2.539-1.382,6.621,6.621,0,0,1,1.735-6.195,8.234,8.234,0,0,1,2.09-.776c.014-.9.048-2.006.046-3.112,0-1.275-.066-2.495,1.605-2.936a7.088,7.088,0,0,0,1.893-1.333,8.29,8.29,0,0,1,2.72,4.069c.93,3.609,1.635,7.278,2.369,10.935A3.81,3.81,0,0,1,135.7,90.459Zm1.738-10.932-.527.117c-1.409-2.935-1.7-6.3-3.754-9.063,2.43-.363,3.618.292,3.991,2.08a17.353,17.353,0,0,1,.336,2.958C137.526,76.919,137.457,78.224,137.436,79.527Zm-.8-10.111c-2.163,0-2.268-.1-1.941-1.862.088-.476.094-.967.136-1.451,1.088-.628,2.165-1.274,3.267-1.876a6.036,6.036,0,0,1,5.05-.953,7.689,7.689,0,0,1-.525,2.257,3.441,3.441,0,0,0-.252,2.855,1.84,1.84,0,0,1,.074,1.2c-1.524,2.244-1.31,4.937-2.008,7.388a6.115,6.115,0,0,1-.62,1.13,35.65,35.65,0,0,1-.872-9.386,7.074,7.074,0,0,1,.988-1.615C138.063,65.841,137.65,66.119,136.637,69.416ZM149.171,77.6c-.412,1.162-.992,2.264-1.561,3.515l-1.668-.746a2.119,2.119,0,0,0,.148.884c1.723,1.53,1.805,3.84,2.642,5.765.746,1.715-2.132,6.984-3.88,7.805a7.47,7.47,0,0,1-1.632.233c1.142-1.573,2.076-2.7,2.825-3.94.709-1.175,1.222-2.467,1.88-3.83-1.136-.3-1.749-.451-2.359-.617-1.3-.351-1.87-.063-2.113,1.288a7.807,7.807,0,0,0,0,2.465,3.882,3.882,0,0,1-1.548,3.8,1.128,1.128,0,0,1-1.728-.324,3.571,3.571,0,0,1-.446-3.759,13.205,13.205,0,0,0,.61-2.383c1.288-.344,3.4-.142,2.8-2.9l-1.326-.53a4.359,4.359,0,0,1,1.7-4.88l-2.068.3c-.355-3.182-.5-2.975,1.25-4.577-.487-2.224-.358-2.67,3.111-5.289,1.12,2.043,2.259,4.032,3.29,6.075a2.313,2.313,0,0,1,.066,1.641Zm-4.651,12.49.216-2.409C145.639,88.705,145.5,89.2,144.52,90.093Z" transform="translate(-1.833 -21.853)"/>
          <path id="Path_5784" data-name="Path 5784" d="M37.891,43.475l-.318.107.479,1.258.22-.07Z" transform="translate(18.292 -9.677)"/>
          <path id="Path_5785" data-name="Path 5785" d="M54.036,23.778l-.377.355a2.525,2.525,0,0,0,.417.385.572.572,0,0,0,.28-.237,2.83,2.83,0,0,0-.32-.5Z" transform="translate(27.351 -20.769)"/>
          <path id="Path_5786" data-name="Path 5786" d="M74.188,45.667l-.43.267.588.823.283-.172Z" transform="translate(38.669 -8.443)"/>
          <path id="Path_5787" data-name="Path 5787" d="M61.879,49.167l-.162.28.849.6a4.155,4.155,0,0,0,.2-.415C62.478,49.459,62.177,49.316,61.879,49.167Z" transform="translate(31.888 -6.472)"/>
          <path id="Path_5788" data-name="Path 5788" d="M13.529,64.766c-4-.323-3.963-.323-4.017-4.3-.021-1.564-.247-3.124-.358-4.687-.141-1.971.386-2.535,2.321-2.623.9-.041,1.8-.163,2.7-.25,1.469-.141,1.929.24,1.971,1.746.042,1.487-.043,2.98.055,4.462.076,1.142.357,2.269.532,3.405.31,2.014-.195,2.55-2.214,2.363C14.184,64.855,13.857,64.806,13.529,64.766Zm.5-9.391c-2.432-.547-2.822-.273-2.7,1.725.083,1.318.106,2.643.247,3.955.173,1.614.407,1.706,2.341,1.133Z" transform="translate(2.276 -4.38)"/>
          <path id="Path_5789" data-name="Path 5789" d="M10.122,72.55c.019-1.163,0-2.328.066-3.487.1-1.678.474-2.032,2.078-2.155,4.581-.352,4.633-.285,4.693,4.323.017,1.325.212,2.646.287,3.971a2.305,2.305,0,0,1-2.3,2.874c-4.437.857-4.949.433-4.867-4.031.009-.5.016-1,.024-1.495Zm3.256,2.674c1.59-1.014,2.017-2.7,1.375-4.976-.325-1.154-1.049-1.373-2.31-.956-.214,2.014-.815,4.108.934,5.932Z" transform="translate(2.806 3.446)"/>
          <path id="Path_5790" data-name="Path 5790" d="M28.09,71.533c-.019,1.163-.027,2.327-.058,3.49-.05,1.887-.386,2.319-2.211,2.732A7.849,7.849,0,0,1,23.853,78c-2.056-.069-2.6-.748-2.536-2.776.062-2.075.032-4.153.014-6.23-.02-2.3.38-2.685,2.659-2.63.658.016,1.318-.169,1.979-.185,1.788-.043,2.319.541,2.213,2.365-.058,1-.12,1.994-.181,2.99Zm-4.3-2.819c-.611,2.647-.814,4.961.632,7.089a1,1,0,0,0,1.329-1.1c.073-2.033.079-4.068.114-6.248Z" transform="translate(9.136 3.105)"/>
          <path id="Path_5791" data-name="Path 5791" d="M22.166,63.595c-1.361-1.376-.794-3.091-.822-4.7-.021-1.216,0-2.439-.121-3.647-.129-1.3.07-1.715,1.306-1.858,1.394-.161,2.8-.261,4.2-.371a1.452,1.452,0,0,1,1.831,1.491c.1,2.23.272,4.462.24,6.691-.026,1.8-.587,2.322-2.422,2.443C24.986,63.731,23.584,63.618,22.166,63.595Zm4.764-5.471c.007-.441.029-1.018.023-1.6a1.246,1.246,0,0,0-1.286-1.467c-.924-.013-1.983-.035-2.106,1.18a20.768,20.768,0,0,0-.026,4.186,1.735,1.735,0,0,0,2.045,1.383,1.333,1.333,0,0,0,1.207-1.574c.049-.658.09-1.317.144-2.113Z" transform="translate(9.066 -4.334)"/>
          <path id="Path_5792" data-name="Path 5792" d="M24.339,39.949a13.312,13.312,0,0,1-.86,3.191,4.67,4.67,0,0,1-6.553.976,4.686,4.686,0,0,1-.387-6.038c1.9-2.39,4.308-2.827,6.564-.892a7.043,7.043,0,0,1,1.236,2.763ZM19.55,42.326a2.355,2.355,0,0,0,2.769-2.167,2.077,2.077,0,0,0-2.208-2.15,2.771,2.771,0,0,0-2.637,2.473,1.725,1.725,0,0,0,2.076,1.844Z" transform="translate(5.929 -13.902)"/>
          <path id="Path_5793" data-name="Path 5793" d="M61.534,75.507c-1.08-.017-2.16-.032-3.24-.053a1.375,1.375,0,0,1-1.534-1.538c-.023-1.822-.119-3.644-.109-5.466.009-1.7.368-2.114,2.035-2.094a46.028,46.028,0,0,0,10.657-.824c1.662-.37,2.343.312,2.232,2.007a33.283,33.283,0,0,1-.651,5.437c-.486,2.062-1.163,2.278-2.691,2.272-2.229-.009-4.459.3-6.688.473Zm-2.675-2.471c5.387,1.049,6.038.491,4.77-3.934a1,1,0,0,0-.352-.322c-5.137-.364-4.81.457-4.418,4.257Zm10.558-4.693c-3.123-.295-3.665.208-3.739,3.065a1.426,1.426,0,0,0,1.95,1.712,1.686,1.686,0,0,0,1.76-1.931c-.077-.889.011-1.793.028-2.846Z" transform="translate(29.035 2.689)"/>
          <path id="Path_5794" data-name="Path 5794" d="M44.864,75.85a27.252,27.252,0,0,1-3.226-.076,2.1,2.1,0,0,1-2.013-2.6c.125-1.646.268-3.29.4-4.935.134-1.686.392-1.942,2.135-2.029,3.472-.174,6.947-.3,10.416-.531a1.286,1.286,0,0,1,1.672,1.306,63.4,63.4,0,0,1-.262,6.691,2.365,2.365,0,0,1-2.464,1.731c-2.2.306-4.423.475-6.636.7Zm.974-7.177c-3.272-.208-4.245.617-4.363,3.537a1.214,1.214,0,0,0,1.238,1.477c3.867.241,4.259.249,3.633-3.725A6.063,6.063,0,0,0,45.838,68.673Zm6.08,4.41a8.815,8.815,0,0,0-.21-4.892c-2.45-.149-2.72-.085-3.067,1.319C47.806,72.885,47.981,74.025,51.918,73.083Z" transform="translate(19.414 2.795)"/>
          <path id="Path_5795" data-name="Path 5795" d="M39.158,59.713c.015-.91.028-1.82.044-2.731a1.648,1.648,0,0,1,1.859-1.807c3.3-.125,6.589-.307,9.882-.486,1.895-.1,2.671.394,2.777,2.3.1,1.886-.1,3.79-.179,5.686a1.575,1.575,0,0,1-1.67,1.5c-1.64.21-3.283.4-4.929.548-1.149.1-2.313.064-3.457.2-3.514.43-4.537-.466-4.428-3.971.013-.413.014-.827.021-1.241Zm1.755,3.046,4.243.068c.131-.633.282-1.179.351-1.735.5-4.032.037-4.467-4.054-3.823a1.526,1.526,0,0,0-.458.37Zm6.657.461c1.267-.336,2.832-.309,3.139-.916a7.691,7.691,0,0,0,1.167-5.985l-4.489.6c.059,2.031.113,3.883.184,6.3Z" transform="translate(19.124 -3.37)"/>
          <path id="Path_5796" data-name="Path 5796" d="M60.936,55.41c2.53-.373,5.071-.688,7.587-1.136,2.323-.413,2.855-.079,3.017,2.255.086,1.242.214,2.487.193,3.728a2.432,2.432,0,0,1-2.767,2.7c-3.477.157-6.955.34-10.427.583-2.4.168-2.769-.218-2.412-2.633a30.01,30.01,0,0,0,.324-3.695c.039-1.723.3-2.074,1.954-2.136.414-.015.829.031,1.245.042s.83.014,1.245.021Zm2.95,6.184c.019-1.188,0-1.927.048-2.661.106-1.8-.228-2.268-1.975-2.372a14.964,14.964,0,0,0-2.472.192,1.349,1.349,0,0,0-1.309,1.511c0,.581.006,1.162,0,1.743a1.355,1.355,0,0,0,1.539,1.52C61.031,61.547,62.343,61.569,63.886,61.594Zm2.229-.461c.756-.036,1.165-.083,1.571-.07a2.019,2.019,0,0,0,2.112-1.7c.313-1.047.578-2.333-.372-2.97a4.141,4.141,0,0,0-2.795-.188c-1.194.236-1.564,1.05-1.31,2.5a17.914,17.914,0,0,0,.793,2.423Z" transform="translate(28.675 -3.681)"/>
          <path id="Path_5797" data-name="Path 5797" d="M48.564,46.17a4.021,4.021,0,0,1-2.214-3.893C47.943,43.146,48.06,44.455,48.564,46.17Z" transform="translate(23.229 -10.351)"/>
          <path id="Path_5798" data-name="Path 5798" d="M41.831,35.675l-1.295-1.728C41.246,33.45,41.481,33.658,41.831,35.675Z" transform="translate(19.961 -15.171)"/>
          <path id="Path_5799" data-name="Path 5799" d="M41.19,26.952l.695,2.841C39.906,28.436,39.906,28.436,41.19,26.952Z" transform="translate(19.828 -18.981)"/>
          <path id="Path_5800" data-name="Path 5800" d="M40,31.828l1.153,1.75a2.328,2.328,0,0,1-.915-.148,13.353,13.353,0,0,1-.6-1.428Z" transform="translate(19.459 -16.236)"/>
          <path id="Path_5801" data-name="Path 5801" d="M83.116,62.513c.558-1.894,2.434-1.788,3.5-2.8a2.3,2.3,0,0,1,1.513,2.472C86.207,60.269,85.023,63.385,83.116,62.513Z" transform="translate(43.939 -0.53)"/>
          <path id="Path_5802" data-name="Path 5802" d="M93.574,54.839l.61-.374a2.235,2.235,0,0,1,.3.743,1.228,1.228,0,0,1-.5.383Z" transform="translate(49.827 -3.488)"/>
          <path id="Path_5803" data-name="Path 5803" d="M55.14,46.43a11.361,11.361,0,0,1-2.26-1.707,3.4,3.4,0,0,1-.756-2.246,5.534,5.534,0,0,0-1.29-3.881,6.679,6.679,0,0,1-1.318-3.9c-.018-1.193-.447-2.381-.509-3.638A28.9,28.9,0,0,1,52.6,38.6c1.045,2.557,1.974,5.161,2.954,7.745Z" transform="translate(24.731 -16.671)"/>
        </g>
      </g>
      <g id="noun-drill-1185977" transform="translate(161.435 321.844) rotate(7)">
        <path id="Path_5406" data-name="Path 5406" d="M47.84,28.858c-.658-4.977-3.7-14.516-4.309-16.4a3.977,3.977,0,0,0,.317-2.329,2.027,2.027,0,0,0-1-1.313c-1.478-.856-.866-3.464-.864-3.474a4.965,4.965,0,0,0-.327-3.43A3.424,3.424,0,0,0,39.46.3,9.359,9.359,0,0,0,33.3.808L11.975,12.585a2.807,2.807,0,0,0-.863.734l-.035.044a2.827,2.827,0,0,0-.719,2.534.488.488,0,0,0,.055.126L8.532,17.048l-.078.043h0a1.281,1.281,0,0,0-.63.949L4.663,20.283a.245.245,0,0,0-.08.1.845.845,0,0,0-.253.477l-.319,2.016a.212.212,0,0,0,0,.022,3.017,3.017,0,0,0,.123,1.477L.672,26.465l-.012.007h0l-.328.2A.244.244,0,0,0,.3,26.7c-.006,0-.013,0-.019.006A.622.622,0,0,0,0,27.271a1.361,1.361,0,0,0,.192.654h0a1.063,1.063,0,0,0,.836.6.523.523,0,0,0,.265-.07l0,0h0L5.152,26.13a2.606,2.606,0,0,0,1.6.91l1.521.437a.638.638,0,0,0,.177.025.619.619,0,0,0,.329-.1l.011,0,3.351-1.568a.944.944,0,0,0,.49.131,1.7,1.7,0,0,0,.808-.239l.337-.195a.473.473,0,0,0,.063.065,5.41,5.41,0,0,0,3.748,1.15,11.543,11.543,0,0,0,4.4,1.028,4,4,0,0,0,1.494-.222.465.465,0,0,0,.062-.033c.077-.048,4.751-2.918,8.918-5.391L33,25.049a.507.507,0,0,0,.126.25,3.065,3.065,0,0,0,1.887,1.036,1.254,1.254,0,0,0,.172-.011h0l.618,3.564-1.6,3.127a.514.514,0,0,0-.054.189c-.284,3.436-.01,3.491.393,3.57.045.014.188.087.315.152a13.219,13.219,0,0,0,1.991.845,1.558,1.558,0,0,0,.484.065,15.286,15.286,0,0,0,5.493-1.945c1.662-.886,4.528-2.65,5.045-4.513A11.727,11.727,0,0,0,47.84,28.858ZM42.881,13.738c1.266,4,3.424,11.324,3.965,15.19-.77.927-1.74,1.708-2.008,1.625-.025-.008-.155-.162-.189-.713-.183-2.982-2.891-12.677-3.211-13.816A20.4,20.4,0,0,0,42.881,13.738Zm-.534-4.052a1.04,1.04,0,0,1,.52.678,2.215,2.215,0,0,1-.045,1.016A5.023,5.023,0,0,0,40.9,9.029a4.531,4.531,0,0,1-1.141-1.107.592.592,0,0,1-.1-.559,2.2,2.2,0,0,1,1.2-.9A3.471,3.471,0,0,0,42.348,9.686ZM38.267,1.094l-1.228.668c-.5-.286-.965-.507-1.265-.642A8.453,8.453,0,0,1,38.267,1.094Zm-3.036.342c.013.005.576.236,1.28.613l-.311.169A15.3,15.3,0,0,0,34.57,1.4c.153-.048.323-.1.514-.142A.248.248,0,0,0,35.231,1.436ZM33.769,1.7c.005,0,.131-.063.346-.145a.248.248,0,0,0,.152.265,15.041,15.041,0,0,1,1.408.682l-.389.211a15.067,15.067,0,0,0-1.6-.784A.252.252,0,1,0,33.5,2.4c.013.005.566.232,1.261.6l-.386.21a14.806,14.806,0,0,0-1.458-.7.252.252,0,1,0-.188.469c.012,0,.489.2,1.113.525l-19.311,10.5a4.5,4.5,0,0,0-1.8-.682ZM11.1,16.225a.507.507,0,0,0,.056-.03l.953-.52c1.19.033,2.543,1.164,3.631,3.05a6.471,6.471,0,0,1,.914,4.558l-2.328,1.343a3.614,3.614,0,0,0,.207-1.283,7.094,7.094,0,0,0-1.019-3.419A5.927,5.927,0,0,0,9.9,16.876Zm1.977,3.952a6.583,6.583,0,0,1,.951,3.168,2.1,2.1,0,0,1-.84,1.939l0,0,0,0a1.316,1.316,0,0,1-.439.159,2.548,2.548,0,0,0,.659-1.888,6.349,6.349,0,0,0-.912-3.062,6.348,6.348,0,0,0-2.2-2.321,2.623,2.623,0,0,0-1.854-.4.9.9,0,0,1,.263-.242h0l.064-.035C9.925,16.9,11.879,18.11,13.073,20.177ZM12.056,25.31,9.391,26.556a4.913,4.913,0,0,0-.675-3.87A4.89,4.89,0,0,0,5.7,20.164L8.191,18.4a1.847,1.847,0,0,1,1.844.215,5.845,5.845,0,0,1,2.012,2.137,5.849,5.849,0,0,1,.844,2.811,1.849,1.849,0,0,1-.717,1.695l-.118.055ZM1.117,26.79l.767-.448a1.187,1.187,0,0,1-.2,1.183l-.142.086a1.506,1.506,0,0,0-.156-.375,1.531,1.531,0,0,0-.153-.218Zm4.754-2.774A1.179,1.179,0,0,1,5.678,25.1l-.588.356a1.674,1.674,0,0,0-.106-.924ZM4.346,25.908l-.581.352a1.674,1.674,0,0,0-.111-.951l.888-.518A1.178,1.178,0,0,1,4.346,25.908Zm-1.333.808-.573.348a1.676,1.676,0,0,0-.117-.978l.89-.519A1.183,1.183,0,0,1,3.013,26.717Zm3.765-1.568a.383.383,0,0,1-.154.29.378.378,0,0,1-.311-.009ZM5.315,23.666a.359.359,0,0,1,.144-.247.353.353,0,0,1,.274,0ZM.629,27.672a.862.862,0,0,1-.124-.4c0-.089.01-.107.074-.123a.557.557,0,0,1,.228.161l.254.52c.013.109,0,.183-.02.192C1,28.039.8,27.964.629,27.672ZM5.6,25.862l.215-.129a1.232,1.232,0,0,0,.683.244.759.759,0,0,0,.383-.1.936.936,0,0,0,.416-.866,2.487,2.487,0,0,0-1.129-1.955.937.937,0,0,0-.959-.073.989.989,0,0,0-.4.994l-.221.133c-.218-.791-.11-1.475.291-1.706a1.043,1.043,0,0,1,1.036.132,3.493,3.493,0,0,1,1.2,1.278,3.5,3.5,0,0,1,.506,1.68,1.045,1.045,0,0,1-.4.963.691.691,0,0,1-.377.083l-.529-.152A2.69,2.69,0,0,1,5.6,25.862Zm2.025.9a1.6,1.6,0,0,0,.5-1.274,4,4,0,0,0-.574-1.93A4,4,0,0,0,6.161,22.1a1.532,1.532,0,0,0-1.491-.152l.159-1a.344.344,0,0,1,.277-.285c.971-.176,2.307.782,3.173,2.282.933,1.616,1.04,3.387.243,4.033a.124.124,0,0,1-.111.02Zm7.116-1.795,2.22-1.281a.251.251,0,0,0,.117-.152.239.239,0,0,0,.057-.086,6.95,6.95,0,0,0-.958-4.978c-.574-.995-2.125-3.308-4.121-3.308l-.012,0a.488.488,0,0,0-.1.025l-.011,0-.608.331a1.88,1.88,0,0,1,.549-1.541l.036-.046c.031-.039.07-.071.1-.108A3.362,3.362,0,0,1,14.4,14.5l.02.013a9.826,9.826,0,0,1,3.153,3.83c1.545,3.144,1.59,6.335.17,7.388a.533.533,0,0,0-.231,0A3.9,3.9,0,0,1,14.737,24.97Zm8.314,1.658c-.215.072-1.757.491-4.774-.7,1.4-1.358,1.338-4.571-.253-7.811A10.511,10.511,0,0,0,15,14.325L34.365,3.791a6,6,0,0,1,2.3,2.007.252.252,0,1,0,.449-.231A6.037,6.037,0,0,0,34.883,3.51l.394-.214A5.752,5.752,0,0,1,37.438,5.22a.252.252,0,1,0,.449-.231,5.819,5.819,0,0,0-2.1-1.974l.4-.215a5.513,5.513,0,0,1,2.022,1.842.252.252,0,1,0,.449-.231A5.608,5.608,0,0,0,36.7,2.523l.332-.181a5.723,5.723,0,0,1,2.144,1.914.252.252,0,1,0,.449-.231,5.8,5.8,0,0,0-2.078-1.963l1.5-.818c.051.012.1.021.152.035A2.455,2.455,0,0,1,40.782,2.4a4,4,0,0,1,.231,2.677c-.006.023-.032.135-.061.3a.487.487,0,0,0-.086.007c-.177.052-1.74.535-2.152,1.609A1.589,1.589,0,0,0,38.9,8.454a5.355,5.355,0,0,0,1.381,1.374,3.66,3.66,0,0,1,1.81,3.241c-.6,1.159-2.308,3.97-3.936,4.679C35.977,18.7,24,26.045,23.051,26.627Zm10.918-1.914-.587-3.139c1.093-.645,2.123-1.244,2.988-1.734a8.542,8.542,0,0,1,.848,4.391,4.022,4.022,0,0,1-2.161,1.093C34.768,25.362,34.276,25.01,33.968,24.713ZM36.786,30.2a.5.5,0,0,0,.048-.317l-.664-3.833c.072-.027.144-.055.218-.085.252,1.341.864,4.644.9,5.292a3.179,3.179,0,0,1-1.155,2.03,1.623,1.623,0,0,0-.514,1.083l-.451-.279a.246.246,0,0,0-.065-.02c.014-.23.03-.461.048-.685Zm-1.5,5.811V34.758l.988.613v1.106c-.413-.173-.722-.331-.956-.451ZM42.353,35c-2.53,1.348-4.728,1.965-5.183,1.812-.138-.046-.266-.091-.389-.136,0-1.532-.045-1.613-.119-1.659l-.569-.353a.243.243,0,0,0,.014-.069,1.317,1.317,0,0,1,.336-.909,3.657,3.657,0,0,0,1.35-2.457c-.04-.708-.695-4.225-.931-5.48a2.418,2.418,0,0,0,1.332-1.259,9.454,9.454,0,0,0-.946-5.139c.579-.318,1.034-.554,1.312-.675a6.434,6.434,0,0,0,2.1-1.679c.7,2.532,2.827,10.4,2.982,12.907.056.9.357,1.446.9,1.615a1.043,1.043,0,0,0,.31.046A3.6,3.6,0,0,0,46.969,30.3a2.984,2.984,0,0,1-.069.8C46.605,32.169,44.863,33.66,42.353,35ZM24.441,20a.252.252,0,0,1,.075-.349l1.661-1.07a.252.252,0,0,1,.273.425l-1.661,1.07A.252.252,0,0,1,24.441,20Zm2.1.217a.252.252,0,0,1-.106.341l-1.661.877a.25.25,0,0,1-.118.029.252.252,0,0,1-.118-.476C26.319,20.045,26.473,20.091,26.538,20.215Zm0,1.349a.253.253,0,0,1-.106.341l-1.661.877a.247.247,0,0,1-.118.03.253.253,0,0,1-.118-.476l1.661-.877A.253.253,0,0,1,26.538,21.564Zm0,1.349a.253.253,0,0,1-.106.341l-1.661.877a.253.253,0,1,1-.236-.447C26.319,22.743,26.473,22.789,26.538,22.913Z" transform="translate(0 0)"/>
      </g>
      <g id="noun-laptop-2824421" transform="translate(271.807 312.064)">
        <path id="Path_5839" data-name="Path 5839" d="M10.377,12.775c1.034-.041,2.067-.127,3.1-.113,3.5.045,6.994.134,10.491.189,1.213.019,2.424-.035,3.636-.012,1.44.027,2.882.129,4.322.148q4.81.063,9.618.071c1.843,0,3.683-.047,5.526-.057a4.109,4.109,0,0,1,1.035.117A1.362,1.362,0,0,1,49.2,14.569c.042,2.162.108,4.324.153,6.487.067,3.208.111,6.417.191,9.625.078,3.151.184,6.3.29,9.453a12.445,12.445,0,0,0,.182,2.321,6.789,6.789,0,0,0,.813,1.81c.947,1.643,1.867,3.308,2.929,4.879A19.984,19.984,0,0,1,55.4,52.032c.376.822.186,1.331-.615,1.635a7.844,7.844,0,0,1-2.863.431c-3.255-.021-6.513-.168-9.762,0-.977.051-1.963-.014-2.945-.014q-3.932,0-7.864.013l-7.448.009c-1.413,0-2.827-.006-4.238.034-2.825.081-5.647.211-8.472.281-1.438.036-2.881-.006-4.322-.029-.835-.013-1.671-.031-2.5-.1a2.05,2.05,0,0,1-.875-.346c-.483-.311-.584-.582-.346-1.1.522-1.135,1.07-2.258,1.652-3.362.624-1.181,1.334-2.316,1.944-3.5.517-1.008.966-2.054,1.4-3.1a3.31,3.31,0,0,0,.2-1.839A19.954,19.954,0,0,1,8.2,38.2c-.032-2.455-.006-4.909-.073-7.365-.089-3.262-.245-6.525-.37-9.788-.071-1.867-.144-3.734-.2-5.6A14.009,14.009,0,0,1,7.615,13.9a1.006,1.006,0,0,1,.818-.882c.624-.172,1.277-.251,1.917-.369ZM54.668,52.623c-.311-.63-.536-1.172-.831-1.674-1.408-2.391-2.852-4.761-4.24-7.163a1.067,1.067,0,0,0-1.022-.646c-1.181-.009-2.363-.058-3.545-.071Q38.877,43,32.723,42.947q-7.46-.062-14.921-.109c-1.731-.013-3.463-.051-5.193-.053-1.152,0-2.3.04-3.391.061-.95,1.861-1.851,3.665-2.791,5.448-.539,1.024-1.168,2-1.7,3.024A4.215,4.215,0,0,0,4,53.36a6.124,6.124,0,0,0,1.033.173c1.036,0,2.069-.074,3.1-.079q5.889-.031,11.778-.037c2.657,0,5.314.007,7.97,0,1.992,0,3.982-.032,5.974-.039,2.367-.008,4.734.007,7.1-.01,1.7-.012,3.407-.062,5.11-.088.519-.008,1.041.023,1.559.007,1.411-.046,2.821-.181,4.231-.134a21.321,21.321,0,0,0,2.215-.225C54.253,52.918,54.413,52.761,54.668,52.623ZM49.242,41.961a5.88,5.88,0,0,1-.119-.8c.011-1.467.072-2.932.048-4.4-.04-2.369-.13-4.739-.205-7.109-.1-3.263-.2-6.526-.322-9.789-.063-1.7-.176-3.4-.249-5.1-.02-.454-.226-.619-.659-.6a9.419,9.419,0,0,1-1.039-.017c-1.382-.092-2.764-.237-4.145-.279-1.327-.04-2.652.052-3.979.036-2.4-.03-4.794-.1-7.191-.149-.734-.014-1.467.006-2.283.011.312.395.548.7.193,1.058a.976.976,0,0,1-1.161.291c-.483-.235-.477-.6-.335-1l.71-.283a1.409,1.409,0,0,0-.7-.142c-1.822-.02-3.644-.033-5.467-.062-1.5-.024-3.007-.039-4.509-.107-1.522-.069-3.027.133-4.555.033a31.528,31.528,0,0,0-3.615.1,1.543,1.543,0,0,0-.8.25.9.9,0,0,0-.324.625c-.034.94-.021,1.883-.009,2.826.023,1.876.042,3.753.09,5.629.059,2.305.157,4.611.22,6.917.1,3.525.173,7.05.269,10.574.014.512.086,1.023.133,1.552.826.018,1.564.044,2.3.048,1.724.009,3.448,0,5.173.013q6.937.053,13.875.119c2.284.021,4.571.086,6.854.072,3.517-.021,7.033-.087,10.549-.148A11.649,11.649,0,0,0,49.242,41.961Z" transform="translate(-3.018 -12.654)"/>
        <path id="Path_5840" data-name="Path 5840" d="M52.153,74.438c-1.524-.033-3.112-.128-4.693-.092-4.44.1-8.887-.128-13.328-.091-2.973.025-5.949-.016-8.922,0q-5.4.021-10.8.083c-1.034.011-2.066.067-3.1.108-.743.029-1.055-.366-.753-1.017.175-.379.445-.711.65-1.077.319-.567.62-1.145.929-1.719.242-.449.457-.915.737-1.338a.88.88,0,0,1,.573-.4q2.37-.078,4.746-.072c1.992,0,3.985.056,5.976.06q8.448.018,16.9.011c2.191,0,4.383-.008,6.573-.044,1.293-.021,2.582-.109,3.873-.156.306-.011.589.067.649.443a12.36,12.36,0,0,0,1.8,4.017,5.75,5.75,0,0,1,.421.768c.177.477,0,.694-.519.659C53.311,74.539,52.763,74.488,52.153,74.438ZM38.176,72.476l-12.01.113a4.215,4.215,0,0,0-.062.523,5.317,5.317,0,0,0,.067.541L38.3,73.628ZM15.449,73.661l2.731.06L18.038,72.6l-2.889-.063Zm9.791-.989-2.829-.062a6.881,6.881,0,0,0-.085.715.408.408,0,0,0,.434.448c.851,0,1.7-.014,2.626-.025Zm14.16.907,2.758.06-.069-1.074L39.242,72.5Zm-20.535.1,2.721.06-.231-1.137L18.9,72.554l-.035,1.131Zm24.148-1.161c-.081.863-.024,1.1.325,1.117.823.037,1.647.006,2.566,0l-.22-1.061Zm3.646,1.006,2.926.064-.12-.944-2.818-.062Zm-32.405.193-.015-1.118c-.553-.012-1.012-.021-1.471-.033a1.09,1.09,0,0,0-1.217.961,22.9,22.9,0,0,0,2.7.189ZM31.59,71.959l-.086-.69L28.252,71.2c-.133.459-.074.762.427.767C29.626,71.975,30.572,71.963,31.59,71.959Zm2.352-1.316c.106-1.057.033-1.148-.847-1.133-.4.007-.8.039-1.189.059-.116.953-.073,1.011.774,1.045C33.106,70.631,33.531,70.635,33.942,70.644Zm16.541,3,2.484-.126c.016-.453-.058-.832-.468-.879-.667-.078-1.343-.046-2.03-.062ZM20.1,71.913c.054-.459.006-.745-.447-.737-.807.013-1.614.032-2.418.081-.12.007-.224.185-.335.284.115.1.23.291.347.3.945.045,1.89.055,2.854.076Zm-7.766.03c1.286-.04,2.446-.049,3.6-.129.287-.02.241-.315.092-.526-1.935-.167-3.088,0-3.69.656Zm15.032-.009c.107-.531-.019-.776-.5-.775-.577,0-1.155-.037-1.731-.031-.6.007-.612.032-.454.747Zm-6.4-.737c-.193.505-.027.721.44.732.634.015,1.267.037,1.9.034.52,0,.529-.036.371-.706Zm17.977.729c0-.4-.075-.672-.453-.687-.689-.028-1.378-.034-2.067-.04-.445,0-.534.232-.362.664Zm7.5-.109c.149-.491.044-.748-.452-.734-.633.017-1.265.042-1.9.049-.31,0-.612.02-.6.421s.337.349.584.344C44.855,71.882,45.625,71.847,46.447,71.818ZM35.164,71.9c-.029-.69-.03-.73-.512-.733-.742,0-1.482.054-2.248.086l-.031.586Zm4.508-1.324,1.938.043c-.011-.924-.114-1.041-.909-1.04-.336,0-.671.037-1.019.058a3,3,0,0,0-.05.385c0,.17.024.341.041.555Zm-22.718-.867a1.2,1.2,0,0,0-.262-.106c-.315-.008-.629-.007-.943-.01-.864-.01-.978.181-.568,1.031l1.785-.07Zm14.225.858c-.09-1.126-.52-1.324-1.83-.886l.151.85Zm11.552,1.338-.067-.616c-.881-.019-1.679-.048-2.475-.05-.438,0-.4.269-.3.6Zm-6.179-2.27L34.8,69.6l.012.9,2.011.044Zm13.06,1.5c-.671-.015-1.244-.03-1.817-.039-.452-.007-.634.193-.461.673l2.287.05ZM19.52,70.512c-.079-1.035-.2-1.095-1.8-.909l.013.972Zm27.642-.073,2.159.047c-.131-.782-.14-.809-.748-.837-.422-.02-.844.016-1.263.028Zm-4.817.185,1.9-.1-.279-.862L42.39,69.63ZM26.964,69.519l.012.96,1.7.037-.1-.962Zm-4.507.977,1.531.034-.154-.954-1.389-.03Zm-.826-.915c-1.249-.222-1.448-.086-1.354.858l1.434.031-.08-.889Zm23.315.957c.344.008.651.025.956.019.672-.014.713-.094.455-.873l-1.537-.034Zm-20.231.068,1.586-.068-.32-.961-1.28-.028Zm12.818-.049,1.6.035-.512-1.024-1.1.074ZM14.35,69.651c-.833-.039-.833-.039-1.069.831l1.08.024Zm37.919,2.034a1.645,1.645,0,0,0-1.476-.5c-.24.009-.409.264-.313.6.337.007.649.027.959.017C51.66,71.789,51.878,71.74,52.269,71.685Zm-.791-1.32c-.55-.686-.831-.836-1.186-.66-.291.144-.263.383-.079.7Z" transform="translate(-6.289 -37.343)"/>
        <path id="Path_5841" data-name="Path 5841" d="M35.177,82.464c.206-.684.335-1.236.54-1.756.156-.4.561-.434.946-.445,1.124-.033,2.249-.054,3.372-.1,2.129-.088,4.256-.219,6.387-.274,1.18-.031,2.367.055,3.552.09a.789.789,0,0,1,.257.041c.592.228.807.825,1.183,1.258a3,3,0,0,1,.326.94c-1.228.031-2.313.061-3.4.085-.46.01-.921,0-1.381.014-2.589.055-5.179.1-7.767.172-.831.021-1.658.113-2.489.125A14.231,14.231,0,0,1,35.177,82.464ZM36.4,81.273l.046.25c4.583.187,9.148-.076,13.81-.063-.473-.571-.473-.579-.8-.592-.635-.025-1.271-.062-1.9-.054-1.092.013-2.185.139-3.273.072-2.406-.147-4.777.156-7.166.207A3.157,3.157,0,0,0,36.4,81.273Z" transform="translate(-17.188 -42.275)"/>
        <path id="Path_5842" data-name="Path 5842" d="M14.712,17.132c.693.015,1.2.023,1.714.039.664.021,1.328.057,1.992.071,1.816.038,3.632.082,5.448.1,1.444.013,2.888-.035,4.332-.014,5.725.085,11.45.2,17.175.278,1.7.024,3.4-.022,5.1-.034.115,0,.231.022.346.031.752.057.828.126.907.881.024.23.02.463.029.694.131,3.524.279,7.048.389,10.572.1,3.056.136,6.113.227,9.169a20.165,20.165,0,0,0,.239,2.583c.122.759.082.873-.682.855-1.879-.044-3.758-.115-5.636-.133-4.105-.038-8.21-.05-12.314-.073l-9.615-.055c-2.513-.013-5.027-.027-7.54-.028a6.834,6.834,0,0,0-.843.129c-.471.06-.72-.089-.819-.566a7.022,7.022,0,0,1-.138-1.289c-.022-1.145,0-2.29-.022-3.436-.057-2.713-.13-5.427-.2-8.141-.046-1.819-.088-3.637-.146-5.456s-.124-3.626-.212-5.438A.792.792,0,0,1,14.712,17.132ZM15.98,41.275a4.478,4.478,0,0,0,.553.078q5.6.05,11.193.093c5.583.048,11.167.106,16.75.143,2.139.014,4.277-.013,6.415-.03.664-.006.771-.1.763-.741-.035-2.717-.07-5.434-.135-8.151-.075-3.178-.174-6.357-.276-9.536q-.063-1.95-.189-3.9c-.041-.639-.169-.734-.817-.752-1.124-.031-2.248-.05-3.371-.081-2.194-.06-4.388-.142-6.581-.182-4.109-.077-8.218-.13-12.327-.194l-11.97-.185a1.787,1.787,0,0,0-.479.126C15.224,19.118,15.758,39.818,15.98,41.275Z" transform="translate(-8.049 -14.627)"/>
      </g>
      <g id="noun-cat-2332756" transform="translate(326.993 324.745)">
        <g id="Group_1799" data-name="Group 1799" transform="translate(0 0)">
          <path id="Path_5210" data-name="Path 5210" d="M48.984,15.8a13.98,13.98,0,0,0,.252,5.442c.524,2.355,1.223,4.673,1.571,7.062a4.076,4.076,0,0,1-.073,2.422,3.489,3.489,0,0,1-.3.5,17.472,17.472,0,0,1-2.8,2.991c-.869.78-1.667,1.638-2.524,2.432-1.169,1.084-2.233,2.282-3.487,3.273a10.363,10.363,0,0,0-2.1,2.5c-.361.54-.749,1.056-1.145,1.568a.409.409,0,0,1-.634.117c-.525-.335-1.059-.657-1.581-1-.57-.371-.7-.365-1.07.21a9.229,9.229,0,0,0-1.407,7.487c.374,1.5.8,2.982,1.246,4.459a12.209,12.209,0,0,0,.845,1.744A14.022,14.022,0,0,0,37.1,59.5a2.43,2.43,0,0,1,.326,1.208,13.269,13.269,0,0,0,1.159,3.76c.484,1.034.872,2.107,1.363,3.137.171.359.324.728.513,1.08.836,1.555,1.681,3.106,2.5,4.67a16.094,16.094,0,0,1,1.156,2.749c.188.614.261,1.262.451,1.883a.938.938,0,0,1-.2.835c-.031.038-.087.056-.115.094-.815,1.115-.829,1.469-.132,2.686a.965.965,0,0,0,.639.474,2.014,2.014,0,0,0,1.325-.047A3.317,3.317,0,0,0,48.4,79.108a1.927,1.927,0,0,0-.022-.595c-.427-1.5-.326-3.071-.7-4.573a2.96,2.96,0,0,1-.04-.969c.114-1.363.271-2.721.509-4.069.03-.171.106-.333.15-.5a.735.735,0,0,1,.625-.655.984.984,0,0,1,.754.729,11.267,11.267,0,0,1,.357,2.774c.027,1.293-.1,2.58-.057,3.875.027.841-.135,1.686-.184,2.53a5.15,5.15,0,0,0,.462,2.888,2.626,2.626,0,0,0,1.664,1.393c.289.079.58.15.867.235a1.543,1.543,0,0,0,1.4-.524.425.425,0,0,0,.117-.417,3.949,3.949,0,0,0-.254-1.237,5.106,5.106,0,0,1,.032-4.613c.718-1.694,1.506-3.36,2.336-5.005.525-1.04.954-2.129,1.475-3.171A46.069,46.069,0,0,0,60,62.752c.31-.834.631-1.672.956-2.495a38.806,38.806,0,0,0,1.318-4.336,16.31,16.31,0,0,0,.554-4.138,19.665,19.665,0,0,0-.71-5.911,30.525,30.525,0,0,0-1.677-4.457,11.9,11.9,0,0,1-.5-1.405A31.725,31.725,0,0,0,57.083,33.7a1.228,1.228,0,0,1-.192-.926,17.768,17.768,0,0,1,.594-2.316,15.976,15.976,0,0,0,1.079-5.387,10.545,10.545,0,0,0-.583-3c-.33-1.121-.8-2.207-1.126-3.323a14.247,14.247,0,0,1-.621-3.3c-.02-.4-.082-.793-.139-1.187-.2-1.357-.3-2.725-.388-4.092a6.477,6.477,0,0,1-.171-1.4.257.257,0,0,0-.444-.228c-.738.92-1.917,1.136-2.809,1.807a5.869,5.869,0,0,0-1.7,1.74,13.928,13.928,0,0,0-1.436,2.861C49.049,15.272,49.065,15.6,48.984,15.8ZM39.3,60.4a3.285,3.285,0,0,1-.957-.692A9.68,9.68,0,0,1,36.639,56.5a.214.214,0,0,1,.109-.324l.6.47a.675.675,0,0,0-.62-.611.488.488,0,0,1-.46-.43,4.964,4.964,0,0,0-.481-1.275c-.414-1.146-.74-2.321-1.157-3.468A2.2,2.2,0,0,1,34.5,49.2a1.854,1.854,0,0,1,.3.17.842.842,0,0,0,1.237.195c.384-.18.763-.372,1.156-.531.715-.29,1.353-.734,2.093-.982a.511.511,0,0,0,.14-.932,3.851,3.851,0,0,1-.687-.785.8.8,0,0,0-.455-.364,4.268,4.268,0,0,1-1.628-1.025c-.805-.676-.95-.647-1.315.335a5.5,5.5,0,0,0-.562,2.669.923.923,0,0,1-.01.3.276.276,0,0,1-.258.234.22.22,0,0,1-.208-.251c-.005-.049.005-.1,0-.149-.079-1.273.642-2.316,1.016-3.456a.606.606,0,0,1,.924-.3,3.629,3.629,0,0,1,.7.419,6.46,6.46,0,0,0,1.439,1.006,2.812,2.812,0,0,1,1.345,1.4c.233.353.494.689.759,1.02a.222.222,0,0,0,.386,0,2.466,2.466,0,0,1-.518-1.27c.012-.133-.006-.258.137-.3a.306.306,0,0,1,.341.089,1.684,1.684,0,0,1,.142.262.2.2,0,0,0,.24.125.191.191,0,0,0,.1-.255c-.189-.408.048-.448.373-.587a29.149,29.149,0,0,1,2.877-.735,24.468,24.468,0,0,1,3.522-.636,8.427,8.427,0,0,1,3.49.034,2.294,2.294,0,0,0,.983.3,1.892,1.892,0,0,1,1,.181,1.048,1.048,0,0,0,1.247-.094,16.353,16.353,0,0,1,4.344-2.6.7.7,0,0,1,.831.125.233.233,0,0,1,.075.266.152.152,0,0,1-.184.09,1.163,1.163,0,0,0-1.043.436c-.707.62-1.461,1.186-2.194,1.777a.768.768,0,0,1-.51.284c-.488-.052-.5.358-.593.624a.534.534,0,0,0,.394.634,9.188,9.188,0,0,0,2.573.943,17.612,17.612,0,0,1,1.768.294.6.6,0,0,0,.788-.757,3.493,3.493,0,0,0-.135-.427,14.349,14.349,0,0,1-.633-3.137.316.316,0,0,1,.224.228A14.751,14.751,0,0,1,61.561,47.1a6.8,6.8,0,0,1,.2.714c.046.316-.392.341-.479.66a.954.954,0,0,1,.729,1.15,5.815,5.815,0,0,0,.033.818,1.169,1.169,0,0,1-.277,1.028c-.293.306-.309.783-.631,1.081-.057.053-.044.145.069.151.387.021.3.2.084.332a.62.62,0,0,0-.206.356,5.271,5.271,0,0,1-1.288,1.7,1.392,1.392,0,0,0-.62,1.139c.259.041.333-.436.627-.2a.4.4,0,0,1-.024.147c-.347.509-1.136.727-1.016,1.548a.222.222,0,0,1-.1.1,2.265,2.265,0,0,0-1.1,1.151.963.963,0,0,1-.477.336,1.146,1.146,0,0,0-.376.236,8.577,8.577,0,0,1-2.8,1.685.663.663,0,0,1-.581.055,8.869,8.869,0,0,0-2.217-.277.329.329,0,0,0-.432.232c.811.269,1.694.09,2.626.318a1.455,1.455,0,0,1-1.63.336,1.925,1.925,0,0,0-1.256-.255,4.467,4.467,0,0,0,.9.448c.178.072.449.058.467.3a.559.559,0,0,1-.387.422,16.945,16.945,0,0,1-2.087,1.169,1.874,1.874,0,0,1-1.243.083,7.96,7.96,0,0,1-1.975-.879,2.859,2.859,0,0,0-1.131-.366,11.979,11.979,0,0,1-4.78-1.606,1.473,1.473,0,0,1-.906-.818ZM47.56,36.873c-.116-.038-.234-.071-.347-.116-.149-.06-.188-.247-.086-.287a2.633,2.633,0,0,0,.853-.987c.922-1,1.823-2.006,2.681-3.063a4.176,4.176,0,0,0,1.16-3.6,8.607,8.607,0,0,0-.4-2.114.661.661,0,0,1-.019-.5c.135-.478-.266-.978.036-1.46a1.135,1.135,0,0,1-.155-1.1.426.426,0,0,0-.2-.508,1.077,1.077,0,0,1-.706-1.04c-.1-.587-.243-1.17-.315-1.761-.052-.424-.247-.8-.29-1.231a6.477,6.477,0,0,1,.2-2.688.646.646,0,0,0-.024-.513.552.552,0,0,1-.021-.434,8.409,8.409,0,0,1,2.21-3.916,8.748,8.748,0,0,1,1.6-1.234,3.191,3.191,0,0,1,1.195-.541c.05.523.094.993.139,1.463.109,1.136.322,2.261.342,3.408.005.3-.068.462-.366.354a1.738,1.738,0,0,0-1.531.262c.3.15.229.713.814.474.279-.114.485.383.511.731a.172.172,0,0,0,.175-.134.522.522,0,0,1,.5-.369.558.558,0,0,1,.244.582,16.021,16.021,0,0,0,.549,2.718,16.427,16.427,0,0,1,.741,2.726c.154.91.8,1.721.6,2.72a1.606,1.606,0,0,1,.079,1.361,3.851,3.851,0,0,1-.543,2.058,6.771,6.771,0,0,1-.356,1.968.973.973,0,0,1-1.1,1.025.762.762,0,0,1,.148.988.59.59,0,0,0-.139.552c.181.449.053,1.024.584,1.336a.874.874,0,0,1,.263.445c.274.734.906,1.322.887,2.177a.282.282,0,0,0,.088.2,5.538,5.538,0,0,1,.7,1.194c.562.718.359,1.728.912,2.455-.342.448.189.555.328.807.207.374.195.6-.206.676a5.668,5.668,0,0,0-1.731.842A20.48,20.48,0,0,0,55.141,44.1a1.873,1.873,0,0,1-1.765.27,9.061,9.061,0,0,0-1.619-.294,13.216,13.216,0,0,0-2.607-.191,43.086,43.086,0,0,0-7.972,1.595,1.836,1.836,0,0,1-1.451-.047c-.62-.325-.671-.488-.3-1.082a13.277,13.277,0,0,1,1.118-1.182,36.334,36.334,0,0,1,3.868-4.146c.453-.415.829-1.044,1.615-.928.081.012.193-.157.1-.208-.314-.164-.15-.255,0-.425A1.454,1.454,0,0,1,47.56,36.873Zm-9.1,24.453a.5.5,0,0,1,.51.182,6.649,6.649,0,0,0,2.17,1.141,10.656,10.656,0,0,0,3.8.985,1.216,1.216,0,0,1,.354.108,6.6,6.6,0,0,1,1.567.7,3.206,3.206,0,0,0,3.079.185,13.565,13.565,0,0,0,2.419-1.472c.6-.4,1.192-.809,1.829-1.156a19.778,19.778,0,0,0,2.219-1.072,16.83,16.83,0,0,0,3.025-2.649,7.36,7.36,0,0,0,1.341-1.866.758.758,0,0,1,.681-.537.951.951,0,0,1-.349.879.6.6,0,0,0-.277.235,11.566,11.566,0,0,1-.992,1.736c-.061.119-.192.252,0,.379a1.034,1.034,0,0,0,.4-.425.527.527,0,0,1,.6-.352c-.28.5-.128,1.181-.815,1.455a.3.3,0,0,0-.18.221,2.561,2.561,0,0,1-.7.954c-.318.375-.367.427,0,.671a.407.407,0,0,1,.178.607,2.833,2.833,0,0,1-.156.42,2.573,2.573,0,0,0-.64,1.439.656.656,0,0,1-.65.5.512.512,0,0,1,.068.766c-.583.934-.961,1.967-1.452,2.946-.141.281-.309.547-.679.256a.132.132,0,0,0-.2.006,2.666,2.666,0,0,0-.847,1.55c.355.029.456-.452.789-.328a.378.378,0,0,1-.041.389,61.3,61.3,0,0,0-2.682,6.554,2.468,2.468,0,0,0-.12,1.6c.138.408.121.837.227,1.241a.69.69,0,0,1-.32.749c-.25.235-.4.012-.586-.081a.25.25,0,0,0-.388.064c.045.269.374.385.421.676a.476.476,0,0,1-.533-.19,3.434,3.434,0,0,1-.971-3.016c.059-.943.124-1.882.149-2.828.044-1.67.114-3.339.084-5.009a4.1,4.1,0,0,0-.669-2.409c-.553-.755-1.466-1.232-2.213-.063a4.475,4.475,0,0,0-.614,1.951c-.047.4-.087.785-.172,1.177a7.792,7.792,0,0,0-.214,3.107c.237,1.226.307,2.466.474,3.7a8.136,8.136,0,0,1,.109,1.993c-.069.63-.69,1.47-1.144,1.395a1.109,1.109,0,0,0-.772.193.148.148,0,0,1-.064-.228.832.832,0,0,0,.072-.211.426.426,0,0,0-.629-.42c-.07.025-.131.075-.2.1a.191.191,0,0,1-.253-.09.221.221,0,0,1,.061-.2,4.1,4.1,0,0,1,.5-.444.991.991,0,0,0,.468-1.151,12.344,12.344,0,0,0-.328-1.752,22.515,22.515,0,0,0-2.235-5.1c-.108-.183-.4-.353-.19-.646.061-.084,0-.121-.055-.168a4.421,4.421,0,0,1-1.086-1.576c-.463-.935-.887-1.89-1.325-2.838a.241.241,0,0,1-.045-.274.673.673,0,0,1,.26-.1.533.533,0,0,0-.3-.139.859.859,0,0,1-.153-.157c-.239-.346-.058-.892-.535-1.13a.164.164,0,0,1,.019-.134c.183-.156.189-.254-.069-.32a.459.459,0,0,1-.261-.344q-.333-.818-.658-1.64A1.227,1.227,0,0,1,38.457,61.327Z" transform="translate(-33.419 -8.459)"/>
          <path id="Path_5211" data-name="Path 5211" d="M41.385,62.721c-.1.3-.2.5-.247.72a.588.588,0,0,0,.589.82,5.32,5.32,0,0,0,2.405-.442,1.529,1.529,0,0,0,.766-.789,21.639,21.639,0,0,0,.727-2.741.428.428,0,0,0-.553-.558,11.66,11.66,0,0,0-1.9.659C42.318,60.979,41.433,61.6,41.385,62.721Zm2.18.515a3.548,3.548,0,0,1-1.234.241.172.172,0,0,1-.214-.214,1.4,1.4,0,0,1,.6-.865.767.767,0,0,1,.561.512c.076.1.162.186.285.326Zm.691-1.41-.424-.723c.242-.2.518-.491.764-.26a.67.67,0,0,1-.12.813,1.541,1.541,0,0,1-.22.17Z" transform="translate(-23.051 -14.214)"/>
          <path id="Path_5212" data-name="Path 5212" d="M57.146,64.76a3.54,3.54,0,0,0,1.385-.105c.342-.132.35-.3.1-.6-.319-.383-.634-.77-.922-1.176a5.3,5.3,0,0,0-3.89-2.107,1.267,1.267,0,0,0-.3,0c-.708.076-.884.419-.485,1a10.381,10.381,0,0,0,1.071,1.413A7.013,7.013,0,0,0,57.146,64.76ZM56.065,63.5a3.321,3.321,0,0,0,.571-.786,2.633,2.633,0,0,1,.856,1.214,3.191,3.191,0,0,1-1.427-.428Zm-2.074-1.9a2.115,2.115,0,0,1,1.1.207.475.475,0,0,1,.071.706c-.153.249-.342.161-.5.026a1.993,1.993,0,0,1-.67-.939Z" transform="translate(-46.62 -14.333)"/>
          <path id="Path_5213" data-name="Path 5213" d="M50.393,67.2a2.259,2.259,0,0,0-1.6-.309.28.28,0,0,1-.313-.331,4.568,4.568,0,0,1,.047-.744,2.807,2.807,0,0,0-.711-2.282,1.241,1.241,0,0,0-.343-.281.377.377,0,0,0-.424.024.316.316,0,0,0-.053.409,4.079,4.079,0,0,0,.381.79,1.721,1.721,0,0,1,.286,1.346,3.5,3.5,0,0,0,.783,2.261,1.072,1.072,0,0,0,.982.445,1.878,1.878,0,0,0,1.7-1.23,3.909,3.909,0,0,0,.254-1.239,1.794,1.794,0,0,1,.669-1.5c.137-.119.281-.248.125-.436a.352.352,0,0,0-.48-.041,1.67,1.67,0,0,0-.968,1.163A10.607,10.607,0,0,0,50.393,67.2Z" transform="translate(-34.836 -14.607)"/>
          <path id="Path_5214" data-name="Path 5214" d="M55.385,67.7a9.9,9.9,0,0,0-1.7.5c-.244.144-.5.275-.866.479a1.845,1.845,0,0,0,1.525-.285c.443-.163.921-.156,1.35-.294a.393.393,0,0,0-.337-.38Z" transform="translate(-43.496 -15.113)"/>
          <path id="Path_5215" data-name="Path 5215" d="M55.826,67.66c.049-.131.277-.175.2-.358a.29.29,0,0,0-.326-.109,12.962,12.962,0,0,0-2.569.4.172.172,0,0,0-.173.194.211.211,0,0,0,.279.169c.218-.047.432-.114.649-.165a3.682,3.682,0,0,1,1.972-.15Z" transform="translate(-43.967 -15.054)"/>
          <path id="Path_5216" data-name="Path 5216" d="M47.081,66.885a4.213,4.213,0,0,0-2.138.012.185.185,0,0,0-.155.214.223.223,0,0,0,.2.19,1.037,1.037,0,0,0,.294,0c.6-.075,1.207-.155,1.811-.234Z" transform="translate(-27.764 -15.006)"/>
          <path id="Path_5217" data-name="Path 5217" d="M53.4,66.815a4.975,4.975,0,0,0,2.641.03A4.2,4.2,0,0,0,53.4,66.815Z" transform="translate(-44.36 -14.991)"/>
          <path id="Path_5218" data-name="Path 5218" d="M46.731,51.132A1.11,1.11,0,0,0,46.61,50.1.79.79,0,0,0,46.731,51.132Z" transform="translate(-28.978 -13.136)"/>
          <path id="Path_5219" data-name="Path 5219" d="M55.581,52.074a.891.891,0,0,0-.154-.953A.761.761,0,0,0,55.581,52.074Z" transform="translate(-45.686 -13.251)"/>
          <path id="Path_5220" data-name="Path 5220" d="M59.944,66.9c.06-.1.276-.071.247-.23a.366.366,0,0,0-.368-.3.127.127,0,0,0-.138.19,2.221,2.221,0,0,0,.275.346Z" transform="translate(-54.079 -14.963)"/>
          <path id="Path_5221" data-name="Path 5221" d="M35.19,56.008a.3.3,0,0,0,.349-.359.128.128,0,0,0-.094-.078.351.351,0,0,0-.254.437Z" transform="translate(-7.689 -13.75)"/>
          <path id="Path_5222" data-name="Path 5222" d="M49.187,50.18a.2.2,0,0,0-.13-.233.062.062,0,0,0-.079.082.516.516,0,0,0,.1.193C49.114,50.266,49.166,50.239,49.187,50.18Z" transform="translate(-33.585 -13.118)"/>
          <path id="Path_5223" data-name="Path 5223" d="M50.914,50.9a.124.124,0,0,0,.109-.148c-.014-.09-.022-.206-.142-.207a.207.207,0,0,0-.107.153.164.164,0,0,0,.14.2Z" transform="translate(-37.013 -13.186)"/>
          <path id="Path_5224" data-name="Path 5224" d="M46.612,19a1.465,1.465,0,0,1,.324.739.143.143,0,0,0,.245-.011.894.894,0,0,0-.174-1,.316.316,0,0,0-.395.277Z" transform="translate(-29.561 -9.611)"/>
          <path id="Path_5225" data-name="Path 5225" d="M44.926,22.226a.452.452,0,0,0,.147-.083,1.986,1.986,0,0,0-.251-.863.176.176,0,0,0-.135.023.266.266,0,0,0-.082.389,1.09,1.09,0,0,0,.321.535Z" transform="translate(-25.542 -9.899)"/>
          <path id="Path_5226" data-name="Path 5226" d="M40.693,25.575a.8.8,0,0,0-.22.669c.054.113.113.256.264.187a.438.438,0,0,0,.209-.443c.005-.207.035-.413-.271-.405Z" transform="translate(-17.79 -10.382)"/>
          <path id="Path_5227" data-name="Path 5227" d="M44.267,24.205a.73.73,0,0,0,.155-.853.189.189,0,0,0-.231-.133.165.165,0,0,0-.129.22C44.124,23.7,44.2,23.95,44.267,24.205Z" transform="translate(-24.521 -10.116)"/>
          <path id="Path_5228" data-name="Path 5228" d="M47.264,22.369a.432.432,0,0,0,.016-.633.259.259,0,0,0-.333-.07.181.181,0,0,0-.024.263A.809.809,0,0,0,47.264,22.369Z" transform="translate(-29.942 -9.939)"/>
          <path id="Path_5229" data-name="Path 5229" d="M44.475,19.926a.523.523,0,0,0,.276.516.308.308,0,0,0,.275-.3.421.421,0,0,0-.311-.448.2.2,0,0,0-.24.228Z" transform="translate(-25.423 -9.721)"/>
          <path id="Path_5230" data-name="Path 5230" d="M42.744,19.935a.8.8,0,0,0,.163.924.154.154,0,0,0,.192.049.132.132,0,0,0,.078-.18A1.919,1.919,0,0,0,42.744,19.935Z" transform="translate(-21.98 -9.748)"/>
          <path id="Path_5231" data-name="Path 5231" d="M41.36,22.013c.006-.147.082-.331-.117-.38a.227.227,0,0,0-.285.255c0,.172-.011.386.228.4C41.348,22.3,41.318,22.113,41.36,22.013Z" transform="translate(-18.653 -9.938)"/>
          <path id="Path_5232" data-name="Path 5232" d="M45.584,25.224a1.231,1.231,0,0,0,.317.912A.7.7,0,0,0,45.584,25.224Z" transform="translate(-27.344 -10.342)"/>
          <path id="Path_5233" data-name="Path 5233" d="M40.613,25.487c.16-.2.425-.384.173-.686a.243.243,0,0,0-.184-.088.246.246,0,0,0-.124.153.709.709,0,0,0,.156.61Z" transform="translate(-17.728 -10.285)"/>
          <path id="Path_5234" data-name="Path 5234" d="M48.454,39.836a.686.686,0,0,0,.849.1A.789.789,0,0,0,48.454,39.836Z" transform="translate(-33.235 -11.974)"/>
          <path id="Path_5235" data-name="Path 5235" d="M45.379,16.072a.294.294,0,0,0,.27-.245c.018-.141.07-.332-.137-.349-.148-.012-.152.16-.155.28C45.356,15.853,45.37,15.947,45.379,16.072Z" transform="translate(-26.852 -9.248)"/>
          <path id="Path_5236" data-name="Path 5236" d="M58.291,49.168c-.192-.012-.376-.037-.441.169a.134.134,0,0,0,.059.116C58.167,49.559,58.157,49.245,58.291,49.168Z" transform="translate(-50.563 -13.03)"/>
          <path id="Path_5237" data-name="Path 5237" d="M43.35,26.165a.21.21,0,0,0,.151.216c.128.04.162-.054.169-.156a.145.145,0,0,0-.16-.181A.162.162,0,0,0,43.35,26.165Z" transform="translate(-23.075 -10.434)"/>
          <path id="Path_5238" data-name="Path 5238" d="M42.118,25.684c.011.092-.011.218.137.2a.224.224,0,0,0,.14-.137.187.187,0,0,0-.115-.237C42.139,25.462,42.146,25.6,42.118,25.684Z" transform="translate(-20.712 -10.373)"/>
          <path id="Path_5239" data-name="Path 5239" d="M39.7,43.286a1.126,1.126,0,0,0,.166.149c.081.048.14.012.129-.083a.144.144,0,0,0-.164-.118.423.423,0,0,0-.132.053Z" transform="translate(-16.156 -12.365)"/>
          <path id="Path_5240" data-name="Path 5240" d="M44.3,30.238a.229.229,0,0,0,.082.089.1.1,0,0,0,.1-.141.121.121,0,0,0-.1-.058A.3.3,0,0,0,44.3,30.238Z" transform="translate(-24.735 -10.893)"/>
          <path id="Path_5241" data-name="Path 5241" d="M47.6,20.96a.238.238,0,0,0-.053-.115.123.123,0,0,0-.163.092.125.125,0,0,0,.054.11.117.117,0,0,0,.162-.087Z" transform="translate(-30.591 -9.85)"/>
          <path id="Path_5242" data-name="Path 5242" d="M44.1,80.665a1.9,1.9,0,0,0-.421.667C44.207,81.352,44.21,81.347,44.1,80.665Z" transform="translate(-23.851 -16.569)"/>
          <path id="Path_5243" data-name="Path 5243" d="M38.611,70.543l.9.065a1.588,1.588,0,0,0-.9-.065Z" transform="translate(-14.709 -15.428)"/>
          <path id="Path_5244" data-name="Path 5244" d="M41.078,73.9c-.215-.148-.369-.18-.509-.029a.136.136,0,0,0-.01.128C40.75,74.151,40.9,74.022,41.078,73.9Z" transform="translate(-17.991 -15.794)"/>
          <path id="Path_5245" data-name="Path 5245" d="M40.118,72.4c-.159.048-.246.242-.18.3.137.116.151-.088.2-.168A.26.26,0,0,0,40.118,72.4Z" transform="translate(-16.494 -15.641)"/>
        </g>
      </g>
      <g id="noun-ring-1013725" transform="translate(164.882 371.405)">
        <g id="Group_2094" data-name="Group 2094" transform="translate(0 0)">
          <g id="Group_2093" data-name="Group 2093">
            <path id="Path_6198" data-name="Path 6198" d="M27.679,13.042a40.169,40.169,0,0,0,2.645-4.96c-.585-1.595-2.839-2.545-2.645-3.472-1.012-.229-3.162-.1-4.96-.331-.533.6-.189,1.046-.827,1.488.037-.208.258-.338-.165-.331-.167.769-.954.92-.992,1.819-.281-.6-.507.069-.992.165.075,2.57,1.4,3.7,2.315,5.456-.521.3-.47.685-.992.661.144-.291.553-.512,0-.661C14.789,15.34,10.894,19.733,10.32,26.93v1.984c.607,1.748.526,4.2,1.984,5.456-.275.329.015.21,0,.661,2.542,3.328,5.444,6.587,10.416,7.109,7.97.837,16.241-4.438,17.029-12.9C40.511,21.053,35.49,15.123,27.679,13.042ZM12.469,29.41c.282-.035.428.282.5,0,.46-.074-.13.9.331.827C13.133,30.494,12.628,29.7,12.469,29.41Zm.661-3.8c-.49-.241.218-.645,0-1.158.444.406.094.749.5,1.323C13.182,26.067,13.307,25.044,13.131,25.607ZM26.853,7.091c-.247-.194-.195-.687-.662-.661.16-.581,1.163.656,1.323,1.157-.448-.1-1.312.21-1.488-.165C25.857,6.865,26.54,7.164,26.853,7.091Zm-.827,1.819a1.839,1.839,0,0,1,1.323.331c-.333,1.044-.77,1.985-1.158,2.976A14.089,14.089,0,0,1,26.026,8.909Zm-1.488.331c-.161,1.177.081,2.291,0,3.8-1.19-.24-.083-1.46-.165-1.819-.187-.811-.969-.929-1.157-1.819C23.735,9.408,24.138,8.859,24.538,9.24Zm-8.762,9.92c.134.031.165.166.331.165v.331c-.65-.209-.492.39-.5.827-.134-.115-.453-.258-.5,0C14.867,20.014,15.52,19.828,15.776,19.159Zm3.141,16.2v-.826c-.61-.068-1-1.172-1.653-.992-.034-1.192-1.315-3.432-1.984-4.629a.78.78,0,0,0,.5.165c-.862-7.681,4.208-11.863,11.408-11.408,5.282,1.464,9.2,5.419,8.266,11.408C34.7,33.922,30,38.3,24.869,37.842c-1.549-.138-2.294-.773-4.133-1.323-.2-.217-.065-.26,0-.5C20.07,36.154,19.678,35.565,18.917,35.361Zm-2.811.331h-.331c.261-.556-.686-.721-.661-.5-.5-.109.158-.354,0-.661a5.339,5.339,0,0,1,1.157.991C16.3,35.667,16.207,35.682,16.106,35.692ZM38.095,29.74c-1.081,5.788-6.322,11.3-13.061,10.912-2.045-.117-3.435-1.008-5.786-1.819.115-.133.258-.453,0-.5-.711.411-1.075-.377-1.337-.794-.144.4-.414-.24-.812-.032.014-.235.028-.468-.165-.5a.456.456,0,0,1,.5-.331c.021.3-.2.349-.165.662.168-.107.171-.381.5-.331-.173.223-.167.38.116.475a.748.748,0,0,0-.116-.145c.583-.518.944.591,1.488.661-.1.147-.2.3,0,.33,1.333.061,2.4.933,3.637,1.157,8.269,1.5,15.651-5.918,13.887-14.879-1.269-6.447-8.908-10.075-15.045-8.6-.884.213-1.452,1.015-2.315.661-.458.474-1.376,1.535-2.315,1.653,1.757-2.862,6.6-3.592,10.416-3.472,2.589,1.022,4.691,1.686,6.613,3.307A12.822,12.822,0,0,1,38.095,29.74Z" transform="translate(-10.32 -4.28)"/>
            <path id="Path_6199" data-name="Path 6199" d="M21.289,52.49c.011.016.023.034.034.052a.282.282,0,0,0,.014-.032A.445.445,0,0,1,21.289,52.49Z" transform="translate(-13.733 -19.28)"/>
          </g>
        </g>
      </g>
      <g id="noun-grill-1742665" transform="translate(281.044 360.874)">
        <path id="Path_5714" data-name="Path 5714" d="M43.069,29.4c-.06.752-.074,1.456-.183,2.145-.139.883-.013,1.072.9,1.23A6.21,6.21,0,0,0,45.3,32.8c.914-.066,1.818.082,2.727.076.689,0,.91-.294.532-.863a3.043,3.043,0,0,1,.074-3.286,1.7,1.7,0,0,0,.005-.981.713.713,0,0,1,.459-.772c.212-.077.306.324.439.536.21.335.334,1,.756.845.357-.128.047-.723-.047-1.089a3.579,3.579,0,0,1-.235-1.781.479.479,0,0,0-.125-.451,1.333,1.333,0,0,1-.248-.567.742.742,0,0,1,.111-.8c.305-.228.344.315.648.283a2.9,2.9,0,0,0,.4-1.335,16.735,16.735,0,0,0,.49-2.256c.015-.152-.058-.342.171-.411.286-.086.32.168.376.314a6.141,6.141,0,0,1,.591,2.442c-.013.3,0,.608,0,.974a2.8,2.8,0,0,1,1.486-.493c.367.056.435.249.233.455a1.9,1.9,0,0,0-.472,1.8,1.938,1.938,0,0,1-.243,1.219c-.249.444.232.926-.106,1.432.463-.016.668-.349,1.008-.354.408-.006.54.2.342.511-.709,1.117-1.179,2.4-2.272,3.254a.837.837,0,0,0-.26.326.9.9,0,0,0-.218.839.8.8,0,0,0,.792.094c1.534-.067,3.068-.138,4.6-.2a.577.577,0,0,1,.634.788c-.3,1.435-.52,2.881-.933,4.3a17.658,17.658,0,0,1-1.742,4.4,18.463,18.463,0,0,1-4.892,5.87,3.345,3.345,0,0,1-1.127.525.494.494,0,0,0-.415.762c.566,1.4,1.115,2.8,1.7,4.187.748,1.766,1.529,3.518,2.292,5.278.655,1.512,1.311,3.023,1.954,4.539.594,1.4,1.161,2.813,1.761,4.212q.838,1.953,1.726,3.884a.761.761,0,0,0,1,.278,1.92,1.92,0,0,1,1.021.025,1.145,1.145,0,0,1,.952,1.225,6.847,6.847,0,0,0-.028.919.707.707,0,0,1-.635.773c-1.408.457-2.832.082-4.246.133a8.164,8.164,0,0,1-2.293.079,1,1,0,0,1-.9-1.288c.023-.136.106-.264.123-.4.049-.38-.2-.841.177-1.125.337-.251.77-.026,1.162-.057.734-.058.789-.092.5-.774a57.942,57.942,0,0,0-2.735-6.19,17.493,17.493,0,0,1-1.129-2.623.843.843,0,0,0-.874-.646q-1.608-.011-3.216-.038c-1.489-.024-2.979-.1-4.467-.071-1.231.021-2.46.174-3.691.227-.907.039-1.818-.021-2.724.021-.981.046-1.959.167-2.939.239a.589.589,0,0,0-.518.4c-1.094,2.135-2.034,4.343-2.954,6.554-.224.539-.461,1.091-.694,1.635a.426.426,0,0,0-.061.453.516.516,0,0,0,.51.122c1.055-.155,1.425.208,1.312,1.267-.015.141-.02.283-.042.422-.154.956-.6,1.3-1.548,1.138a11.965,11.965,0,0,0-3.748-.027c-.547.079-1.148.33-1.676-.172a1.158,1.158,0,0,1-.383-1.071.644.644,0,0,1,.012-.07c.378-1.513-.052-1.46,1.9-1.445a.753.753,0,0,0,.783-.47q.967-2.134,1.967-4.252,1.281-2.728,2.579-5.448c1.455-3.033,2.846-6.091,4.125-9.205.5-1.222,1.039-2.447,1.661-3.621a.766.766,0,0,0-.335-1.176,12.466,12.466,0,0,1-5.068-5.688,16.482,16.482,0,0,1-1.691-4.488c-.224-1.361-.473-2.718-.682-4.081a.486.486,0,0,1,.651-.58c1.09.483,2.21.151,3.31.231,2.052.149,4.11.2,6.165.307.655.033.8-.156.652-.793a10.841,10.841,0,0,1-.571-2.942,7.89,7.89,0,0,1,.675,2.023c.159.548.4.518.682.182.181-.217.271-.438.59-.228a.285.285,0,0,0,.194-.021c.021-.518.677-.685.675-1.2a5.128,5.128,0,0,1,.887-2.853,5.076,5.076,0,0,0,.7-1.529c.043-.175.121-.426.341-.389.236.04.192.277.153.469-.149.726.034,1.506-.372,2.195a.927.927,0,0,1-.279.389c-.833.5-.791,1.5-1.252,2.215a.243.243,0,0,0,.122.357c.177.072.216-.088.283-.216A1.446,1.446,0,0,1,43.069,29.4Zm4.3,25.386c.316-.005.9.067.688-.546a40.348,40.348,0,0,0-1.706-4.489.355.355,0,0,0-.414-.233,21.8,21.8,0,0,1-2.7.088,8.86,8.86,0,0,1-2.976-.577c-.943-.456-1.291-.242-1.691.745a41.689,41.689,0,0,1-2.038,4.489c-.217.394-.251.667.377.709,1.666.11,3.32-.139,4.986-.1,1.8.044,3.6-.294,5.475-.088Zm1.517,3.979c.133-.2.647.3.7-.236a.731.731,0,0,0-.742-.793,8.658,8.658,0,0,0-2.159-.237,6.167,6.167,0,0,1-1.112.091c-1.587-.259-3.182.121-4.782-.153s-3.244.188-4.872.184a1.3,1.3,0,0,0-1.373.96c-.146.415-.171.558.366.59,2.489.147,4.954-.254,7.436-.275,2.143-.018,4.29.075,6.536-.13ZM50.9,31.717a1.991,1.991,0,0,1,.057-2.077c.076-.156.076-.44-.2-.414-.589.055-.844-.411-1.18-.718s-.45-.186-.568.165a6.8,6.8,0,0,1-.236,1.152,1.554,1.554,0,0,0,.1,1.662c.083.13.084.361.307.31s.119-.275.17-.419a.534.534,0,0,0-.056-.454,1.492,1.492,0,0,1,.041-1.336c.83.551.261,1.988,1.564,2.129Zm.329-4.963c-.232.607.166,1.116.264,1.668a.478.478,0,0,0,.468.362.5.5,0,0,0,.326-.492,2.656,2.656,0,0,1,.391-1.388.536.536,0,0,0,.148-.512.2.2,0,0,0-.151-.108.653.653,0,0,0-.339.5c-.127.324.1.9-.381.942-.519.048-.423-.617-.676-.913Zm.494-3.864c-.49.528-.352,1.171-.475,1.76-.047.226-.054.368.192.411.289.05.282-.162.282-.353q0-.909,0-1.818Zm.171,7.8c-.884.421-.643,1.179-.813,1.77a4.183,4.183,0,0,0,.813-1.77Z" transform="translate(-23.511 -7.892)"/>
        <path id="Path_5715" data-name="Path 5715" d="M29.087,18.58a11.938,11.938,0,0,1,.894-4.411.828.828,0,0,0-.318-1.233,1.592,1.592,0,0,1-.545-.879,9.317,9.317,0,0,0-.678-2.046,1.137,1.137,0,0,1,.293-1.294,12.943,12.943,0,0,1,1.017-1.07.472.472,0,0,0,.2-.416.39.39,0,0,0-.4-.212c-1.587-.273-1.682-.518-1.321-2.174a2.454,2.454,0,0,1,3.8-1.348,1.169,1.169,0,0,1,.464.609c.176.611.47.482.751.1a2.48,2.48,0,0,1,1.91-.842.329.329,0,0,1,.258.081c.773.969,2.377.618,2.976,1.888a.663.663,0,0,0,.768.193,23.822,23.822,0,0,1,5.171-.835A17.077,17.077,0,0,1,46.874,5a12.737,12.737,0,0,1,3.615,1.223A1.1,1.1,0,0,1,50.7,7.984a27.588,27.588,0,0,0-3.959,3.657,36.852,36.852,0,0,1-5.883,5.081c-1.014.737-1.873,1.671-2.857,2.46a37.619,37.619,0,0,0-4.17,4.129c-.664.73-1.52,1.289-2.207,2.028-.47.505-1.46,0-1.525-.824-.124-1.577-.9-3.006-.957-4.6C29.128,19.474,29.106,19.027,29.087,18.58Zm1.62-6.2c.109-.155.22-.3.319-.455a16.9,16.9,0,0,1,3-3.684,11.444,11.444,0,0,1,1.537-1.066,5.887,5.887,0,0,0,1.51-1.119c.308-.368.152-.722-.313-.691a1.388,1.388,0,0,0-1.012.324A23.377,23.377,0,0,1,32.524,9c-.6.439-1.21.874-1.785,1.347-.867.713-.866,1.164-.032,2.035Z" transform="translate(-24.817 -3.034)"/>
        <path id="Path_5716" data-name="Path 5716" d="M49.364,24.464c.618-.656.623-1.522.961-2.252.295-.637.571-1.282.846-1.928.06-.141.105-.262.293-.215a.235.235,0,0,1,.154.276.26.26,0,0,1,0,.071c-.336,1.657.385,3.234.377,4.857a5.874,5.874,0,0,1-1.736,3.864,8.354,8.354,0,0,1,.776-1.909,8.17,8.17,0,0,0,.091-3.508,5.664,5.664,0,0,0-.163-1.531.525.525,0,0,0-.426.494c-.178.8-.653,1.5-.769,2.319-.038.266-.139.664-.437.63s-.241-.436-.28-.708a8.311,8.311,0,0,0-.283-2.345c-.441.761-.44,1.706-1.459,2.147a10.381,10.381,0,0,0,1.264-3.185C48.892,22.519,49.682,23.325,49.364,24.464Z" transform="translate(-30.354 -7.929)"/>
        <path id="Path_5717" data-name="Path 5717" d="M46.932,31.781c-.6-.869-.268-2.687.933-4.809A5.555,5.555,0,0,1,46.932,31.781Zm.044-.831a3.038,3.038,0,0,0,.686-2.806A3.308,3.308,0,0,0,46.976,30.95Z" transform="translate(-30.161 -9.916)"/>
        <path id="Path_5718" data-name="Path 5718" d="M45.235,30.94a1.32,1.32,0,0,1,0-1.107c.339-.8.673-1.592.99-2.4.085-.214.21-.454.416-.371.278.113.095.393-.015.529a6.871,6.871,0,0,0-1.1,2.174C45.393,30.148,45.328,30.549,45.235,30.94Z" transform="translate(-29.721 -9.938)"/>
      </g>
      <g id="noun-surfboard-1116823" transform="translate(149.377 325.749) rotate(90)">
        <g id="Group_2194" data-name="Group 2194" transform="translate(0 0)">
          <path id="Path_6559" data-name="Path 6559" d="M14.593.674a79.321,79.321,0,0,0-10.058,1.2A13.256,13.256,0,0,0,1.543,2.8,2.6,2.6,0,0,0,0,4.715a2.743,2.743,0,0,0,1.635,2.16,13.3,13.3,0,0,0,3.486,1.08A96.361,96.361,0,0,0,17.709,9.281c10.776.612,26.479.875,45.908,1.358,3.776,6.507,6.2,8.881,14.871,13.7a.987.987,0,0,0,1.388-1.327c-2.7-5.4-4.434-8.346-5.461-12.372h17.4A1.042,1.042,0,0,0,92.649,9.1L91.292,7.06l2.931-1.481a1.04,1.04,0,0,0,.123-1.7A7.2,7.2,0,0,0,92,3.018,117.857,117.857,0,0,0,76.853,1.229C67.847.579,56.416.149,45.168.026,35.239-.05,24.235.008,14.593.674ZM45.168,2c1.927.021,3.845.053,5.769.093-.984,2.564-5.619,2.514-7.621,2.746-3.709.7-9.362.021-11.662,2.993-5.15-.155-9.919-.3-13.822-.524A97.27,97.27,0,0,1,5.492,6.042,8.7,8.7,0,0,1,2.067,4.777a9.365,9.365,0,0,1,2.869-.956,78.047,78.047,0,0,1,9.78-1.172C25.983,2.025,34.7,1.889,45.168,2Zm20.764,8.639h6.356c.858,3.675,2.38,6.607,4.288,10.274C70.966,17.6,68.834,15.472,65.931,10.639Z"/>
        </g>
      </g>
      <g id="noun-bike-1416181" transform="translate(283.047 252.521)">
        <path id="Path_79" data-name="Path 79" d="M25.006,31.861c-.485.242-.4.646-.485.97l-1.454,6.787c-.162.808-.162.889.646,1.212a18.808,18.808,0,0,1,5.252,2.989,13.249,13.249,0,0,1,3.959,5.171c1.212,2.747,1.131,5.575.727,8.483a15.7,15.7,0,0,1-1.535,4.767A14.808,14.808,0,0,1,28.965,66.2a11.333,11.333,0,0,1-4.605,2.585,13.853,13.853,0,0,1-7.918.566c-.646-.162-1.212-.323-1.858-.485-1.7-.4-2.989-1.454-4.444-2.181a7.273,7.273,0,0,1-2.585-2.828,16.353,16.353,0,0,1-2.585-5.171,14.876,14.876,0,0,1,.242-8.807,17.212,17.212,0,0,1,1.7-3.959,16.838,16.838,0,0,1,3.555-3.636,20.875,20.875,0,0,1,4.686-2.262,11.028,11.028,0,0,1,6.06-.242c.97.162.97.162,1.212-.808,1.131-4.363,1.616-8.726,2.343-13.169.081-.323,0-.646.081-.889.323-1.131.162-1.858-1.212-2.424a4,4,0,0,1-2.343-3.232,5.66,5.66,0,0,0-.242-1.131c-.081-.4-.323-.97.323-1.131.727-.162.485.566.646.97.162.485.162.97.323,1.454a3.638,3.638,0,0,0,2.5,2.666,5.371,5.371,0,0,1,3.313,2.909c.727,1.454,1.212,2.02,3.393,1.858a7.96,7.96,0,0,1,1.373-.162c.4,0,.808,0,.808.485.081.485-.323.4-.566.566a5.319,5.319,0,0,1-5.009-.889,1.449,1.449,0,0,1-.4-.566c-.162-.323-.323-.727-.566-1.131s-.4-1.131-.889-1.05c-.566.081-.323.727-.4,1.131a42.409,42.409,0,0,0-.727,4.444c-.081.4,0,.646.485.727,1.535.242,3.07.727,4.686.889,1.939.162,3.8.485,5.736.808,3.636.485,7.352.97,10.988,1.454,1.293.162,2.585.323,3.959.4.97.081,1.05.081,1.293-.808.485-1.939.97-3.878,1.373-5.817.162-.646,0-.727-.646-.808a11.891,11.891,0,0,0-1.7,0,1.649,1.649,0,0,1-1.616-1.212,1.7,1.7,0,0,1,.162-2.1,4.089,4.089,0,0,1,2.666-1.373c2.181-.242,4.363.4,6.544.323a2.008,2.008,0,0,1,2.181,1.616,1.622,1.622,0,0,1-.485,1.777,3.2,3.2,0,0,1-2.181.97,19.494,19.494,0,0,1-3.07-.081c-.566-.081-.808.162-.97.727-.566,2.262-1.212,4.524-1.7,6.787a1.2,1.2,0,0,0,.162,1.05c1.454,2.262,2.828,4.444,4.2,6.706.081.162.242.323.323.485.323.485.566.485,1.131.162a13.386,13.386,0,0,1,7.433-2.02,21.84,21.84,0,0,1,3.313.4,10.59,10.59,0,0,1,3.07,1.454,12.649,12.649,0,0,1,6.06,7.595A14.435,14.435,0,0,1,78.006,60.7a29.924,29.924,0,0,1-2.343,4.12,8.808,8.808,0,0,1-3.555,2.666,8.561,8.561,0,0,0-1.7.889,8.763,8.763,0,0,1-3.555,1.131,21.583,21.583,0,0,1-8.16-.97,2.527,2.527,0,0,1-.808-.4c-.97-.646-2.02-1.293-2.989-2.02a7.027,7.027,0,0,1-2.02-2.989,18.275,18.275,0,0,1-1.858-5.09,4.694,4.694,0,0,1-.081-2.585c.081-.323.081-.808-.4-.889s-.646.162-.727.646a7.371,7.371,0,0,1-2.666,4.12,2.42,2.42,0,0,1-1.454.485,4.554,4.554,0,0,1-2.747,0,1.075,1.075,0,0,0-1.373,1.05.3.3,0,0,0,.323.323,4.97,4.97,0,0,1,1.05.081c.646.081.808.323.727,1.131-.081.646-.485,1.05-1.05.889a23.979,23.979,0,0,0-4.2-.242h-.566c-1.131-.081-1.212-.162-.727-1.131.485-1.131.646-1.212,1.858-1.05.4.081.727.323,1.05,0a4.4,4.4,0,0,0,.889-1.454.538.538,0,0,0-.323-.727A3.114,3.114,0,0,1,39.226,56.1a4.18,4.18,0,0,1-.162-1.7A4.43,4.43,0,0,1,40.2,51.817c.485-.4.323-.646.081-1.05a22.259,22.259,0,0,0-1.858-2.181c-2.909-3.8-5.9-7.514-8.807-11.23A45.509,45.509,0,0,0,26.7,33.638C26.137,33.072,25.571,32.426,25.006,31.861Zm1.454-.081c0,.566.323.808.566,1.131,1.7,2.181,3.474,4.363,5.171,6.544,2.181,2.828,4.444,5.494,6.544,8.4.646.889,1.373,1.7,2.02,2.585.323.4.646.566,1.131.242a3.5,3.5,0,0,1,1.535-.323c.808-.081,1.616-.081,2.343-.081.162,0,.4.081.485-.162s-.081-.4-.323-.485c-.4-.081-.566-.323-.4-.727.162-.242.081-.566.162-.889,0-.323.162-.4.566-.4,1.7.162,1.7.081,2.181-1.454,1.05-3.474,2.02-6.948,2.989-10.422.162-.646.081-.727-.646-.889-1.373-.162-2.747-.485-4.12-.646-2.909-.323-5.736-.727-8.645-1.131l-5.575-.727C30.5,32.184,28.48,31.78,26.46,31.78Zm25.854,4.282-.242.485c-.889,3.07-1.777,6.06-2.747,9.13-.162.485-.242.97-.4,1.454-.162.646,0,.808.646.727a5.969,5.969,0,0,1,1.7,0c.889.081.889.081.808,1.05,0,.162-.162.4.162.566a1.115,1.115,0,0,1,.242-.323,15.608,15.608,0,0,1,4.2-5.494c.4-.323.323-.566.081-.97-.889-1.454-1.777-2.747-2.585-4.04C53.526,37.839,53.041,36.87,52.314,36.062ZM25.167,66.44h.162c1.293-.566,2.666-.97,3.636-2.181.566-.727.646-.727,0-1.535a32.887,32.887,0,0,0-4.605-4.282,16.818,16.818,0,0,0-1.7-1.7c-.4-.323-.646-.242-.97.081a.68.68,0,0,0-.162.97l2.424,5.817a19.949,19.949,0,0,1,.808,2.343C24.844,66.2,24.844,66.44,25.167,66.44Zm-5.332-3.151a28.508,28.508,0,0,1-.242,3.878c-.162.727,0,.808.727.646a16.916,16.916,0,0,0,2.909-.646c1.131-.485,1.212-.485.808-1.616-.081-.242-.162-.4-.242-.646-.485-1.535-1.212-2.989-1.858-4.524-.4-.889-.727-1.777-1.131-2.747a.534.534,0,0,0-.566-.485c-.4,0-.4.242-.4.566-.081.485-.081.889-.162,1.373A39.425,39.425,0,0,1,19.835,63.289Zm58.01-7.837a6.34,6.34,0,0,0-.162-1.777c-.242-1.05-.162-1.05-1.212-.97-2.585.162-5.09.4-7.675.566-.646.081-.889.323-.97.889-.081.646.4.646.808.727,1.293.323,2.585.646,3.8.97a36.654,36.654,0,0,0,4.282.97c.808.162.889.081,1.05-.727C77.764,55.937,77.845,55.695,77.845,55.452ZM67.5,56.26a.59.59,0,0,0-.485.727,2.527,2.527,0,0,0,.4.808c1.05,1.939,2.181,3.717,3.313,5.494.323.485.566.97.889,1.454a.65.65,0,0,0,1.05.242,8.375,8.375,0,0,0,2.343-2.424c.162-.162.081-.323-.081-.485a3.419,3.419,0,0,0-.566-.4c-1.373-1.05-2.747-2.02-3.959-3.151a19.622,19.622,0,0,0-2.424-2.1C67.826,56.422,67.665,56.26,67.5,56.26ZM30.1,53.594c-1.212-.081-2.343.242-3.474.242-1.05,0-2.02,0-3.07.081-.323,0-.566.081-.566.4-.081.242.162.4.323.566.242.081.485.242.727.323,2.424,1.05,4.767,2.02,7.191,3.07.646.242.727.242.97-.485A12.1,12.1,0,0,0,32.52,54.4a.51.51,0,0,0-.566-.566A7.831,7.831,0,0,0,30.1,53.594ZM14.422,66.683c.162-.4.242-.808.4-1.131a46.2,46.2,0,0,0,1.939-4.605,24.544,24.544,0,0,0,.97-3.232.7.7,0,0,0-.485-.889c-.323-.162-.485.242-.646.485a4.28,4.28,0,0,1-.485.808L12.24,62.966a11.1,11.1,0,0,0-1.05,1.616c-.162.242-.242.485.162.646A9.79,9.79,0,0,0,14.422,66.683Zm17.29-7.352c0-.4-.4-.566-.808-.727-1.535-.808-3.07-1.373-4.686-2.1-.97-.4-2.02-.808-3.07-1.212-.242-.081-.485-.162-.566.162a.534.534,0,0,0,.081.485,9.186,9.186,0,0,0,1.212,1.293A54.575,54.575,0,0,1,29.288,62.4c.485.566.727.566,1.05-.081.4-.808.808-1.616,1.131-2.424C31.631,59.734,31.631,59.573,31.712,59.33Zm36.6-3.959c-.162,0-.4-.081-.485.081-.081.242.081.323.242.4a33.037,33.037,0,0,1,3.07,2.666,21.07,21.07,0,0,0,3.8,2.828c.646.4.646.4,1.131-.242a7.931,7.931,0,0,0,1.05-2.585c.242-.808.242-.808-.566-1.05-2.5-.727-5.09-1.05-7.514-1.939A2.359,2.359,0,0,0,68.311,55.371ZM62.333,42.606a12.933,12.933,0,0,0-2.989.97c-.889.323-.808.485-.323,1.293,1.131,1.939,2.262,3.8,3.393,5.736.162.323.323.727.808.4.4-.242.97-.242.808-.97-.485-2.262-.566-4.605-1.131-6.948C62.817,42.848,62.736,42.525,62.333,42.606Zm3.8,14.7c-.323.081-.4.162-.323.485.081.485.162,1.05.242,1.535.4,2.5,1.131,4.928,1.535,7.433.081.646.323.808.97.566.727-.323,1.454-.727,2.262-1.131s.808-.485.4-1.212a4.512,4.512,0,0,0-.4-.646,24.8,24.8,0,0,1-2.1-3.474c-.566-1.05-1.212-2.1-1.858-3.07C66.615,57.472,66.453,57.311,66.13,57.311ZM64.191,68.056a6.3,6.3,0,0,0,1.777-.242c1.05-.242,1.131-.323.97-1.373a1.5,1.5,0,0,0-.162-.566c-.4-2.5-1.131-5.009-1.454-7.514,0-.162-.081-.323-.081-.485a.443.443,0,0,0-.485-.323.546.546,0,0,0-.485.323c-.081.162,0,.323-.081.485-.323,2.989-.646,5.9-.97,8.887C63.221,68.056,63.3,68.056,64.191,68.056Zm-45-6.544c0-1.212.081-2.424.081-3.636,0-.242,0-.485-.323-.485-.242,0-.242.162-.323.323-.323.808-.646,1.616-.889,2.424a18.674,18.674,0,0,1-1.777,4.12,6.946,6.946,0,0,0-.727,2.181.532.532,0,0,0,.485.727c.889.242,1.858.242,2.747.566.242.081.566.081.566-.242,0-.727.566-1.373.081-2.1a1.2,1.2,0,0,1-.081-.566A21.665,21.665,0,0,0,19.189,61.512ZM10.463,44.949A5.277,5.277,0,0,0,8.039,47.7c-.162.323-.162.566.162.727a28.067,28.067,0,0,0,2.666,1.454A43.451,43.451,0,0,1,16.2,52.059a.427.427,0,0,0,.646-.081c.242-.242.081-.4-.081-.566a3.733,3.733,0,0,0-.566-.566c-.727-.808-1.7-1.454-2.5-2.262C12.564,47.373,11.513,46.161,10.463,44.949Zm7.514,5.817a.612.612,0,0,1-.162-.323c-.485-1.454-1.373-2.828-1.858-4.363a16.6,16.6,0,0,0-1.616-3.151c-.242-.485-.646-.646-.97-.323A12.813,12.813,0,0,0,11.19,44.06c-.485.485-.4.727,0,1.05l5.817,5.817c.162.162.242.323.485.242C17.815,51.251,17.977,51.17,17.977,50.766Zm54.132-6.06a7.173,7.173,0,0,0-3.07-1.7c-.646-.162-.727-.162-.97.566-.4,1.293-.889,2.585-1.212,3.878-.242.97-.646,1.939-.808,2.909a.613.613,0,0,0,.323.808c.4.242.566-.081.727-.242,1.293-1.293,2.424-2.666,3.555-4.04A9.339,9.339,0,0,0,72.109,44.707ZM62.171,56.179c-.323-.242-.566.081-.808.162-1.05.4-1.939,1.131-2.989,1.616-1.373.727-2.747,1.535-4.12,2.343-.727.4-.727.485-.485,1.373a9.078,9.078,0,0,0,1.293,2.262q.364.485.727,0a18.512,18.512,0,0,0,1.7-1.858c1.373-1.777,2.828-3.474,4.363-5.252C62.009,56.664,62.252,56.5,62.171,56.179ZM10.463,64.42c.242-.081.323-.242.485-.4.889-1.293,1.777-2.585,2.747-3.878.889-1.131,1.777-2.262,2.585-3.393.162-.242.566-.485.242-.808-.323-.4-.566.081-.889.162a.079.079,0,0,0-.081.081c-1.7,1.454-3.8,2.5-5.575,3.878-2.262,1.777-2.424,1.05-.485,3.636.162.242.4.323.566.485A1.076,1.076,0,0,0,10.463,64.42ZM77.279,52.14c.162-.323,0-.485-.081-.727a13.239,13.239,0,0,0-1.131-2.424c-.4-.808-.323-.889-1.131-.485a3.511,3.511,0,0,0-.566.323,36.806,36.806,0,0,1-4.686,2.424,6.27,6.27,0,0,0-1.777.97c-.162.162-.242.242-.162.485.081.162.242.162.4.162a15.689,15.689,0,0,1,1.939-.162A54.958,54.958,0,0,0,77.279,52.14ZM6.5,52.705a1.577,1.577,0,0,0,.566.081,60.836,60.836,0,0,1,6.706.566,13.091,13.091,0,0,0,1.777.081c.242,0,.566,0,.646-.4a.512.512,0,0,0-.4-.485c-.4-.242-.889-.4-1.293-.646-1.7-.727-3.474-1.131-5.171-2.02-.485-.242-.97-.566-1.535-.808-.4-.162-.566-.081-.646.323A20.051,20.051,0,0,0,6.5,52.705ZM65.4,42.364a1.375,1.375,0,0,1-.566-.081c-1.212,0-1.373.162-1.212,1.374a18.871,18.871,0,0,1,.323,2.1c.081,1.454.646,2.909.566,4.363,0,.4.242.485.566.566s.485-.162.566-.485a.612.612,0,0,1,.162-.323c.646-2.181,1.212-4.363,1.777-6.544.081-.323,0-.485-.323-.727A2.925,2.925,0,0,0,65.4,42.364ZM58.374,66.44c.323,0,.485-.323.566-.485.646-1.131,1.131-2.262,1.7-3.474.727-1.616,1.7-3.151,2.424-4.848.081-.242.242-.4-.081-.566-.242-.162-.485-.242-.727.081a3.514,3.514,0,0,1-.485.566c-.889,1.131-1.777,2.262-2.747,3.313-.889,1.05-1.939,2.1-2.828,3.232-.485.566-.485.646.162,1.05.485.323.97.566,1.454.889A3.94,3.94,0,0,1,58.374,66.44ZM8.928,53.432c-.727,0-1.535-.081-2.262-.081-.4,0-.566.162-.566.566a13.035,13.035,0,0,1,0,1.777c-.081,1.535.242,1.777,1.616,1.212,1.939-.727,3.878-1.293,5.817-1.858a18.184,18.184,0,0,0,1.939-.646c.162-.081.242-.162.242-.323s-.162-.242-.323-.242c-.081,0-.242-.081-.323-.081A39.626,39.626,0,0,1,8.928,53.432Zm8.079-11.8a4.444,4.444,0,0,0-1.777.162c-.485.242-.566.485-.242.889a9.79,9.79,0,0,1,1.454,3.07A41.6,41.6,0,0,0,18.3,50.12c.081.081.081.242.162.323a.489.489,0,0,0,.485.242c.242,0,.323-.162.323-.4v-.646a59.6,59.6,0,0,0-.566-6.544C18.462,41.637,18.462,41.637,17.007,41.637Zm6.867,11.8c.97.081,1.777-.162,2.585-.081,1.7.162,3.474-.323,5.171-.162.4,0,.485-.162.485-.566a4.313,4.313,0,0,0-.808-2.343.8.8,0,0,0-1.212-.4,18.911,18.911,0,0,1-1.939.727c-1.777.4-3.393,1.212-5.171,1.7-.242.081-.566.162-.485.485a.624.624,0,0,0,.646.566A6.265,6.265,0,0,1,23.875,53.432Zm39.993,4.282c-.162,0-.162.081-.242.162A13.051,13.051,0,0,0,62.252,60.7,31.417,31.417,0,0,0,59.586,66.2c-.242.485-.242.727.323.889.727.242,1.454.485,2.1.727.485.162.727,0,.808-.485.162-1.212.4-2.343.485-3.555a40.823,40.823,0,0,1,.646-5.494A.479.479,0,0,0,63.868,57.715ZM28.4,46a20.3,20.3,0,0,0-2.5-2.1c-.727-.566-.889-.485-1.293.323-.566,1.05-1.131,2.181-1.616,3.232-.485,1.131-1.131,2.1-1.7,3.151-.081.242-.242.4,0,.566.162.081.4.081.485-.081a11.258,11.258,0,0,1,1.535-1.212C25.006,48.666,26.7,47.454,28.4,46Zm38.7,6.06c.242,0,.323.081.323,0,1.454-.889,3.07-1.616,4.605-2.424.889-.485,1.777-1.05,2.585-1.535s.808-.566.323-1.293a5.631,5.631,0,0,0-1.616-1.454c-.485-.323-.727-.323-1.131.162-1.212,1.535-2.424,2.909-3.8,4.363C67.988,50.524,67.584,51.251,67.1,52.059Zm-6.221,2.989a2.359,2.359,0,0,0-.727.162c-.97.242-2.02.4-2.989.646-1.293.323-2.666.485-3.959.808-.242.081-.646.081-.646.485.081.808.162,1.616.323,2.424a.427.427,0,0,0,.566.323c1.454-.566,2.747-1.374,4.12-2.02.97-.485,1.858-1.05,2.828-1.616.323-.162.646-.4.97-.566.162-.081.242-.242.162-.323s-.242-.162-.323-.242C61.2,55.048,61.04,55.048,60.878,55.048Zm1.373-3.232c.081-.323-.162-.485-.323-.646-.727-1.05-1.454-2.1-2.1-3.232-.485-.889-.97-1.777-1.535-2.666-.242-.4-.566-.566-.97-.242-.646.566-1.212,1.131-1.777,1.7-.485.566-.485.808.162,1.293a68.7,68.7,0,0,0,6.06,3.8A.354.354,0,0,0,62.252,51.817ZM16.119,55.048c-.242-.323-.4-.162-.646-.081a5.362,5.362,0,0,1-1.616.485,26.075,26.075,0,0,0-5.979,2.02c-.4.242-.97.162-1.131.646s.242.889.4,1.373c.566,1.454.485,1.373,1.777.566,1.858-1.212,3.636-2.585,5.656-3.717C15.149,56.018,15.876,55.775,16.119,55.048Zm6.3-3.151a5.566,5.566,0,0,1,.646-.242c1.777-.566,3.555-1.131,5.332-1.777,2.424-.889,2.5-.646.727-2.828l-.081-.081c-.162-.323-.485-.242-.727-.162a1.759,1.759,0,0,0-.646.4c-1.454,1.131-2.909,2.262-4.444,3.313a12.063,12.063,0,0,0-1.131.97c-.081.081-.081.162-.081.323C22.178,51.817,22.259,51.978,22.42,51.9Zm32.4-3.636c-.323.485-.646.808-.889,1.212-.566.889-.323,1.293.485,1.535,2.1.646,4.2,1.293,6.221,1.939.081,0,.242.081.323.081.242,0,.566.081.646-.242.081-.242-.162-.4-.323-.566s-.4-.242-.566-.4c-.566-.323-1.212-.646-1.777-.97C57.646,49.958,56.273,49.15,54.819,48.262ZM43.1,58.684c.323,0,.566.081.889.081a3.606,3.606,0,0,0,4.2-3.313c0-.323-.081-.485-.4-.485-.889.162-1.777.081-2.424.889-.4.566-1.05.97-1.535,1.535A2.579,2.579,0,0,0,43.1,58.684Zm-23.349-9.21H20c.081-.081.162-.162.162-.242.485-1.939.889-3.8,1.293-5.736.4-1.858.162-2.02-1.7-1.939-.485,0-.566.242-.485.646a5.27,5.27,0,0,1,.162,1.939C19.431,45.919,20,47.7,19.754,49.474Zm21.9,8.807a3.079,3.079,0,0,0,.808-1.616c.808-1.939.808-1.939-.323-3.555-.566-.727-.808-.727-1.373,0a1.767,1.767,0,0,0-.242.4A3.292,3.292,0,0,0,41,57.472,2.052,2.052,0,0,1,41.649,58.28Zm10.261-8.4c-1.131,0-2.262-.081-3.313-.081a.8.8,0,0,0-.808.566c-.162.485.162.646.485.727a2.636,2.636,0,0,1,1.373,1.7,2.749,2.749,0,0,1,.081.808c.081.4.4.323.727.323.242,0,.485,0,.566-.4C51.264,52.382,51.587,51.17,51.91,49.878ZM20.8,49.8a2.21,2.21,0,0,0,.4-.323,38.734,38.734,0,0,0,3.07-6.06.423.423,0,0,0-.162-.646c-.323-.162-.566-.323-.889-.485-.4-.162-.646-.081-.808.4-.162.566-.242,1.212-.4,1.777C21.613,46.242,21.289,47.938,20.8,49.8Zm38.3,3.474v-.242a42.039,42.039,0,0,0-5.413-1.7.417.417,0,0,0-.566.242c-.162.485-.323.889-.485,1.373-.162.808,0,.97.808.889C55.384,53.675,57.243,53.513,59.1,53.271Zm-6.706,2.02c-.081.727.081.889.727.727a3.387,3.387,0,0,1,1.293-.323c2.343-.162,4.524-1.05,6.867-1.212.162,0,.323-.081.323-.242,0-.242-.242-.242-.4-.242-2.747.242-5.413.4-8.16.646C52.556,54.644,52.395,54.887,52.395,55.291Zm-7.756-4.12a8.954,8.954,0,0,0-2.02.4c-.242.081-.485.323-.323.566a5.939,5.939,0,0,0,1.293,1.535c.162.162.4,0,.646,0,.727-.242.97-.889,1.293-1.454.4-.646.323-.889-.485-1.05Zm2.5,3.232c1.131.081,1.373-.323.97-1.293a2.419,2.419,0,0,0-.323-.646c-.323-.485-.566-.485-.808.081-.162.4-.242.808-.4,1.212C46.5,54.16,46.578,54.321,47.143,54.4ZM64.11,52.948a1.224,1.224,0,0,0,.081-1.05.273.273,0,0,0-.4-.242c-.162.081-.323.162-.323.4A2.072,2.072,0,0,0,64.11,52.948ZM18.542,54.806c-.323.323-.727.646-.727,1.131a1.833,1.833,0,0,0,.323.081C18.7,55.775,18.462,55.21,18.542,54.806Zm2.5-1.535c.162,0,.323.081.485.081s.4.081.4-.242c0-.242-.242-.323-.485-.242A.664.664,0,0,0,21.047,53.271Zm-.485,1.939a1.168,1.168,0,0,0,.162.566c.081.162.242.323.4.081a.361.361,0,0,0,0-.4A.739.739,0,0,0,20.562,55.21Zm45.487-1.373a.612.612,0,0,0,.808.081A.626.626,0,0,0,66.049,53.836Zm0,1.373v.162a.807.807,0,0,0,.323.4.282.282,0,0,0,.162-.081c0-.162-.162-.242-.242-.323S66.13,55.291,66.049,55.21Zm-1.939.081a.814.814,0,0,0-.081-.242.214.214,0,0,0-.242.242c0,.081,0,.242.081.242S64.029,55.452,64.11,55.291Z" transform="translate(-4.418 -16.971)"/>
      </g>
      <g id="noun-boat-492192" transform="translate(38.019 308.692)">
        <path id="Path_7091" data-name="Path 7091" d="M103.363,51.51l-2.013-1.678a1.59,1.59,0,0,0-.671-.224c-.112,0-15.547-1.007-24.83-.447-1.454.112-3.691.224-6.375.447l-2.8-11.744,7.941-4.25a1.124,1.124,0,0,0,.559-1.23,1,1,0,0,0-1.118-.783L42.519,32.72A1.2,1.2,0,0,0,41.4,33.839a1.1,1.1,0,0,0,1.007,1.118l17.224,1.566L55.046,50.5c-3.02.224-6.04.447-8.836.671l-1.454-4.586a1.168,1.168,0,1,0-2.237.671l1.23,4.026c-7.941.559-14.093,1.007-14.2,1.007a.854.854,0,0,0-.559.224l-3.915,2.908a2.06,2.06,0,0,0-.224-1.678c-.112-.112-.112-.224-.224-.336a9.465,9.465,0,0,0-7.494-4.921h-.224c-1.9,0-3.244,1.566-4.138,3.132A15.317,15.317,0,0,0,11.314,55.2l-.559,7.382H9.413a1.017,1.017,0,0,0-.895.447l-1.79,2.237A1.3,1.3,0,0,0,6.5,66.386a1.351,1.351,0,0,0,.783.783l1.678.447L7.623,71.531a1.377,1.377,0,0,0,.224,1.118,1.27,1.27,0,0,0,.895.336h.224L15,71.754a1.426,1.426,0,0,0,.783-.559L18.36,66.05a30.573,30.573,0,0,0,2.461,4.586,1.017,1.017,0,0,0,.895.447H69.809a15.436,15.436,0,0,0,1.566.112,32.276,32.276,0,0,0,21.139-8.5c8.836-7.829,10.4-9.06,10.625-9.171a1.145,1.145,0,0,0,.559-.671,1.131,1.131,0,0,0-.336-1.342ZM65.895,44.24l-6.6.559,2.013-6.263.336.559a1.145,1.145,0,0,0,.671.559h.336a1.008,1.008,0,0,0,.559-.112l1.454-.783,1.23,5.48Zm3.467-10.4L63.21,37.082,62.2,35.069a1.141,1.141,0,0,0-.895-.559l-2.572-.224Zm-10.849,13.2,7.941-.671.783,3.244c-2.908.224-6.263.447-9.731.671ZM17.13,50.727a6.94,6.94,0,0,1,5.816,3.8c.112.112.112.224.224.336a5.633,5.633,0,0,1-.559,1.678l-7.046-4.586a2.1,2.1,0,0,1,1.566-1.23Zm0,12.527L14,69.518l-3.579.783,1.118-3.244a.844.844,0,0,0-.112-.895,1.644,1.644,0,0,0-.671-.559l-1.118-.224.336-.447h1.9a1.1,1.1,0,0,0,1.118-1.007l.783-8.388a4.8,4.8,0,0,1,.559-1.678l6.934,4.586-.559.447H19.031a1.074,1.074,0,0,0-1.007.783l-.895,2.237a.713.713,0,0,0,0,.671,4.7,4.7,0,0,1,.224.559.346.346,0,0,1-.224.112Zm75.16-3.579c-10.625,3.691-57.6,3.915-65.765,3.915h-1.23a1.118,1.118,0,0,0,0,2.237h1.79c8.836,0,45.633-.224,61.18-2.908a29.166,29.166,0,0,1-18.343,5.7H22.387a29.923,29.923,0,0,1-3.02-6.375l.447-1.23h1.23a1.59,1.59,0,0,0,.671-.224l1.454-1.007,7.046-5.257c3.691-.224,37.021-2.684,45.857-3.132a213.021,213.021,0,0,1,24.271.447l.671.559c-1.454.895-3.915,3.02-8.724,7.27Z" transform="translate(-6.461 -31.584)"/>
      </g>
      <g id="noun-camera-4998853" transform="translate(79.768 271.461)">
        <path id="Path_5074" data-name="Path 5074" d="M15.752,19.182H9.6a1.2,1.2,0,0,0-1.2,1.2v.507a1.2,1.2,0,0,0,1.2,1.2h6.152a1.2,1.2,0,0,0,1.2-1.2v-.507A1.2,1.2,0,0,0,15.752,19.182Zm-3.459,2.133H9.6a.431.431,0,0,1-.43-.43v-.507a.431.431,0,0,1,.43-.43h2.693Zm31.35-4.6H33.314l-1.756-2.3H23.378l-1.442,2.3h-8.69V15.293H9.6v1.422H7.386A1.388,1.388,0,0,0,6,18.1V37.045a1.388,1.388,0,0,0,1.386,1.386H22.344a9.313,9.313,0,0,0,11.862,0h9.436a1.388,1.388,0,0,0,1.386-1.386V18.1A1.388,1.388,0,0,0,43.642,16.715Zm-33.282-.657h2.12v.657h-2.12ZM28.275,39.8a8.567,8.567,0,1,1,8.567-8.567A8.567,8.567,0,0,1,28.275,39.8Zm15.988-2.754a.622.622,0,0,1-.621.621H35.017a9.331,9.331,0,1,0-13.485,0H7.386a.622.622,0,0,1-.621-.621V18.1a.622.622,0,0,1,.621-.621H22.359l1.442-2.3h7.378l1.756,2.3H43.642a.622.622,0,0,1,.621.621ZM28.275,24.033a7.2,7.2,0,1,0,7.2,7.2,7.2,7.2,0,0,0-7.2-7.2Zm0,9.7a2.5,2.5,0,1,1,2.5-2.5A2.5,2.5,0,0,1,28.275,33.732ZM9.311,35.705h.667v.765H9.311Zm-1.382.011H8.6v.765H7.928Zm0-1.481H8.6V35H7.928Z" transform="translate(-6 -14.415)"/>
      </g>
    </g>
  </g>
</svg>
