<svg xmlns="http://www.w3.org/2000/svg" width="359.052" height="193.83" viewBox="0 0 359.052 193.83">
  <g id="effortless-insurance-claims" transform="translate(-28.188 -1595.053)">
    <g id="noun-skis-4512644" transform="translate(184.639 1595.053) rotate(60)">
      <g id="Group_2175" data-name="Group 2175" transform="translate(0 0)">
        <path id="Path_6473" data-name="Path 6473" d="M15.086,7.628C15.086,5.763,12.2,0,9.831,0H5.424C2.881,0,.169,5.763.169,7.628L2.543,82.384,0,153.24c0,.169.509,13.053,4.916,13.053h5.255c4.238,0,4.916-12.883,4.916-13.053L12.713,82.553Zm-3.9-4.238L2.2,12.374V10L10,2.2l-.339-.339h.17A15.649,15.649,0,0,1,11.188,3.39ZM5.424,2.034H7.289L2.034,7.12C2.542,5.424,4.577,2.2,5.424,2.034Zm7.459,154.257-7.967,7.967c-.339,0-.678-.678-1.017-1.526l9.323-9.323A14.927,14.927,0,0,0,12.883,156.291Zm-2.712,7.967H7.628l4.577-4.577C11.7,162.225,10.849,164.259,10.171,164.259Zm2.882-13.392L3.221,160.7a35.23,35.23,0,0,1-1.187-7.459L4.407,82.384,2.2,14.748l.17.17L12.2,5.255a6.681,6.681,0,0,1,.848,2.373L10.679,82.553Z" transform="translate(0 0)"/>
        <path id="Path_6474" data-name="Path 6474" d="M14.917,7.628C14.917,5.764,12.035,0,9.662,0H5.255C2.712,0,0,5.763,0,7.628L2.373,82.384,0,153.24c0,.169.509,13.053,4.916,13.053h5.255c4.238,0,4.916-12.883,4.916-13.052L12.714,82.553ZM12.883,7.12,7.8,2.034H9.662C10.51,2.2,12.374,5.424,12.883,7.12Zm-7.8-5.085,7.8,7.8V12.2L3.9,3.221A3.917,3.917,0,0,1,5.085,2.034Zm5.086,162.224-8.137-8.137a16.5,16.5,0,0,1-.17-2.712l9.323,9.323A2.9,2.9,0,0,1,10.171,164.259Zm-7.459-4.577,4.577,4.577H4.577C4.069,164.259,3.391,162.055,2.713,159.682Zm10.171-6.441a43.867,43.867,0,0,1-1.017,7.289L2.034,150.7l2.2-68.314L1.865,7.628a7.268,7.268,0,0,1,.848-2.543l9.662,9.662.339-.339L10.68,82.384Z" transform="translate(22.206 0)"/>
        <ellipse id="Ellipse_33" data-name="Ellipse 33" cx="2.204" cy="2.204" rx="2.204" ry="2.204" transform="translate(7.119 10.849)"/>
        <ellipse id="Ellipse_34" data-name="Ellipse 34" cx="2.204" cy="2.204" rx="2.204" ry="2.204" transform="translate(25.427 10.849)"/>
      </g>
    </g>
    <g id="noun-camera-lens-640662" transform="translate(168.775 1712.547)">
      <path id="Path_5107" data-name="Path 5107" d="M45.627,14.985a.758.758,0,0,1,.889-.61,20.7,20.7,0,0,1,5.942,1.9c.369.2-.1,1.43-.366,1.43a.755.755,0,0,1-.365-.094,19.267,19.267,0,0,0-5.489-1.742A.763.763,0,0,1,45.627,14.985ZM42.79,15.4a.762.762,0,0,0,.068-1.521,43.776,43.776,0,0,0-4.444-.17.762.762,0,0,0-.751.774.778.778,0,0,0,.774.751,40.7,40.7,0,0,1,4.285.164C42.743,15.4,42.766,15.4,42.79,15.4ZM65.447,39.21c.447,1.539-.991,3.015-2.581,3.5a3.9,3.9,0,0,1-1.132.165,3.791,3.791,0,0,1-1.782-.428,2.318,2.318,0,0,1-1.183-1.378c-.448-1.539.991-3.015,2.581-3.5a3.926,3.926,0,0,1,2.913.264A2.312,2.312,0,0,1,65.447,39.21Zm-4.239.071c-.673.387-1.083.988-.975,1.361a.89.89,0,0,0,.445.463,2.007,2.007,0,0,0,.53.191Zm2.776.354a.894.894,0,0,0-.446-.463,2.139,2.139,0,0,0-.807-.235v2.2C63.565,40.77,64.106,40.056,63.984,39.635ZM48.74,43.2v.051a3.36,3.36,0,0,1-3.409,3.383c-.053,0-2.471.16-4.395.16-2.068,0-4.055-.123-4.076-.124h0a3.415,3.415,0,0,1-3.376-3.419,3.766,3.766,0,0,1,3.437-3.812c.053,0,2.077.088,4.2.088,2.149,0,4.128-.087,4.148-.088h0A3.755,3.755,0,0,1,48.74,43.2Zm-1.524,0A2.238,2.238,0,0,0,45.3,40.96c.014,0-2,.088-4.182.088-2.158,0-4.214-.088-4.234-.089a2.241,2.241,0,0,0-1.88,2.237,1.913,1.913,0,0,0,1.9,1.948c.067,0,2.01.123,4.028.123,1.875,0,4.321-.157,4.345-.159a1.866,1.866,0,0,0,1.933-1.86V43.2ZM32.088,14.416c-.439.107-1.254.36-1.637.487-.4.133.321,1.352.64,1.352a.763.763,0,0,0,.241-.04c.351-.117.726-.223,1.118-.319a.762.762,0,1,0-.362-1.481Zm3.714-.58c-.588.05-1.159.117-1.71.2a.762.762,0,0,0,.109,1.516.691.691,0,0,0,.111-.008c.523-.076,1.065-.139,1.621-.187a.761.761,0,0,0,.694-.825A.753.753,0,0,0,35.8,13.836Zm34.17,19.6v5.52c.766,1.045,1.752,2.622,1.752,3.813l-.075,9.322c0,1.945-1.376,3.631-3.7,5.042-.543,2.522-3.356,4.884-8.08,6.771v2.09a1.519,1.519,0,0,1-.048.38c-.451,4.426-10.372,6.446-19.605,6.446-6.879,0-19.887-1.395-19.887-6.676l.012-2.2c-4.447-1.822-7.2-4.144-7.8-6.547-2.493-1.416-3.978-3.121-3.978-5.1l.148-9.55A4.564,4.564,0,0,1,9.8,39.863a1.524,1.524,0,0,1-.4-1.027V34a1.528,1.528,0,0,1,.476-1.107l-.671-.469a1.526,1.526,0,0,1-.651-1.27L8.7,20.063a4.928,4.928,0,0,1,1.739-3.588l.034-.4c.112-6.315,15.015-9.618,29.736-9.618S69.85,9.768,69.95,16.088l.028.369a4.828,4.828,0,0,1,1.745,3.627v.01l-.075,11.484a1.526,1.526,0,0,1-.744,1.3ZM18.978,49.713q-.961-.27-1.85-.568v7q.862.305,1.844.6V49.811C18.973,49.778,18.975,49.745,18.978,49.713Zm3.622.868q-1.08-.221-2.1-.471V57.16c.665.171,1.373.333,2.1.49Zm3.628.636q-1.071-.16-2.1-.344v7.084c.679.128,1.377.251,2.1.364Zm3.368.431q-.932-.1-1.844-.219v7.113q.9.122,1.844.229Zm3.628.32q-1.059-.073-2.1-.168v7.127q1.03.1,2.1.173Zm3.628.184c-.7-.023-1.4-.053-2.1-.091v7.132q1.033.056,2.1.09Zm3.368.056h-.007q-.917,0-1.838-.017v7.131c.571.01,1.143.018,1.728.018l.117,0Zm3.628-.065q-1.051.038-2.1.053v7.126q1.069-.017,2.1-.056Zm3.628-.194q-1.046.074-2.1.129V59.2q1.072-.056,2.1-.134Zm3.368-.3q-.915.1-1.844.181v7.111q.941-.088,1.844-.191Zm3.628-.47c-.69.105-1.392.2-2.1.293v7.09c.724-.1,1.421-.206,2.1-.319Zm3.628-.652q-1.027.215-2.1.4v7.044c.731-.139,1.43-.286,2.1-.44Zm3.628-.892c-.675.194-1.378.378-2.1.551V57.16c.743-.194,1.446-.395,2.1-.6Zm3.368-1.155q-.872.358-1.844.683v6.872q1.014-.377,1.844-.77ZM67.685,47.2q-.5.3-1.066.589v6.66a7.6,7.6,0,0,0,1.066-.8Zm.976-2.748.014-1.691a2.122,2.122,0,0,0-.2-.476c-3.332,4.2-15.855,6.391-28.257,6.391-12.13,0-24.909-2.336-28.173-6.707a1.493,1.493,0,0,0-.288.8L11.728,44.4c2.843,3.228,13.749,6.283,28.486,6.283C54.882,50.685,65.757,47.658,68.662,44.447Zm-56.931-22.7C14.534,24.957,25.14,28,40.214,28c14.673,0,25.55-3.029,28.45-6.241l.011-1.68A1.748,1.748,0,0,0,68,18.792c-3.5,3.724-14.477,6.289-27.792,6.289S15.939,22.523,12.429,18.8a2,2,0,0,0-.677,1.273Zm28.483,1.812c12,0,21.181-2.141,25.21-4.637-3.65-4.233-13.832-7.146-25.21-7.146S18.649,14.687,15,18.922C19.028,21.419,28.2,23.558,40.214,23.558ZM66.923,39.467v-5.28c-5.6,3.042-16.334,4.758-26.82,4.758A88.766,88.766,0,0,1,22.312,37.2v8.059a77.642,77.642,0,0,0,17.9,1.885c15.151,0,25.731-3.109,27.369-6.286-.111-.157-.225-.313-.34-.461A1.535,1.535,0,0,1,66.923,39.467Zm-53.491.527a1.518,1.518,0,0,1-.32.835c.684,1.078,2.351,2.151,4.824,3.1V38.7a12.2,12.2,0,0,1-3.911-1.361,14.813,14.813,0,0,1-1.576-.914v1.808l.577.619A1.526,1.526,0,0,1,13.433,39.994Zm5.014-2.8a.7.7,0,0,1,.113-.033l1.3-.534a30.429,30.429,0,0,1-6.8-2.519l-.544.5A13.768,13.768,0,0,0,14.7,35.977C17.484,37.357,18.436,37.2,18.446,37.2ZM13.83,32.632a1.548,1.548,0,0,1-.009.188,18.91,18.91,0,0,0,1.784.849V25.837a21.891,21.891,0,0,1-2.1-.978V31.8A1.515,1.515,0,0,1,13.83,32.632Zm5.143,2.2V26.988q-.964-.278-1.844-.581v7.842C17.708,34.45,18.325,34.646,18.973,34.835Zm.488,9.63q.637.206,1.326.4V37.9l-1.326.543ZM22.6,35.74V27.883q-1.087-.229-2.1-.485V35.25Q21.5,35.507,22.6,35.74Zm3.628.665V28.535q-1.077-.165-2.1-.353v7.862Q25.146,36.236,26.228,36.4Zm3.368.448v-7.88q-.936-.1-1.844-.222v7.874Q28.656,36.748,29.6,36.853Zm3.628.329V29.293q-1.068-.073-2.1-.168V37.01Q32.154,37.107,33.224,37.182Zm3.628.186V29.473c-.709-.023-1.411-.053-2.1-.089v7.892Q35.785,37.333,36.852,37.368Zm3.368.053V29.527h-.007q-.927,0-1.838-.016v7.9C38.983,37.416,39.6,37.42,40.22,37.42Zm3.628-.068V29.461q-1.051.038-2.1.053v7.892Q42.811,37.391,43.847,37.353Zm3.628-.2V29.267q-1.046.074-2.1.129v7.889Q46.442,37.229,47.475,37.151Zm3.368-.317V28.965q-.915.1-1.844.181v7.879Q49.938,36.938,50.843,36.834Zm3.628-.5V28.494c-.69.105-1.392.2-2.1.293v7.858Q53.447,36.5,54.471,36.334ZM56,28.325v7.741q1.089-.2,2.1-.433V27.843q-1.029.215-2.108.4C55.994,28.272,56,28.3,56,28.325Zm5.731,6.346V26.952c-.675.194-1.378.378-2.1.551v7.764Q60.73,34.982,61.726,34.671Zm3.368-1.305V25.8q-.872.358-1.844.683v7.678c.665-.242,1.281-.493,1.845-.751C65.094,33.392,65.094,33.379,65.094,33.365Zm3.556-9.514A13.511,13.511,0,0,1,66.618,25.1v7.52c.114-.067.216-.135.324-.2a1.516,1.516,0,0,1,.724-1.16l.94-.56ZM11.7,23.715l-.089,6.671.362.253V24.08a.8.8,0,0,1,.014-.149C11.891,23.861,11.8,23.788,11.7,23.715ZM13.43,17.34a1.551,1.551,0,0,1-.047.252,4.618,4.618,0,0,0,.394.418c3.938-4.665,14.39-7.759,26.436-7.759s22.5,3.1,26.435,7.759a4.565,4.565,0,0,0,.388-.408,1.569,1.569,0,0,1-.051-.28l-.079-1.05c0-.038,0-.077,0-.115,0-2.708-10.4-6.641-26.689-6.641s-26.689,3.934-26.689,6.641c0,.043,0,.085-.005.128ZM11.605,52.319a1.538,1.538,0,0,0,.372.919V46.692c-.1-.071-.187-.145-.281-.216Zm3.334,2.944c.21.1.437.194.665.29V48.588a21.23,21.23,0,0,1-2.1-.962V54.5c.227.139.467.28.734.419A1.526,1.526,0,0,1,14.939,55.263ZM56.818,65.745V64.168a57.047,57.047,0,0,1-16.6,2.347,58.078,58.078,0,0,1-16.829-2.351l-.011,1.985c.154,1.075,6.07,3.62,16.84,3.62s16.572-2.636,16.572-3.714A1.519,1.519,0,0,1,56.818,65.745Zm4.63-5.951A81.617,81.617,0,0,1,40.1,62.39,83.619,83.619,0,0,1,18.93,59.9,24.236,24.236,0,0,0,22.4,61.479a1.515,1.515,0,0,1,.937,1.064,55.868,55.868,0,0,0,16.878,2.449A54.829,54.829,0,0,0,56.9,62.534a1.521,1.521,0,0,1,.969-1.129A25.208,25.208,0,0,0,61.448,59.794Z" transform="translate(-8.557 -6.462)"/>
    </g>
    <g id="noun-seat-1386154" transform="translate(283.013 1627.427)">
      <g id="Group_2355" data-name="Group 2355" transform="translate(0 0)">
        <path id="Path_7087" data-name="Path 7087" d="M29.956,17.645a3.652,3.652,0,0,0-3.611-.485c-.935.388-.749,2.606-.362,3.541L49.245,81.109c.167.4-.294,1.776-.206,2.927L21.482,109.32l4.5.343L54.432,88.049l41.174-30.7,25.734,54.156,4.369.36L102.46,52.24l14.988-11.175,3.073-2.567c.461-.505.362-.707-.14-.681l-6.125.419c-15.128,1.3-46.425,1.556-49.584,1.537-4.29.3.773,1.48-24.577,2.039L29.956,17.645ZM57.135,77.173l-.077.05-.066.055-.062.051c-1.3,1.056-1.6.672-1.868.145L41.6,45.386l65.74-3.1c1.568.162,1.328,1.341-.261,2.288l-49.942,32.6Z" transform="translate(-21.482 -11.471)"/>
        <path id="Path_7088" data-name="Path 7088" d="M46.936,39.059l47.986-2.024L87.229,42.7" transform="translate(-7.356 -0.293)" fill="none" fill-rule="evenodd"/>
        <path id="Path_7089" data-name="Path 7089" d="M100.612,56.064l11.513,30.059-3.067.02-13.7-29.528v0L64.61,59.84,31,84.714l-2.353.1L61.146,60.2l-1.787.187.063-2.213,50.77-4.9.068,1.778Z" transform="translate(-17.507 8.719)"/>
        <path id="Path_7090" data-name="Path 7090" d="M40.461,18.5a8.105,8.105,0,0,0-2.136-2.47,5.968,5.968,0,0,0-3.214-1.219,5.816,5.816,0,0,0-3.26.784l0,0a6.937,6.937,0,0,0-1.161.848c.441-.23.9-.466,1.4-.68,2.558-1.109,5.319-1.379,7.416,3.425a214.26,214.26,0,0,1,9.043,20.518c2.646,6.92,5.065,14.156,7.431,21.93l3.262-.567.74-.127c-2.841-8-5.84-15.893-9.019-23.073A114.767,114.767,0,0,0,40.494,18.559l-.006-.009-.028-.046ZM57.6,50.342l47.986-2.024,5.985-.252-4.83,3.559L99.044,57.3l-2.167-2.957,2.863-2.11L58.928,53.951c.9,2.419,1.781,4.863,2.648,7.313l.04.114c18.81-3.185,36.955-5.541,48.739-3.027a3.4,3.4,0,0,1,2.876,1.567,11.2,11.2,0,0,1,1.815,4.116,16.355,16.355,0,0,1,.424,5.012c-.206,2.591-1.163,4.907-3.141,5.9l-.118.059-.134.013L52.707,80.543l-.321.029-.233-.23a24.214,24.214,0,0,1-4.744-6.466A26.832,26.832,0,0,1,44.9,65.125c-5.122-8.76-8.944-19.365-12.953-30.494-1.117-3.1-2.248-6.242-3.464-9.489a8.083,8.083,0,0,1-.887-3.972h0a10.306,10.306,0,0,1,.894-4.325l.033-.068.037-.05a8.7,8.7,0,0,1,2.59-2.334h0a7.193,7.193,0,0,1,4.04-.973h0a7.36,7.36,0,0,1,3.963,1.5,9.476,9.476,0,0,1,2.479,2.847,116.087,116.087,0,0,1,10.6,19.55C54.088,41.49,55.875,45.9,57.6,50.419l0-.077ZM46.417,65.87a289.943,289.943,0,0,1,30.465-4.523c11.772-1.181,23.034-1.789,31.367-1.967-14.452-2.351-37.536,1.759-59.677,5.7l-2.211.393.057.395Zm65.67-5.148c-8.472.046-21.425.645-35.069,2.013a288.67,288.67,0,0,0-30.36,4.512,23.915,23.915,0,0,0,2,6.011,22.62,22.62,0,0,0,4.246,5.866l58.9-5.478c1.4-.782,2.1-2.621,2.263-4.711a14.914,14.914,0,0,0-.384-4.575,9.823,9.823,0,0,0-1.565-3.59l-.039-.048ZM29.306,18.673a10.013,10.013,0,0,0-.309,2.5h0a6.6,6.6,0,0,0,.713,3.3l.04.064.024.064c1.177,3.144,2.342,6.382,3.489,9.565C37.2,45.092,40.955,55.512,45.918,64.1L54.6,61.913c-2.347-7.708-4.746-14.871-7.359-21.7a213.241,213.241,0,0,0-8.981-20.386l-.017-.039c-1.622-3.743-3.693-3.565-5.6-2.736-.512.22-1.058.511-1.576.782a16.776,16.776,0,0,1-1.758.843Z" transform="translate(-18.088 -13.406)"/>
      </g>
    </g>
    <g id="Group_2363" data-name="Group 2363" transform="translate(246.324 1703.283)">
      <path id="Rectangle_4" data-name="Rectangle 4" d="M0,0H127.545V52.054H0Z" transform="translate(0)" fill="#c696ff"/>
      <text id="Collision" transform="translate(8.614 5.143)" font-size="14" font-family="Plus Jakarta Sans" font-weight="800" opacity="0.9"><tspan x="0" y="15">Hutton Leather</tspan></text>
      <text id="Collision-2" data-name="Collision" transform="translate(8.614 37.029)" font-size="7" font-family="Plus Jakarta Sans" font-weight="500"><tspan x="0" y="7">BACH</tspan></text>
      <text id="Collision-3" data-name="Collision" transform="translate(8.614 26.743)" font-size="7" font-family="Plus Jakarta Sans" font-weight="800"><tspan x="0" y="7">ARMCHAIR</tspan></text>
    </g>
    <g id="Group_2362" data-name="Group 2362" transform="translate(28.188 1736.829)">
      <path id="Rectangle_4-2" data-name="Rectangle 4" d="M0,0H149.231V52.054H0Z" transform="translate(0)" fill="#c696ff"/>
      <text id="Collision-4" data-name="Collision" transform="translate(8.614 5.143)" stroke="rgba(0,0,0,0)" stroke-miterlimit="10" stroke-width="1" font-size="14" font-family="Plus Jakarta Sans" font-weight="800" opacity="0.9"><tspan x="0" y="15">Sony SEL1635GM2</tspan></text>
      <text id="Collision-5" data-name="Collision" transform="translate(8.614 37.029)" stroke="rgba(0,0,0,0)" stroke-miterlimit="10" stroke-width="1" font-size="7" font-family="Plus Jakarta Sans" font-weight="500"><tspan x="0" y="7">HOME</tspan></text>
      <text id="Collision-6" data-name="Collision" transform="translate(8.614 26.743)" stroke="rgba(0,0,0,0)" stroke-miterlimit="10" stroke-width="1" font-size="7" font-family="Plus Jakarta Sans" font-weight="800"><tspan x="0" y="7">E MOUNT CAMERA LENS</tspan></text>
    </g>
    <g id="Group_2364" data-name="Group 2364" transform="translate(115.664 1644.152)">
      <path id="Rectangle_4-3" data-name="Rectangle 4" d="M0,0H116.277V52.054H0Z" fill="#c696ff"/>
      <text id="Collision-7" data-name="Collision" transform="translate(8.614 5.143)" font-size="14" font-family="Plus Jakarta Sans" font-weight="800" opacity="0.9"><tspan x="0" y="15">Fisher Ranger</tspan></text>
      <text id="Collision-8" data-name="Collision" transform="translate(8.614 37.029)" font-size="7" font-family="Plus Jakarta Sans" font-weight="500"><tspan x="0" y="7">HOME</tspan></text>
      <text id="Collision-9" data-name="Collision" transform="translate(8.614 26.743)" font-size="7" font-family="Plus Jakarta Sans" font-weight="800"><tspan x="0" y="7">SKIS</tspan></text>
    </g>
  </g>
</svg>
