<svg xmlns="http://www.w3.org/2000/svg" width="155.999" height="142.062" viewBox="0 0 155.999 142.062">
  <g id="how-asset-vault-works" transform="translate(-4.368 -3595.986)">
    <g id="Group_2537" data-name="Group 2537" transform="translate(4.368 3595.986)">
      <path id="Path_7251" data-name="Path 7251" d="M1620.085,3724.781h-91.97a1.844,1.844,0,0,0-1.244.224c-4.333,2.233-5.3,8.656-7.575,12.625a.829.829,0,0,1-1.439-.823c2.51-4.379,3.226-10.682,8.255-13.272,5.92-3.051,12.82-19.8,15.108-25.878,1.833-4.874,4.606-9.011,7.165-13.47,3.82-6.656-3.775-10.479-7.685-4.092a89.258,89.258,0,0,1-6.11,8.968c-2.925,3.669-7.6,8.57-12.857,8.31q.132.272.278.529a.827.827,0,0,1-1.439.817,13.11,13.11,0,0,1-1.149-2.767,20.462,20.462,0,0,1-.67-3.357c-1.5-12.545,2.41-18.26,5.447-22.7.465-.68.909-1.329,1.308-1.97l.024-.036v-9.216a78.1,78.1,0,0,0-13.384,15.985c-6.2,9.809-7.182,14.986-7.9,25.956-.633,9.733-1.43,21.995-6.678,30.939a.827.827,0,0,1-1.426-.836c5.047-8.6,5.83-20.646,6.451-30.206.731-11.241,1.806-16.7,8.148-26.734a78.694,78.694,0,0,1,14.784-17.3v-57.905a2.588,2.588,0,0,1,2.583-2.582h91.97a2.588,2.588,0,0,1,2.582,2.582V3656.6a78.853,78.853,0,0,1,14.634,17.173c6.342,10.036,7.417,15.494,8.148,26.734.622,9.56,1.4,21.605,6.452,30.206a.827.827,0,0,1-1.426.836c-5.248-8.945-6.045-21.206-6.678-30.938-.713-10.971-1.7-16.148-7.9-25.957a78.246,78.246,0,0,0-13.234-15.85v9.318c.366.576.765,1.16,1.182,1.769,5.261,7.692,7.519,17.042,4.737,26.188a12.758,12.758,0,0,1-1.229,2.844.827.827,0,0,1-1.42-.849q.2-.338.38-.7c-4.081.2-7.6-2.582-10.266-5.34a70.638,70.638,0,0,1-8.7-11.938c-3.91-6.387-11.5-2.564-7.685,4.092,2.559,4.459,5.332,8.6,7.165,13.47,2.318,6.162,9.22,22.844,15.108,25.878,5.029,2.591,5.745,8.893,8.255,13.272a.829.829,0,0,1-1.439.823c-2.274-3.969-3.242-10.392-7.575-12.625C1620.7,3724.756,1620.883,3724.781,1620.085,3724.781Zm-77.883-36.95a.5.5,0,0,1-.537.836l-1.391-.9a.5.5,0,0,1,.536-.836Zm5.06-5.982a.5.5,0,0,1,.926.362,4.75,4.75,0,0,1-1.691,2.312,3.668,3.668,0,0,1-4.224-.342,2.237,2.237,0,0,1-.879-2.377.5.5,0,0,1,.969.221,1.3,1.3,0,0,0,.528,1.379,2.685,2.685,0,0,0,3.057.291A3.8,3.8,0,0,0,1547.262,3681.848Zm-21.729,6.1a18.022,18.022,0,0,0-2.784,2.433c-1.415,1.56-2.333,3.157-1.689,5.252a7.55,7.55,0,0,0,4.474-.733Zm-5.232,2.911a11.827,11.827,0,0,1,1.223-1.587,21.172,21.172,0,0,1,4.01-3.333V3679.5a21.581,21.581,0,0,0-3.4,5.021A16.505,16.505,0,0,0,1520.3,3690.864Zm-.113-6.1q.218-.5.457-.978a21.36,21.36,0,0,1,4.889-6.574v-6.332C1523.359,3674.057,1520.73,3677.934,1520.187,3684.762Zm9.169,38.359h89.337c-5.594-5.492-10.683-17.626-13.413-24.883-1.795-4.771-4.547-8.86-7.055-13.23-4.888-8.519,5.49-14.021,10.536-5.777a69.123,69.123,0,0,0,8.482,11.652,21.764,21.764,0,0,0,3.765,3.183v-43.481l-14.285-14.284v-33.353c0-5.769-4.323-5.3-8.908-5.3h-69.7a.928.928,0,0,0-.923.923v95.4a28.17,28.17,0,0,0,6.1-5.937,87.749,87.749,0,0,0,5.994-8.8c5.046-8.244,15.424-2.741,10.536,5.777-2.508,4.37-5.26,8.46-7.055,13.23C1540.04,3705.5,1534.951,3717.63,1529.357,3723.121Zm77.027-34.456a.5.5,0,0,1-.536-.836l1.391-.9a.5.5,0,0,1,.537.836Zm-6.522-6.456a.5.5,0,0,1,.925-.362,3.8,3.8,0,0,0,1.314,1.845c1.214.806,3.939.067,3.585-1.67a.5.5,0,0,1,.968-.221c.592,2.662-3.155,4.013-5.1,2.719A4.749,4.749,0,0,1,1599.862,3682.21Zm22.805,3.833a17.494,17.494,0,0,1,5.083,4.822c-.174-3.824-2.53-8.391-5.083-11.2Zm0,2.019v6.913a7.483,7.483,0,0,0,4.325.664C1627.976,3692.426,1625.01,3689.777,1622.667,3688.061Zm0-10.723a22.081,22.081,0,0,1,5.2,7.425,25.815,25.815,0,0,0-5.2-13.666Z" transform="translate(-1496.025 -3595.985)"/>
    </g>
  </g>
</svg>
