<svg xmlns="http://www.w3.org/2000/svg" width="360.001" height="156.295" viewBox="0 0 360.001 156.295">
  <g id="timely-reminders-for-renewals" transform="translate(-20 -1588.783)">
    <g id="noun-vehicle-5355594" transform="translate(20 1635.816)">
      <g id="Group_2262" data-name="Group 2262" transform="translate(0 0)">
        <path id="Path_6757" data-name="Path 6757" d="M78.266.364l11.128.4c13.375.452,30.46,1.1,30.744,1.18.758.2,3.867,2.6,7.022,5.413,1.508,1.348,5.114,5.058,6.443,6.63a82.213,82.213,0,0,1,16.286,29.546c.343,1.18.381,1.273.575,1.228a2.467,2.467,0,0,1,.732.06c1.807.362,3.348,2.3,4.039,5.084a7.1,7.1,0,0,1,.205,2.494,6.875,6.875,0,0,1-.243,2.333,4.312,4.312,0,0,1-2.762,3.151c-.138.041-.157.2-.187,1.4-.022.743-.071,1.758-.116,2.262l-.071.907,1.12-.026c1.273-.034,1.575.056,1.848.526a1.046,1.046,0,0,1,.03,1.083c-.295.534-.213.526-6.768.758-6.768.228-6.133.265-7.01-.407-.381-.291-.515-.5-1.445-2.244a13.585,13.585,0,0,0-4.076-4.61,13.333,13.333,0,0,0-7.242-2.96,10.707,10.707,0,0,0-10.209,4.722,7.721,7.721,0,0,0-1.318,4.573l-.022,1.247-.306.3a1.3,1.3,0,0,1-.631.343c-.467.056-72.813.526-73.306.47-.549-.063-.821-.28-1.273-1.012a30.018,30.018,0,0,0-2.927-4A19.741,19.741,0,0,0,35.1,58.49a13.771,13.771,0,0,0-10.8-1.247,14.857,14.857,0,0,0-5.767,3.949A8.914,8.914,0,0,0,16.6,65.336a6.957,6.957,0,0,1-.455,1.336c-.377.6-.2.594-7.007.444l-6.129-.138-.646-.314c-1.161-.579-1.195-.7-1-3.4a25.221,25.221,0,0,1,.6-4.689l.269-1.112-.5-.47A5.823,5.823,0,0,1,.6,50.289a6.518,6.518,0,0,1,1.519-1.822,5.849,5.849,0,0,1,3.21-1.31c.183,0,.314-.131.672-.709,2.124-3.389,5.439-6.017,11.161-8.836a39.5,39.5,0,0,1,13.827-4.2,44.711,44.711,0,0,0,5.521-.78,27.146,27.146,0,0,0,4.117-1.079c.478-.194.631-.422,2.143-3.151,2.139-3.867,3.546-6.171,7.107-11.6a82.426,82.426,0,0,1,6.734-9.317,61.685,61.685,0,0,1,5.222-5.1A11.088,11.088,0,0,1,66.25.152c1.023-.213.519-.22,12.016.213h0ZM65.925,2.354c-1.3.515-2.3,1.258-4.547,3.382C57.9,9,56.044,11.365,51.456,18.387,48.321,23.176,46.783,25.7,45,28.9c-1.6,2.893-1.937,3.431-2.385,3.815-.791.664-2.561,1.329-5.274,1.96a28.177,28.177,0,0,1-4.9.78A37.5,37.5,0,0,0,18.88,39.209C13.493,41.74,10,44.364,8.036,47.317l-.161.235.664.358a5.7,5.7,0,0,1,1.624,8.56,5.807,5.807,0,0,1-5.435,2.046,1.173,1.173,0,0,0-.467-.026c-.019.03-.134.485-.246,1a29.192,29.192,0,0,0-.5,4.36l-.071.926,5.525.153c3.039.082,5.547.127,5.584.09a7.886,7.886,0,0,0,.306-1.075,10.694,10.694,0,0,1,3.815-5.924,14.7,14.7,0,0,1,7-3.382,18.5,18.5,0,0,1,5.543.1,15.491,15.491,0,0,1,7.066,3.3,16.938,16.938,0,0,1,3.882,4.267l1.187,1.743.616.011c.328.007,16.421-.1,35.746-.231s35.16-.243,35.186-.243a4.461,4.461,0,0,0,.127-1.008,8.86,8.86,0,0,1,1.2-3.935,10.76,10.76,0,0,1,2.236-3.012,11.631,11.631,0,0,1,5.928-3.039,15.914,15.914,0,0,1,6.346.1,16.208,16.208,0,0,1,6.514,3.214,15.381,15.381,0,0,1,4.789,5.693c.3.582.575,1.09.612,1.127s1.53.007,3.318-.052,3.419-.119,3.621-.116l.366,0,.078-2.281c.041-1.243.041-2.4.007-2.553-.034-.194-.2-.4-.53-.661a8.266,8.266,0,0,1-2.494-4.9,12.15,12.15,0,0,1,.075-3.811,4.873,4.873,0,0,1,.851-1.952c.362-.28.347-.47-.093-1.99a72.918,72.918,0,0,0-3.169-8.743l-.72-1.665L141.8,34c-1.183,0-20.456-.093-42.82-.187s-41.577-.2-42.674-.22a7.189,7.189,0,0,1-2.27-.179,6.122,6.122,0,0,1-1.254-2.587,7.651,7.651,0,0,1-.161-2.43,12.526,12.526,0,0,1,.9-4.886c2.165-6.23,7.958-13.218,14.551-17.552a8.128,8.128,0,0,0,1.254-.941,1.4,1.4,0,0,1,.448-.377c.276-.131,1.045-.127,9.519.06l9.213.209.579.332c.963.549.888-.526.791,11.128-.045,5.588-.09,11.3-.1,12.662l-.019,2.5.53.007.541.011-.022-2.273c-.007-1.247-.019-7.641-.03-14.211S90.745,3.089,90.715,3.06C90.663,3,72.36,2.3,68.542,2.208c-2.008-.045-2.161-.041-2.617.146h0ZM92.958,3.705c0,.586.037,27.807.052,27.855a2.921,2.921,0,0,0,.6.037c.541.011.6-.007.545-.157-.078-.209-.612-26.287-.545-26.552a1.448,1.448,0,0,1,.284-.463c.179-.205.317-.258.892-.314.426-.037,4.479.119,10.612.392,5.465.254,10.657.474,11.538.5l1.6.045.287.291a1.172,1.172,0,0,1,.329.608c.022.175.045,5.611.067,12.087s.041,12.2.06,12.711l.037.944.384.007.384,0-.026-.623c-.011-.34-.175-6.544-.358-13.793s-.358-13.2-.377-13.222c-.037-.026-22.039-.859-24.969-.937l-1.392-.034-.011.612h0Zm28.653,2.938c.019.571.179,6.436.343,13.047s.317,12.016.317,12.016c.019.026,20.531.108,20.561.082.007-.007-.179-.4-.426-.87a82.811,82.811,0,0,0-10.138-15.1c-1.336-1.594-4.927-5.338-6.424-6.7C124.62,8,121.776,5.632,121.656,5.62a3.218,3.218,0,0,0-.045,1.023ZM95.78,7.237c.078,1.919.47,22.439.455,23.42l-.019,1,.429-.037c.25-.022,4.912-.015,10.381.03s9.967.049,10,.011c.056-.045,0-24.38-.067-24.428-.019-.019-18.978-.9-20.37-.948l-.851-.026.037.982ZM70.49,6.916a6.68,6.68,0,0,1-.873.642c-7.063,4.577-13.1,12.248-14.577,18.5a17.907,17.907,0,0,0-.261,3.431c.1.239.291.071,1.691-1.419a21.14,21.14,0,0,1,1.56-1.557l.25-.168-.3-.564c-.4-.743-.411-1.191-.037-1.531a.8.8,0,0,1,.664-.239c.642.015,1.053.541,2.034,2.587a15.274,15.274,0,0,1,.862,1.993,1.076,1.076,0,0,1-1.03,1.228c-.44-.007-.765-.3-1.056-.926l-.273-.594-1.213,1.236A21.012,21.012,0,0,1,56.3,31.079l-.418.306,1.639.026c1.844.034,30.031.161,30.061.134s.175-24.361.134-24.432c-.03-.049-3.554-.149-8.545-.235l-8.5-.153-.179.19h0Zm79.626,40.222c-.295.175-.448.429-.728,1.213a7.286,7.286,0,0,0,.06,4.536,5.544,5.544,0,0,0,1.239,2.288c1.045,1.079,1.971.582,2.452-1.321a9.261,9.261,0,0,0-.082-3.6c-.515-1.945-1.7-3.468-2.553-3.281a1.628,1.628,0,0,0-.388.168ZM4.366,49.624a2.96,2.96,0,0,0-1.732,1.564,2.662,2.662,0,0,0-.388,1.642,2.6,2.6,0,0,0,.224,1.441A3.526,3.526,0,1,0,6.8,49.512a4.218,4.218,0,0,0-2.43.112Z" transform="translate(-0.007 -0.01)" fill-rule="evenodd"/>
        <path id="Path_6758" data-name="Path 6758" d="M57.341,151.076a10.366,10.366,0,0,1,.19,20.225,7.441,7.441,0,0,1-2.542.19,7.4,7.4,0,0,1-2.561-.291,10.7,10.7,0,0,1-5.342-3.543,10.372,10.372,0,0,1-1.329-10.743,10.523,10.523,0,0,1,6.368-5.611A10.9,10.9,0,0,1,57.341,151.076Zm-4.17,2.206a8.123,8.123,0,0,0-6.129,7.779,8.023,8.023,0,0,0,3.479,6.831,7.741,7.741,0,0,0,4.864,1.445,8.048,8.048,0,0,0,6.57-3.557,8.237,8.237,0,0,0,.381-8.534,9.8,9.8,0,0,0-2.288-2.606,8.948,8.948,0,0,0-2.762-1.321c-.373-.09-.732-.187-.776-.205a13.019,13.019,0,0,0-1.374-.026A7.4,7.4,0,0,0,53.172,153.283Z" transform="translate(73.167 -94.548)" fill-rule="evenodd"/>
        <path id="Path_6759" data-name="Path 6759" d="M64.7,164.734a5.13,5.13,0,0,1,4.125,5.073,5.077,5.077,0,0,1-3.8,4.816,6.759,6.759,0,0,1-2.654-.045,5.149,5.149,0,0,1-3.509-3.729,5.037,5.037,0,0,1,4.786-6.144,8.251,8.251,0,0,1,1.053.03Zm-2.113,2.408a3.327,3.327,0,0,0-1.5,1.613,3.106,3.106,0,0,0,.153,2.266,2.842,2.842,0,0,0,5.36-1.049,2.516,2.516,0,0,0-.65-2.064A2.579,2.579,0,0,0,63.7,166.9a2.411,2.411,0,0,0-1.112.246h0Z" transform="translate(64.698 -103.223)" fill-rule="evenodd"/>
        <path id="Path_6760" data-name="Path 6760" d="M323.991,156.386a10.366,10.366,0,0,1,.19,20.225,13.653,13.653,0,0,1-5.1-.1,10.692,10.692,0,0,1-5.342-3.543,10.372,10.372,0,0,1-1.329-10.743,10.523,10.523,0,0,1,6.368-5.611,10.9,10.9,0,0,1,5.215-.228Zm-4.17,2.206a8.123,8.123,0,0,0-6.129,7.779,8.03,8.03,0,0,0,3.475,6.831,7.781,7.781,0,0,0,4.868,1.445,8.048,8.048,0,0,0,6.57-3.558,8.237,8.237,0,0,0,.381-8.533,9.749,9.749,0,0,0-2.288-2.606,8.951,8.951,0,0,0-2.762-1.321c-.373-.09-.732-.187-.776-.209s-.668-.03-1.374-.022A7.406,7.406,0,0,0,319.822,158.592Z" transform="translate(-293.02 -97.876)" fill-rule="evenodd"/>
        <path id="Path_6761" data-name="Path 6761" d="M331.348,170.041a5.137,5.137,0,0,1,4.125,5.077,5.077,5.077,0,0,1-3.8,4.815,6.757,6.757,0,0,1-2.654-.045,5.149,5.149,0,0,1-3.509-3.729,5.033,5.033,0,0,1,4.785-6.144,9.3,9.3,0,0,1,1.053.026Zm-2.116,2.411a3.337,3.337,0,0,0-1.493,1.613,3.106,3.106,0,0,0,.153,2.266,2.843,2.843,0,0,0,5.36-1.049,2.515,2.515,0,0,0-.65-2.064,2.579,2.579,0,0,0-2.255-1.012,2.392,2.392,0,0,0-1.116.246Z" transform="translate(-301.489 -106.551)" fill-rule="evenodd"/>
        <path id="Path_6762" data-name="Path 6762" d="M106.933,113.01a1.055,1.055,0,0,1,.078,1.915,15.082,15.082,0,0,1-3.513.093c-3.535-.034-3.528-.034-3.83-.564a.993.993,0,0,1,.411-1.456,37.863,37.863,0,0,1,6.854.011h0Z" transform="translate(10.712 -70.726)" fill-rule="evenodd"/>
        <path id="Path_6763" data-name="Path 6763" d="M220.184,110.99a1.053,1.053,0,0,1,.075,1.915,15.031,15.031,0,0,1-3.509.093c-3.535-.034-3.528-.034-3.83-.564a.993.993,0,0,1,.411-1.456,37.868,37.868,0,0,1,6.854.011h0Z" transform="translate(-144.814 -69.461)" fill-rule="evenodd"/>
      </g>
    </g>
    <g id="noun-calendar-4998851" transform="translate(235.73 1588.783)">
      <path id="Path_4991" data-name="Path 4991" d="M57.289,11.981V6.211H51.3v5.77H26.621V6.211H20.632v5.77H6v60.3H62.329L72.623,61.988V11.981ZM52.607,7.517h3.376V17.75H52.607Zm-30.669,0h3.376V17.75H21.938V7.517ZM59.117,27.685h12.2v33.38H61.405v9.911H7.306V27.685ZM27.02,48.192h7.726V49.5H27.02Zm-12.759.485h7.726v1.306H14.261Zm0,9.13h7.726v1.306H14.261Zm12.759-.485h7.726v1.306H27.02Zm27.625-9.13h7.726V49.5H54.645Zm0,9.13h7.726v1.306H54.645Zm-13.929,0h7.726v1.306H40.716Zm0-9.13h7.726V49.5H40.716ZM58.65,38.347l2.24-2.289.934.913-2.25,2.3,2.245,2.245-.924.924L58.66,40.2l-2.226,2.275-.934-.913,2.236-2.285-2.3-2.3.924-.924ZM41.5,41.516l2.387-2.387-2.271-2.269.924-.924,2.271,2.269,2.152-2.152.924.924-2.152,2.152L48.007,41.4l-.924.924-2.269-2.269-2.387,2.387Zm-13.715.119,2.318-2.359-1.947-1.948.924-.924,1.939,1.939,2.245-2.286.933.916-2.254,2.294,2.6,2.6-.924.924L31.029,40.2,28.72,42.55ZM69.748,18.57H68.609V17.264h1.139ZM67.39,16.062H66.25V14.756H67.39Zm2.359-.019H68.609V14.736h1.139Z" transform="translate(-6 -6.211)"/>
    </g>
    <g id="Group_2369" data-name="Group 2369" transform="translate(128.229 1606.207)">
      <rect id="Rectangle_161" data-name="Rectangle 161" width="89.888" height="56.048" transform="translate(0)" fill="#effb47"/>
      <text id="Collision" transform="translate(8.768 6.874)" font-size="14" font-family="Plus Jakarta Sans" font-weight="800" opacity="0.9"><tspan x="0" y="15">WOF due</tspan></text>
      <text id="Collision-2" data-name="Collision" transform="translate(8.768 39.656)" font-size="7" font-family="Plus Jakarta Sans" font-weight="500"><tspan x="0" y="7">SUBARU OUTBACK</tspan></text>
      <text id="Collision-3" data-name="Collision" transform="translate(8.768 29.081)" font-size="7" font-family="Plus Jakarta Sans" font-weight="800"><tspan x="0" y="7">31-10-2024</tspan></text>
    </g>
    <g id="noun-dog-1357417" transform="translate(319.166 1619.955)">
      <path id="Path_5394" data-name="Path 5394" d="M42.162,121.221c5.755,0,11.511.137,17.266,0,5.344-.137,10.414.137,15.348,2.193a7.482,7.482,0,0,1,3.289,2.467c1.233,1.644.822,2.741-1.1,3.152a7.945,7.945,0,0,1-4.385,0c-6.3-2.055-12.607-1.644-19.048-.959a114.849,114.849,0,0,1-15.348.411,9.417,9.417,0,0,1-6.989-4.111c-2.467-3.426-2.741-7.537-3.7-11.511,1.1-2.467.411-5.07.411-7.537,0-6.03-.137-11.922.685-17.814a28.357,28.357,0,0,1,1.37-5.892c1.507-3.974,2.878-8.085,4.111-12.059a64.484,64.484,0,0,1,4.248-10,13.121,13.121,0,0,1,4.659-5.207c4.8-3.289,9.455-6.578,14.388-9.592,2.878-1.781,5.892-3.289,8.359-5.755.685-.685,2.055-1.1,2.055-2.33,0-2.056.822-4.111-.137-6.029-.548-1.1-1.233-2.33-1.781-3.426-1.507-2.6-4.111-3.015-6.441-1.1-.822.685-1.644,2.193-2.878,1.37-1.37-.822-.411-2.33-.137-3.426a20.711,20.711,0,0,1,10.14-12.607,8.74,8.74,0,0,1,5.892-1.233,35.9,35.9,0,0,0,3.837.137,3.989,3.989,0,0,0,4.111-2.6c.822-2.33,3.015-2.467,4.659-3.426a1.493,1.493,0,0,1,1.507.274,5.122,5.122,0,0,1,1.507,5.481A20.168,20.168,0,0,1,81.9,18.993a5.489,5.489,0,0,0-1.781,6.578c1.644,4.659,3.015,9.592,4.522,14.389a26.65,26.65,0,0,1-2.6,21.651,52.453,52.453,0,0,0-7.126,24.666,59.955,59.955,0,0,0,.959,15.622c.685,2.878,2.193,5.344,5.481,6.029a4.908,4.908,0,0,1,1.507.548c2.6,1.1,3.7,2.878,3.015,5.207-.685,2.741-2.6,4.248-5.481,3.7-1.781-.274-3.837,0-5.481-1.37-.685-.548-1.507-.411-2.055.685-1.1,2.193-2.878,3.015-5.344,3.152a186.994,186.994,0,0,1-19.6.274A6.344,6.344,0,0,0,42.162,121.221Zm39.191-8.907c.137.411.137.822.411,1.1.137.274.274.822.822.685a1.039,1.039,0,0,0,.548-.274c.274-.685-.137-.959-.548-1.233-.548-.137-.822-.411-1.233-.274,0-1.37-.411-2.467-1.918-2.878-3.974-1.1-5.481-4.248-6.029-7.948a86.489,86.489,0,0,1-.548-19.733,41.339,41.339,0,0,1,6.852-20.692,22.06,22.06,0,0,0,3.563-11.785c0-.959.137-1.918-1.1-2.33-2.467-.822-4.385-2.6-6.3-4.385-2.056-1.781-4.8-1.918-7.263-2.33-1.37-.274-2.467,1.507-3.7,2.33a24.216,24.216,0,0,1-2.33,1.644c-5.344,2.467-10,6.167-14.937,9.181-2.741,1.644-5.618,3.7-7.126,6.852s-3.289,6.167-4.111,9.729c-.411,1.918-1.37,3.563-1.781,5.481-.822,3.563-2.741,6.715-3.426,10.278-.822,5.207-1.918,10.552-1.233,15.9a30.879,30.879,0,0,1,0,3.563,71.048,71.048,0,0,0,1.1,13.155,10.244,10.244,0,0,0,10.277,8.222c5.07-.274,10-.548,15.074-1.1,3.974-.411,8.085-.685,12.059.274,2.193.548,4.385,1.37,6.852,1.1a3.653,3.653,0,0,0-2.055-1.781,24.325,24.325,0,0,0-10.277-2.193c-6.3.274-12.607.274-18.91.274a27.38,27.38,0,0,1-4.8-.274c-1.507-.274-1.918-1.233-1.1-2.6a3.508,3.508,0,0,1,1.781-1.37c2.6-.959,5.207-1.918,8.085-1.644,3.837.274,7.674.137,11.511.137h4.8c.959,0,1.781-.274,1.37-1.507-.137-.548-.685-1.233.137-1.644.822-.274,1.1.411,1.37.959.274.274.411.685.959.685,0-1.233-1.37-1.918-1.233-3.152.137-.685-.685-.822-1.233-.822-3.289.274-6.578-.822-9.866,0a15.179,15.179,0,0,1-2.6.274c-1.507,0-2.193-1.1-1.781-2.741a19.071,19.071,0,0,1,.822-1.781c1.507-4.111,3.974-7.811,5.207-12.059,1.233-4.111,1.1-7.811-3.426-10.14a2.917,2.917,0,0,1-1.37-3.837c.685-1.644,7.811-5.755,9.729-5.618,2.741.274,3.974,1.233,4.522,4.111a63.258,63.258,0,0,1,.959,8.907c.274,6.03.959,12.2.822,18.226a3.934,3.934,0,0,0,1.918,3.7c1.507.959,2.6,2.33,4.659,2.193.685-.137,1.1.548,1.644.959a2.107,2.107,0,0,0,2.33.411C78.75,111.765,78.75,111.765,81.354,112.313Zm-27.818-1.918a38.924,38.924,0,0,1,10.277-.822c2.467.137,2.741-.137,2.741-2.6,0-4.8.137-9.592-.137-14.389a96.962,96.962,0,0,0-1.233-10.826c-.411-3.015-1.918-3.7-4.8-2.741a27.456,27.456,0,0,0-3.563,1.37c-2.467,1.37-2.6,2.467-.274,4.111,3.563,2.6,4.111,5.892,3.289,9.866a26.489,26.489,0,0,1-2.193,6.3C56.414,103.68,55.181,106.558,53.536,110.395ZM78.613,31.052c0-.822.137-1.233,0-1.507-2.33-5.481-1.233-10.141,3.563-13.977a7.4,7.4,0,0,0,2.878-5.207c-2.193-.959-3.426.822-4.933,1.233-1.644.411-3.289.822-5.07,1.233,1.37,1.233,1.507,2.467.274,3.7a2.3,2.3,0,0,1-2.878.411c-2.33-1.1-.685-2.878-.274-4.248-4.8,0-9.455,2.741-11.1,6.441,1.233-.274,1.644-2.33,3.152-1.507,1.644.959.822,2.33.685,3.7-2.6-1.1-2.6-1.1-3.152.959,3.015-.685,4.8,1.233,5.892,3.426a5.063,5.063,0,0,0,3.974,2.741A15.616,15.616,0,0,1,78.613,31.052Zm.274,10.415a41.631,41.631,0,0,1,1.644-5.481c-1.1.137-1.233.959-1.644,1.37a1.886,1.886,0,0,1-2.33.274,1.347,1.347,0,0,1,.137-2.193c1.507-1.507.274-2.193-.822-2.878-1.781-1.233-3.974-1.918-5.618-1.233-1.1.411-.548,2.878-.548,4.522v.685a1.811,1.811,0,0,0,1.644,2.193,8.8,8.8,0,0,1,4.111,1.507C76.558,40.645,77.38,41.467,78.887,41.467Z" transform="translate(-27.5 -4.217)"/>
      <path id="Path_5395" data-name="Path 5395" d="M60.808,30.085a2.12,2.12,0,0,1-1.781-2.741,4.807,4.807,0,0,1,.685-1.1c.411-.685.411-1.781,1.644-1.644a6.863,6.863,0,0,1,2.467,2.741C63.822,28.3,61.767,30.222,60.808,30.085Z" transform="translate(-15.861 3.328)"/>
    </g>
    <g id="Group_2368" data-name="Group 2368" transform="translate(210.351 1673.016)">
      <rect id="Rectangle_159" data-name="Rectangle 159" width="123.728" height="56.048" transform="translate(0)" fill="#effb47"/>
      <text id="Collision-4" data-name="Collision" transform="translate(8.768 5.288)" font-size="14" font-family="Plus Jakarta Sans" font-weight="800" opacity="0.9"><tspan x="0" y="15">Check-up due</tspan></text>
      <text id="Collision-5" data-name="Collision" transform="translate(8.768 38.07)" font-size="7" font-family="Plus Jakarta Sans" font-weight="500"><tspan x="0" y="7">GREYHOUND</tspan></text>
      <text id="Collision-6" data-name="Collision" transform="translate(8.768 27.495)" font-size="7" font-family="Plus Jakarta Sans" font-weight="800"><tspan x="0" y="7">08-02-2024</tspan></text>
    </g>
    <g id="noun-bell-1063121" transform="translate(312.495 1594.742)">
      <g id="Group_605" data-name="Group 605" transform="translate(0 0)">
        <g id="Group_604" data-name="Group 604">
          <path id="Path_269" data-name="Path 269" d="M33.083,17.315C32.755,13.8,30.438,11.9,27.867,10.2a2.074,2.074,0,0,0-1.58-3.161h-.316c-1.039.265-2.2,1-1.9,2.371a5.482,5.482,0,0,0-3.319.948.432.432,0,0,0,0-.632c.032.878-1.881.236-1.738,1.58-.171-.04-.107-.314-.316-.316.032.67-1.164.934-.79,1.422-2.251,1.079-2.88,4.862-2.371,7.112-.3-.119-.11-.471-.474-.158a36.55,36.55,0,0,1-1.58,7.9,8.945,8.945,0,0,0-2.371,3.319c-3,1.711,1.247,2.712,2.529,3,1.5-.282,3.914,1.036,5.057.632.1.414,1.216.232,1.9.474-1.387,2.622-.293,5.09,2.213,5.848h1.106a3.571,3.571,0,0,0,2.845-4.9c1.878.23,3.4.81,5.531.79a1.124,1.124,0,0,1,.315-.474c-.545-2.089-1.255-4.013-1.738-6.164C30.943,25.842,33.463,21.378,33.083,17.315Zm-6.8-8.692c.061,1.671-1.264.346,0,0Zm-1.738,29.4a.15.15,0,0,1,0-.084c-1.438.639-3.294-.473-1.893-2.761C24.205,34.123,26.989,37,24.549,38.018ZM30.08,25.059c-.784-.082.211,2.477-1.106,2.844-.181.655.333.616.315,1.107a.742.742,0,0,0-.474-.158c.583.35-.2,1.216.632,1.422-.923,1.074.216,2.2.474,3.793-5.844-.833-10.961-1.954-16.753-2.845,3.259-2.934,3.439-7.161,4.109-11.7.287-1.945.253-3.944,1.106-5.215,3.389-5.046,13.458-3.717,13.434,3.951C31.811,20.854,30.243,22.285,30.08,25.059Z" transform="translate(-8.27 -7.042)" fill-rule="evenodd"/>
          <path id="Path_270" data-name="Path 270" d="M32.053,53.916c.055-.024.109-.045.163-.074C32.156,53.875,32.072,53.857,32.053,53.916Z" transform="translate(-15.779 -23.024)" fill-rule="evenodd"/>
          <path id="Path_271" data-name="Path 271" d="M10.817,25.281c.9-.844-.082-2.02-.632-2.529.149-.533.236-.028.316-.474a6.52,6.52,0,0,1-.316-6.954c.637-1.071,2.215-2.15.316-3-2.386.954-2.623,3.7-3.161,6.164V20.54C8.365,22.255,8.492,24.867,10.817,25.281Z" transform="translate(-7.34 -8.845)" fill-rule="evenodd"/>
          <path id="Path_272" data-name="Path 272" d="M51.172,12.8c-.271.151-.318.525-.632.632.437.864.483,2.3.948,1.58.115.431-.314.318-.315.632,1.033.57.67,1.957,1.58,2.371-.671.1-.173,1.04-.157,1.422.1,2.718-2.6,4.241-1.739,6.322,1.649.356,2.678-1.734,3.162-3.161C55.192,19.122,54.014,13.66,51.172,12.8Z" transform="translate(-22.092 -9.009)" fill-rule="evenodd"/>
        </g>
      </g>
    </g>
  </g>
</svg>
