<svg xmlns="http://www.w3.org/2000/svg" width="288.975" height="86.189" viewBox="0 0 288.975 86.189">
  <g id="transforming-personal-asset-management" transform="translate(-77.211 -104.428)">
    <g id="noun-houses-2609992" transform="translate(77.211 104.428)">
      <g id="Group_2425" data-name="Group 2425" transform="translate(0 0)">
        <path id="Path_7103" data-name="Path 7103" d="M181.773,79.124a3.618,3.618,0,0,0,.368-3.572,10.144,10.144,0,0,1-.478-6.526,6.3,6.3,0,0,0,.045-1.591,5.318,5.318,0,0,0-1.621-3.824,7.941,7.941,0,0,1-2.769-4.541,6.128,6.128,0,0,0-.806-1.768,4.837,4.837,0,0,0-2.477-2.18c-3.572-1.223-9.334,1.283-7.928,6.491a2.9,2.9,0,0,1-1.665,3.5,25.989,25.989,0,0,1-2.22-2.4c-2.319-3.2-4.568-6.455-6.844-9.688-.611-.868-1.286-1.7-1.826-2.607q-2.623-4.423-5.158-8.9a24.076,24.076,0,0,1-1.465-3.016,1.708,1.708,0,0,0-.452-.662c-16.96,1.584-34.093-.425-51.132-.789-.218,0-.407-.051-.612-.074a3.331,3.331,0,0,0-1.692,1.731,8.414,8.414,0,0,1-.868,1.354c-.018.037-.027.077-.046.113a55.934,55.934,0,0,1-3.274,5.589c-1.475,3.41-7.88,14.166-9.176,15.2-2.879-1.844-4.483-4.911-6.748-7.35-2.284-2.458-4.411-5.062-6.826-7.857l.012,0a5.7,5.7,0,0,1-1.046-1.491,6.788,6.788,0,0,1-.415-.614,5.546,5.546,0,0,1-.5-.628,15.627,15.627,0,0,1-3.22-3.921,1.877,1.877,0,0,0-2.055-1.243A4.256,4.256,0,0,1,58,37.817a4.063,4.063,0,0,1-4.023-3.129,40.12,40.12,0,0,0-2.15-4.834,3.216,3.216,0,0,0-1.647-1.466,1.887,1.887,0,0,1-.853-.54c-.086,0-.172,0-.258.008-.264.018-.526.043-.789.069l-.173.029a8.452,8.452,0,0,1-1.007.1,1.783,1.783,0,0,1-.595.284,5.848,5.848,0,0,0-4.382,4.83,2.686,2.686,0,0,1-2.678,2.319,29.576,29.576,0,0,1-9.492.118,2.063,2.063,0,0,0-2.291.863c-.931,1.18-2.072,2.194-3.284,3.444l0-.01a5.286,5.286,0,0,1-1.747,1.255c-.052.032-.091.075-.145.105-.1.084-.174.183-.271.266a2.625,2.625,0,0,1-.385.357c-.155.119-.307.24-.462.359l-.086.067c-3.746,2.887-7.459,5.818-11.2,8.712C7.65,52.9,5.188,54.731,2.793,56.543c.2,2.737.388,5.384.6,8.029q.852,10.779,1.729,21.557a1.619,1.619,0,0,0,1.829,1.9,10.954,10.954,0,0,0,1.41-.018c3.6-.057,7.2-.185,10.8-.146,2.713.03,5.424.38,8.137.4a38.357,38.357,0,0,1,10.52,1.155,4.918,4.918,0,0,0,2.279-.06,2.646,2.646,0,0,1,2.473.627c-.019,1.183-.04,2.468-.065,4.031l1.112-1.268A24.572,24.572,0,0,1,43.234,99l-.464-.017c.023-1.4.045-2.8.066-4.138-1.171.475-2.2.831-3.18,1.306a18.121,18.121,0,0,0-3.069,1.736,2.988,2.988,0,0,0-.839,4.068,7.7,7.7,0,0,0,6.736,3.733c1.115-.117,2.235-.181,3.352-.279a4.627,4.627,0,0,0,4.01-4.2,3.7,3.7,0,0,0-2.192-4.2,14.923,14.923,0,0,0-1.881-.96A1.4,1.4,0,0,1,44.64,94.5c.009-1.242.007-2.486.079-3.725a10.941,10.941,0,0,1,.311-1.626,39.267,39.267,0,0,0,4.911.4,10.061,10.061,0,0,0,4.879-1.952A4.7,4.7,0,0,1,56.9,86.83c1.99-.14,3.991-.11,5.987-.168,2.479-.072,4.958-.226,7.437-.225a20.852,20.852,0,0,1,5.071.247,46.729,46.729,0,0,1,.232,9.361,2.219,2.219,0,0,0,2.519,2.613c3.181-.111,6.358-.318,9.538-.437,1.646-.062,3.3.005,4.945-.035.937-.023,1.871-.208,2.806-.206,1.115,0,2.229.176,3.345.191,3.19.045,6.381.057,9.571.065,1.41,0,2.821-.009,4.23-.059,3.112-.11,6.223-.275,9.336-.363,1.828-.052,3.66.033,5.489,0,3.192-.059,6.392-.343,9.573-.2,4.078.18,8.137.341,12.224.124,3.057-.162,6.135.01,9.2.09,1.173.031,2.34.262,3.514.321a10.706,10.706,0,0,0,2.782-.088c1.258-.275,1.472-.775,1.283-2.066a14.125,14.125,0,0,1-.11-3.911l4.268.324c-.216,2.076-.439,4.221-.668,6.421a5.935,5.935,0,0,0,.986.722c1.217.559,1.919.094,1.936-1.277a12.307,12.307,0,0,0-.147-1.585,17.128,17.128,0,0,1,.29-4.814c1.376-.312,2.568-.65,3.784-.844a6.65,6.65,0,0,0,5.622-5.572,9.338,9.338,0,0,0-.427-3.478A3.138,3.138,0,0,1,181.773,79.124Zm-2.168-10.735-.53,2.406-.47-.09a1.947,1.947,0,0,1,1-2.315Zm-7.348-9.475-.245-1.01c1.38-1,1.413-.909,2.427.328a3.708,3.708,0,0,1,.83,2.357,4.94,4.94,0,0,0,2.327,3.778c.452.317.872.679,1.306,1.02l-.114.375a3.4,3.4,0,0,1-1.068.146,16.291,16.291,0,0,1-1.856-.554,1.485,1.485,0,0,0-1.643.2,1.548,1.548,0,0,1-.822.3c-.569.075-1.323.309-1.551-.391a2.813,2.813,0,0,1,.279-1.6c.369-1.024.891-2,1.195-3.039a2.688,2.688,0,0,0-.425-1.253,3.272,3.272,0,0,1-1.467,3.375,1.315,1.315,0,0,1-2.3-.968,3.823,3.823,0,0,1-.032-.706c.009-1.889.535-3.417,3.157-2.352ZM177.79,70.2c-1.257.714-1.257.714-1.663-.344l1.663.344Zm-9.531-7.055c.741.682,1.421,1.214,1.985,1.849,1.062,1.194,1.028,1.55,0,2.828a2.944,2.944,0,0,0-.3.6A2.524,2.524,0,0,1,167.8,68.4l-1.039-1.86Zm-4.537,6.875.413,1.128.4-.227c.044-.317.1-.633.13-.952.173-1.668.668-2.048,2.285-1.738.283.054.563.121.844.182a2.736,2.736,0,0,1,.6,1.026,1.521,1.521,0,0,1-.444,1.155A18.441,18.441,0,0,1,166,71.707c-.55.33-1.065.718-1.729,1.17l-.952-2.573Zm-1.188-3.931-1.618-2.868c2.016,1.72,2.055,1.794,1.618,2.868ZM161.158,68.1l-1.339-2.468C161.06,65.972,161.345,66.414,161.158,68.1Zm-1.267.236a5.451,5.451,0,0,1-1.934-3.226,5.612,5.612,0,0,1,1.934,3.226Zm-1.409-.23c-1.39-.211-1.39-.211-1.476-2.3Zm-1.166-10.51.581.73-.338.266-.476-.843Zm.56,7.381a9.456,9.456,0,0,1-1.1-1.236,37.651,37.651,0,0,1-3.786-7.876,58.013,58.013,0,0,1,4.886,9.112Zm-2.865,2.78-.351.261a7.122,7.122,0,0,1-2.769-5.462l3.119,5.2Zm-7.361-15.066a36.008,36.008,0,0,1,4.332,9.031,41.054,41.054,0,0,1-4.332-9.031Zm3.5,14.586a1.263,1.263,0,0,1-1.261-1.386,1.561,1.561,0,0,1,1.261,1.386Zm-2.072-4.257-.255-3.9.192-.1,1.892,4.209Zm-.563-14.583-.413.193-1.753-3.8a6.7,6.7,0,0,1,2.166,3.607Zm-.057,9.748a37.153,37.153,0,0,1-3.811-8.41,19.3,19.3,0,0,1,3.811,8.41Zm-.89,3.5a47.216,47.216,0,0,1-2.069-4.805,2.445,2.445,0,0,0-2.83-2.227l1.562,3.722-.46.2c-.917-1.433-1.259-3.156-2.192-4.689l2.4-1.659a32.506,32.506,0,0,1,3.587,9.462Zm-.233,3.436-.633-.167.579-.432Zm-1.949-2.554c-1.369.429-1.542-.477-1.854-1.573ZM143.43,51.536a7.026,7.026,0,0,1-1.49-3.366,3.1,3.1,0,0,1,1.49,3.366Zm-1.822-9.8.531,1.272-.274.127-.587-1.251Zm-.9,7.011L139.5,45.781a3.134,3.134,0,0,1,1.212,2.969Zm.7,7.77a18.357,18.357,0,0,1-2.829-6.186,11.9,11.9,0,0,1,2.829,6.186Zm-2.95-3.064a9.6,9.6,0,0,1,.82,1.887c.287.615.607,1.216.95,1.8.472.8,1.038,1.559,1.46,2.387a34.2,34.2,0,0,1,2.611,6.452l-.324.146c-.857-1.789-1.69-3.591-2.584-5.361a15.272,15.272,0,0,0-1.089-1.531,5.573,5.573,0,0,1-.678-1.175,10.107,10.107,0,0,0-1.911-3.309,14.167,14.167,0,0,1-1.637-3.7,28.134,28.134,0,0,1,2.382,2.4Zm-2.209,9.617,2.529,4.8c-1.023-.283-1.875-2.041-2.529-4.8Zm.337,4.731a1.041,1.041,0,0,1-.465.31,2.268,2.268,0,0,1-.248-.57,1.381,1.381,0,0,1,.433-.327,1.363,1.363,0,0,1,.281.587Zm-.253-6.956.348-.206,1.45,1.786a11.811,11.811,0,0,0-1.44-4.009.927.927,0,0,1,1.087.794,6.968,6.968,0,0,0,2.056,3.406,2.063,2.063,0,0,1-.665,1.679,7.456,7.456,0,0,0-.264,2.021Zm3.214-.4a6.268,6.268,0,0,1,1.969,3.775l-1.656-1.59Zm-4.52-18.79.465,1.3-.808-1.113Zm.093,2.591.417-1.168a7.548,7.548,0,0,1,.489,1.565,23.332,23.332,0,0,1-.018,2.533l-1.2.551a32.145,32.145,0,0,1-1.17-3c-.093-.322.428-.8.365-1.156-.131-.733-.465-1.43-.552-2.276l1.673,2.951Zm-2.757-2.03c-.85-.286-.779-.875-.785-1.739.68.554,1.208.867.785,1.739Zm-.076,3.179c.459,1.631,1.1,3.21,1.624,4.825a7.16,7.16,0,0,0,1.65,2.875,5.65,5.65,0,0,1,.775,1.744l-.324.279-1.972-1c.4-2.449-1.157-4.206-1.864-6.228-.4-1.146-.935-2.246-1.434-3.426a1.178,1.178,0,0,1,1.545.927Zm.723,8.092-.41.185-.688-2.081,1.1,1.9Zm-8.3-11.77,1.38-1.283,2.013.806-1.151.745.991,2.1.308-.043.211-1.446a32.816,32.816,0,0,1,3.361,8.772L129.454,46.4l-.351.094a9.127,9.127,0,0,0,.31,1.373c.448,1.155.967,2.283,1.426,3.434,1.312,3.289,2.621,6.58,3.9,9.883a15.859,15.859,0,0,1,.491,1.935l-.4.147a6.329,6.329,0,0,0-1.512-2.627,6.368,6.368,0,0,1-1.744-1.789l-.936.316c-2.065-5.28-4.575-10.342-6.631-15.983l1.533.687-.825-2.147ZM135.47,66.605a2.189,2.189,0,0,1-1.075-2.237,1.727,1.727,0,0,1,1.075,2.237Zm-2.286.075a2.077,2.077,0,0,1-.974-1.9,1.738,1.738,0,0,1,.974,1.9Zm-2.441-2.986a5.271,5.271,0,0,1-1.374-2.677,1.865,1.865,0,0,1,.364-.869,1.772,1.772,0,0,1,.835.409c.346.965,1.158,1.942.175,3.137Zm.43,3.45-1.323-.774.573-1.234.749,2.009ZM129.6,64.071a12.166,12.166,0,0,1-2.1-4.831,9.573,9.573,0,0,1,2.1,4.831Zm-5.738-22.533c-.888.007-.888.007-1.058-1.085a1.042,1.042,0,0,1,1.058,1.085Zm-7.827-.589-.118,1.2-.31.083-.909-2.1a1.387,1.387,0,0,1,1.338.822Zm-2.66-1.185c1.275.485.6,1.627,1.036,2.286.452.68.807,1.426,1.268,2.258l1.337-1.03-.973-2.317.014.02c.811-.971,1.118.283,1.7.394l.947-.658c.268.648.494,1.175.7,1.708a3.361,3.361,0,0,0,1.234,1.585,6.71,6.71,0,0,1,1.507,2.492c.31.63.441,1.347.746,1.98a1.587,1.587,0,0,0,.918.652c-.086-2.164-1.908-3.72-1.988-5.84a.8.8,0,0,1,1.134.62c.929,1.976,1.833,3.964,2.729,5.955.411.914.822,1.831,1.162,2.772a20.128,20.128,0,0,1,.511,2.035c-.791.364-1.35.39-1.617-.336-.3-.82-.477-1.684-.723-2.525-.139-.475-.308-.94-.464-1.41-.46.167-.92.333-1.379.5-.109.04-.214.089-.349.147l-3.181-4.179c-.933,1.245-.93,1.256,1.1,5.232a6.011,6.011,0,0,1,2.037.872,1.854,1.854,0,0,1,.212,2.208l-.975-.253a.976.976,0,0,0-.1.364,2.38,2.38,0,0,0,2.634,2.067,1,1,0,0,1,1.064.694c1.033,2.123,2.026,4.265,3.069,6.383.328.666.76,1.281,1.146,1.918l0,0a2.15,2.15,0,0,1-.661.183,14.214,14.214,0,0,1-.947-1.684c-.239-.5-.412-1.032-.7-1.761-1.174,1.413.231,2.3.128,3.47-1.878-1.029-1.863-3.388-3.6-4.669a16.833,16.833,0,0,0,1.833,4.927,1.413,1.413,0,0,1-1.318-1,12.956,12.956,0,0,0-2.8-3.509,6.8,6.8,0,0,1-2.106-5.11l.349-.167,1.62,2.871.4-.111a2.6,2.6,0,0,0,0-1.023,10.013,10.013,0,0,1-1.673-4.782,1.552,1.552,0,0,0-.594-.535,1.686,1.686,0,0,0-.477.617,7.831,7.831,0,0,0,.053,1.37l-1.805.487-1.086-3.07,1.181.675a9.964,9.964,0,0,1-.569-2.844,5.118,5.118,0,0,0-1.668-4.516,2.037,2.037,0,0,1-.361-.782c-.577-1.6-1.152-3.21-1.7-4.823a2.63,2.63,0,0,1,.045-.8Zm11.378,14.73-.424.134-.616-1.76A1.873,1.873,0,0,1,124.753,54.494Zm-1.915,10.842c.287.6.514,1.047.72,1.507.184.411.346.832.615,1.486l-1.071-.171c.3-.966-1.883-1.445-.265-2.822Zm-5.5-5.4a5.156,5.156,0,0,1-.155-1.322l.554-.136,3.623,8.719a3.163,3.163,0,0,1-1.208-.432Q118.691,63.378,117.34,59.94Zm1.692,8.6A2.443,2.443,0,0,1,116.5,68.5ZM115.97,56.171A11.879,11.879,0,0,1,114,51.4a6.406,6.406,0,0,1,1.967,4.773Zm-1.3-8.939a.54.54,0,0,1,.3-.255,2.543,2.543,0,0,1,.5.413l-.465.357a2.743,2.743,0,0,1-.334-.516Zm-2.834-2.123,1.6,4.1-.4.153-1.61-4.092Zm1.841,9.461-.448.184-.972-2.237.5-.236.915,2.29Zm-3.216-7.228.94,1.867c-.977-.6-.977-.6-.94-1.867Zm-.508,5.326a5.3,5.3,0,0,1,.737,1.011c.52,1.24,1,2.5,1.456,3.766s.841,2.562,1.327,3.817c.335.864.806,1.675,1.188,2.522.282.626.519,1.272.776,1.909l-.351.312a1.842,1.842,0,0,1-.742-.5,14.833,14.833,0,0,1-1.733-4.921,9.241,9.241,0,0,0-1.048-2.974c-.531-1.243-1.152-2.447-1.7-3.684a5.343,5.343,0,0,1-.232-1.1ZM113.478,67.5,112.7,65.92c.936.5.942.508.782,1.577Zm.031,1.028c-.645-.437-.647-.448-.032-.967Zm-5.4-25.261a1.854,1.854,0,0,0,1.156,1.893l-.291.267a2.739,2.739,0,0,1-1.031-.687,11.966,11.966,0,0,1-1.535-4.77,4.761,4.761,0,0,1,1.7,3.3Zm.848,6.754a10.558,10.558,0,0,1-2.067-4.238,6.425,6.425,0,0,1,2.067,4.238Zm-4.612-9.282-.313-1.451c.946.825.951.839.313,1.451Zm-1.153-1.071,1.137,1.087,0,0c-.015.224-.031.447-.07,1.009l-1.265-1.957Zm-1.326-.024c.126.575.094,1.189.25,1.753a21.119,21.119,0,0,0,.782,2.03l.859-.693c.761,1.378,1.6,2.661,2.2,4.046s.938,2.915,1.472,4.349c.508,1.367,1.122,2.694,1.75,4.183a2.05,2.05,0,0,0-.282.975,1.974,1.974,0,0,0,.679,1.373c1.649.7,1.519,2.409,2.2,3.635a4.343,4.343,0,0,1,.1,3.653,2.521,2.521,0,0,1-1.344-2.233,12.415,12.415,0,0,0-1.542-4.448,16.627,16.627,0,0,1-2.328-7.188.5.5,0,0,0-.037-.173c-.731-1.9-1.463-3.807-2.27-5.906l-.869,1.188-2.829-6.858c.7-.421,1.078-.282,1.209.315ZM107.2,59.505l.324-.123,2.807,5.831a13.924,13.924,0,0,1-3.131-5.707Zm1.5,6.394a7.7,7.7,0,0,1-2.416-4.961A11.665,11.665,0,0,1,108.7,65.9ZM98.669,39.681c.8,1.563,1.617,3.114,2.383,4.691,1.288,2.653,2.54,5.322,3.808,7.984a1.249,1.249,0,0,1-.345,1.739c-2.359-4.68-4.155-9.5-6.152-14.232Zm6.3,19.964-1.014-2.114a1.677,1.677,0,0,1,1.014,2.114Zm-1.321-3.8-.407.191-.781-1.917a2.78,2.78,0,0,1,1.188,1.726ZM101,50.185a8.273,8.273,0,0,1-2.056-4.467A11.617,11.617,0,0,1,101,50.185ZM96.964,39.275l.223.849-.2.073-.361-.782ZM78.516,62.587a5.785,5.785,0,0,1-2.436-2.907,3.828,3.828,0,0,1,2.436,2.907Zm-3.039-4.255a.616.616,0,0,1-.876-.62ZM68.641,50.3c1.769,2.053,3.554,4.094,5.3,6.166a5.6,5.6,0,0,1,.614,1.2A4.281,4.281,0,0,1,73.1,56.87c-2.068-2.576-4.065-5.208-6.076-7.829a1.568,1.568,0,0,1-.347-1.048c.654.768,1.3,1.539,1.963,2.3Zm4.595,15.8a4.8,4.8,0,0,1-1-.738q-2.489-3.1-4.913-6.242c-.894-1.164-1.739-2.366-2.582-3.568-1.214-1.731-2.379-3.5-3.625-5.2a4.931,4.931,0,0,0-1.329-1.069,1.8,1.8,0,0,1-.9-2.592,1.211,1.211,0,0,1,.449.211c1.79,2.249,3.652,4.446,5.325,6.78,2.127,2.967,4.091,6.051,6.149,9.067a2.189,2.189,0,0,0,1,.905A2.223,2.223,0,0,1,73.236,66.1ZM72.8,62.925l.228-.176.838,1.1L73.674,64Zm-4.108.159-.34.3-.593-.676.426-.347Zm-7.983.633.337-.193.4.742-.229.14Zm.291,5.5c-.1,1.015-.808,1.1-1.826.756l1.471-1.187ZM59.226,53.277a54.413,54.413,0,0,1,6.983,9.388,33.41,33.41,0,0,1-6.983-9.388Zm-.2,5.3,1.516,2.228C58.87,60.58,58.674,60.344,59.026,58.582Zm-.126-8.6a20.026,20.026,0,0,1,5.03,6.514l1.393,2.264a1.775,1.775,0,0,1-1.6-1.711,25.85,25.85,0,0,0-4.1-5.413A3.13,3.13,0,0,1,58.9,49.98Zm6.684,13.768,1.655,1.886c-1.429.506-1.709.243-1.655-1.886Zm1.407-12.394a8.939,8.939,0,0,1,2.637,3.354,5.144,5.144,0,0,1-2.637-3.354Zm1.133,5.227L66.629,54.4c1.615.262,1.828.561,1.494,2.184ZM63.232,43.694l2.222,2.662-.362.293-2.17-2.7Zm2.51,6.053a23.257,23.257,0,0,1-4.4-5.609,21.275,21.275,0,0,1,4.4,5.609Zm.48,3.545C63.437,50.271,61.5,47.08,59,43.932c1.657.64,6.84,7.347,7.219,9.36ZM58.654,39.544c.123.313.262.622.367.941.123.376.215.763.322,1.151A1.634,1.634,0,0,1,58.654,39.544Zm-.571,24.308-1.286.622.269.392,1.654-.631,1.98,3.282c-1.134.037-2.315-.756-3.085.79l-1.079-1.954-.961,1.323-2.611-.436c-.6-.8-.678-1.532.651-1.982l-1.069-.878a15.687,15.687,0,0,1,1.5-2.026,2.585,2.585,0,0,1,1.274-.207,7.709,7.709,0,0,1,.086,1.111,4.4,4.4,0,0,0-.043,1.25,4.585,4.585,0,0,0,1.4-2.487,1.783,1.783,0,0,1,1.318,1.83ZM29.451,87.077c-4.422-.212-8.841-.49-13.265-.67-2.119-.086-4.244-.007-6.366,0-.65,0-1.3.013-1.951-.014a1.41,1.41,0,0,1-1.513-1.405c-.083-.882-.213-1.76-.271-2.644-.2-3.061-.26-6.137-.6-9.181a74.648,74.648,0,0,1-.573-9.348,27.4,27.4,0,0,0-.333-4.228,4.108,4.108,0,0,1,1.882-4.092c1.359-1.04,2.681-2.13,4.023-3.193,4.122-3.264,8.256-6.513,12.364-9.8,1.7-1.356,3.349-2.772,5.009-4.176.887-.751,1.377-.683,1.955.295.539.912,1.128,1.8,1.651,2.717a6.325,6.325,0,0,1,.514,6.354,42.762,42.762,0,0,1-2.182,4.225,7.556,7.556,0,0,0-.556,6.032c.668,2.312-.623,3.554-1.8,4.98a1.7,1.7,0,0,1-1.139.293,11.012,11.012,0,0,0-1.757-.1,1.683,1.683,0,0,0-1.182.793c-.134,2.45-.132,4.908-.172,7.376l2.026.514c-.3,1.288-1.657,2.285-.608,3.767a1.616,1.616,0,0,0-1.273,2.012,25.056,25.056,0,0,1,.044,3.185c.058,1.5.313,1.731,1.774,1.805.53.027,1.059.073,1.587.13,1.528.166,1.659.068,1.951-1.449a3.856,3.856,0,0,1,.384-.705,2.724,2.724,0,0,1,.258.612,4.716,4.716,0,0,0,3.054,4.011,5.867,5.867,0,0,1,1.285,1.284,9.487,9.487,0,0,1-4.222.616Zm-2.364-6.21-2.2.489c.025-1.558.043-2.712.062-3.868C27.121,77.212,27.561,77.872,27.087,80.867ZM24.674,70.2a11.264,11.264,0,0,1,.012-4.975,1.108,1.108,0,0,1,.829-.658,1.742,1.742,0,0,1,1.148.85,15.171,15.171,0,0,1-.061,3.679,1.527,1.527,0,0,1-1.929,1.1Zm6.871,11.158a.807.807,0,0,1,.655,1.169C31.55,82.18,31.55,82.18,31.546,81.353ZM33.9,83.735c-.154-.577-.253-1.069-.416-1.539A3.012,3.012,0,0,0,31.7,79.937a5.531,5.531,0,0,1-1.466-1.487c.623-.272,1.019-.467,1.431-.62a.949.949,0,0,1,1.343.721,17.879,17.879,0,0,0,1.062,1.919h-.01c1.325,1.685,1.325,1.89-.166,3.265Zm-.212-7.654c-.209-1.166,1.043-1.459,1.1-2.338l-.756-.478a1.61,1.61,0,0,1,.46-.693,1.7,1.7,0,0,0,1.383-1.065c.424-.964,1.336-.935,2.564-.135L37.427,73.8c2.343-1.556,2.357-1.561,3.871-.3-.011.689-.022,1.38-.036,2.253-1.576-.538-3-.782-3.705,1.049l2.266-.77.18.258A14.411,14.411,0,0,0,38.7,78a14.16,14.16,0,0,0-.766,2.032l-1.771-.763.806-1.934A2.251,2.251,0,0,0,35.415,79.2a1.325,1.325,0,0,1-1.331,1.264c-.111-.555-.192-1.118-.34-1.663a1.657,1.657,0,0,1,.867-2.37c.675-.471,1.323-.982,1.968-1.494a2.647,2.647,0,0,0,.33-.688l-3.224,1.829Zm1.894,7.608A1.095,1.095,0,0,1,36.7,85.256C35.223,85.052,35.186,85,35.579,83.689Zm5.936,3.676c-1.055-.064-2.114-.057-3.171-.084A2.535,2.535,0,0,1,36,86.3a1.51,1.51,0,0,1,.457-.329c.971-.138,1.771.862,2.957.147a7.91,7.91,0,0,1,3.245-.25c.091,1.578.073,1.575-1.142,1.5Zm-3.884-2.611a1.143,1.143,0,0,1,1.8-.367c.446.278.933.492,1.462.766C39.812,85.2,38.7,85.811,37.632,84.753Zm5.288-2.877a2.4,2.4,0,0,1-.989,1.353.964.964,0,0,1-1.491-.391,1.406,1.406,0,0,0-.954,0c-.451.106-.876.32-1.321.461a1.422,1.422,0,0,1-.5-.182l.424-1.569-.82.158c.446-.89.446-.89,1.4-.746l2.161.035-.722-1.134a13.214,13.214,0,0,1,1.154-1.882,1.389,1.389,0,0,1,1.172-.427,1.322,1.322,0,0,1,.738,1,15.742,15.742,0,0,1-.258,3.331Zm.126-5.554c-.664.2-.9-.087-1.039-.747a16.114,16.114,0,0,0-.7-2.07l.015.012a4.708,4.708,0,0,0-.506-1.427c-.472-.6-1.6-.609-1.566-1.7l-2.292-.672-2.4,1.019a25.977,25.977,0,0,0-1.409,2.687A1.883,1.883,0,0,1,31.1,74.85l1.442.823a1.981,1.981,0,0,1-2.221,1.735,2.094,2.094,0,0,1-2.013-1.452,4.162,4.162,0,0,1,.7-3.851c.462-.623,1.349.153,1.721-.767a2.442,2.442,0,0,1,1.415-1.185,2.372,2.372,0,0,0,1.434-1.4c2.373.14,2.378.138,3.525-.8L36.062,66.8a12,12,0,0,1,.536-2.422c.208-.475.32-1.455,1.452-.947a3.666,3.666,0,0,0,1.467-.983c1.192,1.065,1.175,1.467-.407,3.375l1.849-.84a8.976,8.976,0,0,1,1.028,2.025c1.379,6.492,1.825,7.257,1.059,9.313Zm2.043,20.873c1.09.666,1.951,1.143,2.75,1.709a1.408,1.408,0,0,1,.458.9,3.39,3.39,0,0,1-2.624,3.472,11.925,11.925,0,0,1-7.053-.783,1.471,1.471,0,0,1-1.108-2.169c.467-2.06,1.454-2.711,4.047-2.54-.109.573-.246,1.122-.313,1.679a1.027,1.027,0,0,0,1.485,1.232,2.126,2.126,0,0,0,1.9-2.009,7.182,7.182,0,0,1,.461-1.487Zm.028-41.275a1,1,0,0,1-.23-.4c-.006-1.183.031-2.365.023-3.548,0-.555.335-1.313-.418-1.56-.962-.314-.845.762-1.234,1.188a1.568,1.568,0,0,0-.265.763c-.141.8-.254,1.6-.377,2.4.891.1.926.769.925,1.43,0,2.1-.01,4.193-.04,6.289a3.2,3.2,0,0,1-.5,2.561,1.792,1.792,0,0,1-.808-1.834,2.065,2.065,0,0,0-1.163-2.324,3.24,3.24,0,0,1-.865-1.065c-.457-.609-.907-1.223-1.5-2.029.662-.43,1.538-.957,2.363-1.554a3.833,3.833,0,0,0,.678-.9l-3.121,1.781a2.549,2.549,0,0,1-.9.516c-2.006.077-2.852,1.607-3.881,2.949a8.95,8.95,0,0,1-1.46,1.471,1.592,1.592,0,0,0-.982,1.651L32.5,63l.906.63a4.637,4.637,0,0,0,.511-1.175,4.51,4.51,0,0,1,2.438-3.29c1.346-.871,2.227-.4,2.487,1.165a1.174,1.174,0,0,1-.571,1.345,6.434,6.434,0,0,0-2.763,3.334.689.689,0,0,1-.175.3c-.348.278-.712.536-1.07.8-.239-.361-.482-.719-.713-1.084-.087-.137-.146-.29-.241-.484l-.621,2.237,1.775.747-.891,1.2-3.027.514c-.234-1.624-.528-3.229-.658-4.847a2.752,2.752,0,0,1,.645-1.408c.318-.493.741-.918,1.1-1.39a3.736,3.736,0,0,0,.635-3.973,9.574,9.574,0,0,1-.319-1.013,4.7,4.7,0,0,1,1.676-5.5,20.966,20.966,0,0,0,2.289-2.42,2.761,2.761,0,0,0,.452-2.982,6.87,6.87,0,0,1-.188-3.834,4.44,4.44,0,0,1,3.967-3.906c.924-.168,1.858-.292,2.776-.486a4.4,4.4,0,0,0,.922-.419l.761-2.227.706,1.8c.326-.9.553-1.622.847-2.316.638-1.5,1.018-1.618,2.522-.859a3.314,3.314,0,0,0,.6.155,1.375,1.375,0,0,0-.557-1.8,1.756,1.756,0,0,0-2.15.085c-.751.552-1.439,1.189-2.224,1.847.354-1.979,1.069-2.857,2.44-3.088A3.79,3.79,0,0,1,50.9,32.4a5.78,5.78,0,0,1,.923,2.079,6.544,6.544,0,0,0,2.857,4.479c.36.282.7.592,1.329,1.131l-3.495-.243-.043.227a17.218,17.218,0,0,1,2.473.787,1.642,1.642,0,0,1,.082,3.119c-.348.217-.757.341-1.084.582a7.61,7.61,0,0,0-.855.848c-1.61-.584-2.61-.214-2.651,1.29a1.849,1.849,0,0,1-2.012,2l-.331.047-1.068,2.5,2.28-1.877,1.22,1.659a4.168,4.168,0,0,0,2.289-3.395,1.83,1.83,0,0,1,.458-1.1c1.044-1.013,2.153-1.959,3.355-3.035a2.567,2.567,0,0,1-.235,2.359,8.182,8.182,0,0,1-1.086,2.026,2.686,2.686,0,0,0-.1,3.29,16.261,16.261,0,0,0,1.269,2.128,3.811,3.811,0,0,1,.646,3.847,14.321,14.321,0,0,0-.37,4.831l-3.469-1.7c.3-1.987,2.225-2.489,3.179-3.91a1.479,1.479,0,0,0-2.154.354A3.17,3.17,0,0,1,51.778,58.2a2.282,2.282,0,0,1,.195-2.617c.45-.774.85-1.586,2.09-.985-.013-.651.559-1.264-.494-1.637a3.778,3.778,0,0,1-.911-1.462l-1.469,1.23,1.068.782-3.344,3.632.224.268,1.293-.583a6.177,6.177,0,0,1-.261,4.067l1.908-1.606a4.39,4.39,0,0,1-.413,4.933l-.321-1.139-3.63.4c-.912,1.55-1.107,3.63-2.611,5.373a6.7,6.7,0,0,1-.33-1.3c0-3.25.027-6.5.05-9.749.006-.866.277-1.418,1.342-.9l.372-1.481-1.42.5Zm6.431-7.4-.618.988c-.508-.784-.154-1.013.275-1.211ZM45.879,70.13l-.456,1.111-.352-.19.542-1.046Zm8.314,14.35a1.929,1.929,0,0,1-1.422,1.761c-.242-1.274.662-2.62-.2-3.882-.784,1.331-.784,1.331-1.833,1.3l.811-3.115,1.032-.844-.747-.132,1.836-3.6c.81,1.581-.64,2.268-.686,3.322,1.514-.656,1.552-2.215,2.108-3.7l2.119.61a2.029,2.029,0,0,0-1.828-1.4,13.113,13.113,0,0,1-4.1-1.506,4.425,4.425,0,0,0-1.984-.236,9.5,9.5,0,0,0-1.92.59l-.584,3.935.336.137,1.659-2.809.357.164c-.113,1.065-1.265,1.9-.845,3.517a11.943,11.943,0,0,1,.827-1.658,13.051,13.051,0,0,1,1.721-1.972,1.15,1.15,0,0,1,1.12.049,1.107,1.107,0,0,1,.147,1.084c-1.142,1.509-1.606,3.517-3.67,4.371a4.394,4.394,0,0,0-2.4,2.94,1.156,1.156,0,0,0,.407,1.541,1.273,1.273,0,0,0,1.7.413,3.046,3.046,0,0,1,3.114.468c-.678,2.115-3.208,2.445-6.185.807a58.348,58.348,0,0,1,.043-10.157,5.029,5.029,0,0,0,.137-1.406c-.259-2.47,1.146-4.353,2.179-6.65l.653,1.175,1.44-2.213-1.26-.347a13.744,13.744,0,0,1,.744-1.745c.671-1.13,1.757-1.107,2.263.1a3.592,3.592,0,0,1,.345,3.8,2.04,2.04,0,0,0,.079.773,2.942,2.942,0,0,1,3.057-1.436.672.672,0,0,0,.823-.81,2.239,2.239,0,0,1,.462,3.918c-.453.432-1,.763-1.5,1.269a2.4,2.4,0,0,1,2.909.7,2.991,2.991,0,0,1,2.078-2.736,1.374,1.374,0,0,1,1.108.145,1.218,1.218,0,0,1,.049,1.127,11.242,11.242,0,0,0-1.349,5.722,2.69,2.69,0,0,1-1.937,2.96,4.7,4.7,0,0,0-3.211,3.659ZM50.231,81.37a3.852,3.852,0,0,1-3.771,3.541c.016-.628-.316-1.447.843-1.454a1.578,1.578,0,0,0,.209-.6,1.934,1.934,0,0,1,2.719-1.488Zm22.417,3.595c-4.35.074-8.7.3-13.045.435-1.055.033-2.113-.026-3.271-.045a2.37,2.37,0,0,1,1.561-2.186,5.026,5.026,0,0,0,3.3-4.79,9.622,9.622,0,0,1,1.376-5.052,9.4,9.4,0,0,0,1.59-4.637,1.1,1.1,0,0,1,1.419-1.127c1.887.048,3.775.058,5.662.08.944.011,1.89-.029,2.831.032A1.194,1.194,0,0,1,75.364,69c.058,4.3.24,8.605.249,12.908.007,3.184.14,3-2.965,3.053Zm3.479-20.975c-1.835-2.508-3.595-5.071-5.379-7.616a.249.249,0,0,1-.025-.112c1.264,1.59,2.548,3.165,3.777,4.781a2.646,2.646,0,0,0,1.378,1.2,7.534,7.534,0,0,1,2,1.6c-.653.42-1.266.811-1.754.145ZM110.1,94.964a1.133,1.133,0,0,1-1.208,1.051c-1.172.146-2.343.363-3.519.4-3.484.111-6.97.21-10.454.2-3.416-.012-6.83-.215-10.246-.237-1.575-.01-3.151.281-4.729.308a1.843,1.843,0,0,1-2.307-1.868,68.445,68.445,0,0,1-.663-7.213c-.191-4.308-.265-8.621-.383-12.932-.024-.886.042-1.782-.059-2.659a7.913,7.913,0,0,1,1.268-4.882c1.987-3.468,4.127-6.849,6.158-10.293,2.365-4.01,4.663-8.058,7.022-12.071,1.067-1.814,2.212-3.582,3.514-5.684,1.467,3.3,2.742,6.213,4.051,9.109q1.606,3.552,3.281,7.072c1.6,3.352,3.238,6.69,4.876,10.025a13.271,13.271,0,0,0,1.218,2.155c1.07,1.422.825,3.4,2.086,4.741a1.561,1.561,0,0,1,.1.866c.1,3.245.193,6.489.3,9.734.058,1.829.223,3.66.171,5.484C110.5,90.5,110.261,92.732,110.1,94.964Zm54.151-.382a52.861,52.861,0,0,1-12.909,1.542c-3.66-.018-7.322.175-10.982.153-3.188-.019-6.391-.472-9.557-.265-6.041.4-12.056-.34-18.083-.127a3.228,3.228,0,0,1-.682-.169,6.057,6.057,0,0,1-.236-1.449,96.067,96.067,0,0,0-.258-13.254c-.2-3.06-.291-6.128-.429-9.193a1.368,1.368,0,0,1,1.652-1.713c4.839.009,9.677.062,14.516.058a19.1,19.1,0,0,0,2.458-.3,6.11,6.11,0,0,1,.7-.107c5.193-.071,10.386-.182,15.579-.178,2,0,4,.314,6,.392,1.052.041,2.115-.21,3.166-.163a21.92,21.92,0,0,1,4.539.479,3.715,3.715,0,0,1,2.063,5.24c.007-.44,0-.881.024-1.32a1.1,1.1,0,0,0-1.263-1.318c-.707.013-1.412.124-2.12.151-1.418.053-2.838.046-4.255.12-1.516.08-1.874.547-1.744,2a12.955,12.955,0,0,1,.007,1.917c-.09,1.51.161,1.713,1.664,1.6,1.926-.14,3.86-.182,5.913-.272.062,2.282-1.148,4.516.893,6.673-1.681.225-2.99.447-4.309.56-.88.075-1.776-.052-2.66,0a1.281,1.281,0,0,0-1.448,1.554c.018.827.035,1.659.134,2.479a1.381,1.381,0,0,0,1.646,1.439q3.015.02,6.03-.02a1.839,1.839,0,0,0,2.152-1.822c.137-.729.178-1.475.271-2.286,1.56.953,2.133,4.073,1.523,7.6Zm-3.358-19.061a1.336,1.336,0,0,1-1.6,1.571c-1.11-.019-1.491-.462-1.443-1.681.042-1.067.418-1.39,1.58-1.362a1.208,1.208,0,0,1,1.465,1.472Zm-3.859.134a1.438,1.438,0,0,1-1.807,1.707c-1.354-.016-1.651-.228-1.685-1.2a2.351,2.351,0,0,1,2.32-1.889c.838.023,1.156.4,1.172,1.384Zm3.988,12.879a1.377,1.377,0,0,1-1.555,1.313c-.87-.012-1.153-.363-1.123-1.395q.048-1.645,1.224-1.576a1.525,1.525,0,0,1,1.454,1.658Zm-3.94-1.369c-.015.937-.027,1.669-.041,2.555a14.317,14.317,0,0,1-1.626.091c-1.172-.069-1.434-.342-1.406-1.332.029-1.011.307-1.283,1.427-1.336.467-.022.937.01,1.646.021Zm12.994,1.113a5.031,5.031,0,0,1-1.634.989,7.769,7.769,0,0,1-1.745.219l-.092-.576a1.943,1.943,0,0,0,2.591-1.461,1.687,1.687,0,0,1,.893-.669.756.756,0,0,1,.481.344,2.415,2.415,0,0,1-.495,1.153Zm.5-2.533-1.485-.887-1.132,3.221a3.729,3.729,0,0,1-1.516-4.774l-1.118-.629a4.321,4.321,0,0,1-1.085,1.205,1.384,1.384,0,0,1-1.805-.982,4.706,4.706,0,0,1,1.233-4.4,5.854,5.854,0,0,1,1.486-.552c.01-.641.034-1.426.033-2.212a1.669,1.669,0,0,1,1.141-2.087,5.039,5.039,0,0,0,1.346-.947A5.893,5.893,0,0,1,169.6,75.59c.661,2.566,1.162,5.174,1.684,7.774a2.708,2.708,0,0,1-.715,2.382Zm1.236-7.771-.374.083c-1-2.086-1.212-4.478-2.668-6.443,1.727-.258,2.572.208,2.837,1.479a12.336,12.336,0,0,1,.239,2.1c.031.925-.019,1.852-.033,2.778Zm-.568-7.188c-1.538,0-1.612-.075-1.38-1.324.063-.338.067-.687.1-1.032.773-.446,1.539-.906,2.322-1.334a4.291,4.291,0,0,1,3.59-.677,5.466,5.466,0,0,1-.373,1.6,2.446,2.446,0,0,0-.179,2.029,1.308,1.308,0,0,1,.052.853,16.433,16.433,0,0,0-1.427,5.252,4.346,4.346,0,0,1-.441.8,25.342,25.342,0,0,1-.62-6.672,5.029,5.029,0,0,1,.7-1.148C172.253,68.245,171.96,68.442,171.24,70.786Zm8.91,5.819c-.293.826-.705,1.609-1.11,2.5l-1.186-.53a1.505,1.505,0,0,0,.105.628,9.954,9.954,0,0,1,1.878,4.1c.53,1.22-1.516,4.965-2.758,5.549a5.31,5.31,0,0,1-1.16.166c.812-1.119,1.476-1.92,2.008-2.8.5-.835.869-1.754,1.337-2.723-.807-.211-1.243-.321-1.677-.438-.921-.25-1.33-.045-1.5.916a5.55,5.55,0,0,0,0,1.753,2.76,2.76,0,0,1-1.1,2.7.8.8,0,0,1-1.229-.231,2.538,2.538,0,0,1-.317-2.673,9.386,9.386,0,0,0,.433-1.694c.915-.245,2.417-.1,1.994-2.06l-.943-.376a3.1,3.1,0,0,1,1.207-3.469l-1.47.214c-.252-2.262-.355-2.115.889-3.253-.346-1.581-.255-1.9,2.212-3.76.8,1.453,1.606,2.866,2.339,4.319A1.644,1.644,0,0,1,180.15,76.605Zm-3.306,8.879L177,83.772c.642.727.543,1.081-.153,1.713Z" transform="translate(-2.588 -27.848)"/>
        <path id="Path_7104" data-name="Path 7104" d="M60.77,44.892l-.226.076.34.894.156-.05Z" transform="translate(51.992 -11.74)"/>
        <path id="Path_7105" data-name="Path 7105" d="M18.316,38.435a.617.617,0,0,0-.209.23.609.609,0,0,0,.149.272l.318-.308Z" transform="translate(11.885 -17.842)"/>
        <path id="Path_7106" data-name="Path 7106" d="M70,33.64l-.268.252a1.8,1.8,0,0,0,.3.273.407.407,0,0,0,.2-.168A2.012,2.012,0,0,0,70,33.64Z" transform="translate(60.677 -22.374)"/>
        <path id="Path_7107" data-name="Path 7107" d="M81.522,46.144l-.306.19.418.585.2-.122Z" transform="translate(71.529 -10.556)"/>
        <path id="Path_7108" data-name="Path 7108" d="M40.419,47.152a1.785,1.785,0,0,0-.354.388.346.346,0,0,0,.149.264,1.864,1.864,0,0,0,.442-.153Z" transform="translate(32.637 -9.604)"/>
        <path id="Path_7109" data-name="Path 7109" d="M74.452,48.144l-.115.2.6.425a2.958,2.958,0,0,0,.14-.295C74.878,48.352,74.664,48.25,74.452,48.144Z" transform="translate(65.027 -8.666)"/>
        <path id="Path_7110" data-name="Path 7110" d="M186.748,64.039a3.7,3.7,0,0,1-.972.808c-2.728.954-5.459,1.9-8.219,2.756s-5.551,1.618-8.339,2.382a66.763,66.763,0,0,1-16.14,1.926c-4.078.1-8.156.257-12.234.26-3.955,0-7.909-.212-11.864-.23-3.07-.014-6.141.131-9.211.2-1.533.033-3.072.137-4.6.055-4.071-.22-8.141-.481-12.2-.812a50.243,50.243,0,0,1-5.6-.786,60.482,60.482,0,0,0-13.427-.776,131.834,131.834,0,0,0-14.611,1.629c-3.328.466-6.728.421-10.054.895-4.028.574-8,1.533-12.02,2.18a60.732,60.732,0,0,1-10.035.9c-3.242-.019-6.492.2-9.726.463-3.883.315-7.765.7-11.625,1.22a41.867,41.867,0,0,0-9.908,2.552,20.8,20.8,0,0,1-2.024.635.877.877,0,0,1-1.214-.686.793.793,0,0,1,.733-1.01,90.363,90.363,0,0,1,10.46-2.634,240.866,240.866,0,0,1,26.862-1.986,53.11,53.11,0,0,0,10.49-1.555,78.112,78.112,0,0,1,9.088-1.444c4.461-.488,8.94-.823,13.389-1.393a89.666,89.666,0,0,1,19.808-.647c1.818.17,3.6.692,5.422.835,5.3.419,10.617.684,15.921,1.1a69.333,69.333,0,0,0,9.2-.215c1.239-.068,2.483-.079,3.724-.064,7.747.093,15.494.321,23.239.268a65.192,65.192,0,0,0,20.825-2.713c3.128-1.065,6.227-2.212,9.339-3.324,1.223-.437,2.429-.933,3.675-1.294a5.85,5.85,0,0,1,1.652,0Z" transform="translate(-2.688 5.821)"/>
        <path id="Path_7111" data-name="Path 7111" d="M47.458,58.714c-2.842-.229-2.817-.23-2.856-3.054-.015-1.112-.175-2.221-.255-3.332A1.411,1.411,0,0,1,46,50.463c.64-.029,1.278-.116,1.917-.177,1.044-.1,1.371.171,1.4,1.241s-.031,2.118.039,3.172c.054.812.253,1.613.378,2.421.221,1.432-.139,1.813-1.574,1.68C47.924,58.777,47.691,58.743,47.458,58.714Zm.355-6.676c-1.729-.389-2.006-.194-1.917,1.226.059.937.075,1.879.175,2.811.123,1.147.29,1.213,1.664.805Z" transform="translate(36.6 -6.661)"/>
        <path id="Path_7112" data-name="Path 7112" d="M44.869,62.308c.013-.827,0-1.655.047-2.479A1.271,1.271,0,0,1,46.393,58.3c3.257-.25,3.293-.2,3.336,3.073.012.942.151,1.881.2,2.823A1.639,1.639,0,0,1,48.3,66.236c-3.154.609-3.518.308-3.46-2.866.006-.354.011-.708.017-1.062Zm2.315,1.9a2.854,2.854,0,0,0,.978-3.537c-.231-.821-.746-.976-1.642-.68a4.6,4.6,0,0,0,.664,4.217Z" transform="translate(37.143 0.842)"/>
        <path id="Path_7113" data-name="Path 7113" d="M56.105,61.669c-.013.827-.019,1.654-.041,2.481a1.576,1.576,0,0,1-1.572,1.942,5.579,5.579,0,0,1-1.4.173,1.546,1.546,0,0,1-1.8-1.974c.044-1.475.023-2.953.01-4.429-.014-1.633.27-1.908,1.89-1.87.467.011.937-.12,1.407-.131,1.271-.031,1.649.384,1.574,1.681-.041.709-.086,1.417-.129,2.126Zm-3.059-2a6,6,0,0,0,.449,5.04.711.711,0,0,0,.945-.782c.052-1.445.056-2.892.081-4.441Z" transform="translate(43.18 0.516)"/>
        <path id="Path_7114" data-name="Path 7114" d="M51.886,57.87a4.17,4.17,0,0,1-.584-3.343c-.015-.865,0-1.734-.086-2.592-.092-.926.05-1.22.929-1.321.991-.115,1.988-.186,2.983-.264a1.032,1.032,0,0,1,1.3,1.06c.069,1.585.194,3.172.171,4.757A1.465,1.465,0,0,1,54.878,57.9C53.891,57.967,52.895,57.887,51.886,57.87Zm3.387-3.889c.005-.313.021-.724.016-1.134a.885.885,0,0,0-.914-1.043c-.656-.009-1.41-.025-1.5.839a14.763,14.763,0,0,0-.019,2.976,1.233,1.233,0,0,0,1.454.983.947.947,0,0,0,.858-1.119c.035-.468.064-.936.1-1.5Z" transform="translate(43.139 -6.616)"/>
        <path id="Path_7115" data-name="Path 7115" d="M54.247,43.429a9.464,9.464,0,0,1-.611,2.269A3.064,3.064,0,1,1,48.7,42.1a2.977,2.977,0,0,1,4.667-.634,5.007,5.007,0,0,1,.878,1.964Zm-3.4,1.69a1.674,1.674,0,0,0,1.968-1.541,1.476,1.476,0,0,0-1.57-1.529,1.97,1.97,0,0,0-1.874,1.758,1.226,1.226,0,0,0,1.475,1.311Z" transform="translate(40.093 -15.786)"/>
        <path id="Path_7116" data-name="Path 7116" d="M74.915,64.6c-.768-.012-1.536-.023-2.3-.037a.977.977,0,0,1-1.091-1.093c-.016-1.3-.085-2.59-.078-3.885.007-1.212.262-1.5,1.447-1.488a32.721,32.721,0,0,0,7.576-.586c1.182-.263,1.666.222,1.586,1.427a23.66,23.66,0,0,1-.462,3.865,1.594,1.594,0,0,1-1.913,1.615c-1.584-.006-3.17.213-4.755.336Zm-1.9-1.756c3.829.746,4.292.349,3.391-2.8a.712.712,0,0,0-.25-.229c-3.652-.259-3.419.325-3.141,3.026Zm7.505-3.336c-2.22-.209-2.605.148-2.658,2.178A1.014,1.014,0,0,0,79.247,62.9,1.2,1.2,0,0,0,80.5,61.528c-.055-.632.008-1.274.02-2.023Z" transform="translate(62.292 0.117)"/>
        <path id="Path_7117" data-name="Path 7117" d="M65.449,64.815a19.376,19.376,0,0,1-2.293-.054,1.491,1.491,0,0,1-1.431-1.846c.089-1.17.191-2.339.283-3.508.1-1.2.279-1.38,1.518-1.443,2.468-.124,4.939-.215,7.4-.377a.914.914,0,0,1,1.188.928,45.069,45.069,0,0,1-.186,4.757,1.681,1.681,0,0,1-1.752,1.23c-1.565.217-3.144.338-4.718.5Zm.693-5.1c-2.326-.148-3.018.439-3.1,2.515a.863.863,0,0,0,.88,1.05c2.749.171,3.027.177,2.582-2.648A4.311,4.311,0,0,0,66.142,59.713Zm4.322,3.135a6.267,6.267,0,0,0-.15-3.478c-1.742-.106-1.933-.06-2.18.938-.593,2.4-.469,3.209,2.33,2.54Z" transform="translate(53.067 0.218)"/>
        <path id="Path_7118" data-name="Path 7118" d="M61.464,54.906c.01-.647.02-1.294.031-1.941a1.172,1.172,0,0,1,1.322-1.285c2.343-.089,4.684-.218,7.025-.346a1.5,1.5,0,0,1,1.974,1.635c.074,1.341-.068,2.694-.127,4.042A1.12,1.12,0,0,1,70.5,58.076c-1.166.149-2.334.283-3.5.389-.817.074-1.645.045-2.457.145-2.5.306-3.225-.331-3.148-2.823.009-.294.01-.588.015-.882Zm1.248,2.165,3.016.048c.093-.45.2-.838.25-1.233.355-2.866.026-3.176-2.882-2.718a1.085,1.085,0,0,0-.326.263Zm4.733.328a4.677,4.677,0,0,0,2.231-.651,5.467,5.467,0,0,0,.83-4.255l-3.191.426Z" transform="translate(52.789 -5.727)"/>
        <path id="Path_7119" data-name="Path 7119" d="M74.578,51.89c1.8-.265,3.6-.489,5.394-.807,1.651-.294,2.03-.056,2.145,1.6.061.883.152,1.768.137,2.65a1.729,1.729,0,0,1-1.967,1.919c-2.472.112-4.944.242-7.412.415-1.7.119-1.969-.155-1.715-1.872a21.337,21.337,0,0,0,.23-2.627c.028-1.225.215-1.474,1.389-1.518.294-.011.59.022.885.03s.59.01.885.015Zm2.1,4.4c.014-.845,0-1.37.034-1.892.075-1.28-.162-1.612-1.4-1.686a10.637,10.637,0,0,0-1.757.137.959.959,0,0,0-.931,1.074c0,.413,0,.826,0,1.239a.963.963,0,0,0,1.094,1.08l2.963.047Zm1.585-.328c.537-.026.828-.059,1.117-.049a1.435,1.435,0,0,0,1.5-1.205,1.8,1.8,0,0,0-.264-2.111,2.944,2.944,0,0,0-1.987-.134c-.849.168-1.112.747-.931,1.777a12.733,12.733,0,0,0,.564,1.723Z" transform="translate(61.946 -5.991)"/>
        <path id="Path_7120" data-name="Path 7120" d="M7.713,54.282c-.075-2.364-.128-4.466-.215-6.566-.024-.58.026-1.163.677-1.234,1.5-.162,3.006-.212,4.746-.322-.022,1.365-.049,2.634-.06,3.9-.008.931-.015,1.863.016,2.794a1.513,1.513,0,0,1-1.566,1.877C10.1,54.692,8.9,54.44,7.713,54.282Zm3.625-1.468c-.3-1.754.508-3.321-.025-5.018l-2.158.372L9.079,52.9Z" transform="translate(1.854 -10.542)"/>
        <path id="Path_7121" data-name="Path 7121" d="M7.751,52.3c1.64.362,3.289-.675,5.023.488.01,1.9.061,3.931-.009,5.954a1.348,1.348,0,0,1-.886.881,17.678,17.678,0,0,1-2.961.393c-.935.058-1.5-.38-1.3-1.209a24.557,24.557,0,0,0-.085-5.592,4.516,4.516,0,0,1,.222-.915Zm1.492,6.044c1.82.081,2.085-.121,2.15-1.577.026-.586.026-1.175.009-1.761-.031-1.066-.278-1.325-1.181-1.284a1.2,1.2,0,0,0-1.4,1.389C8.908,56.15,9.088,57.186,9.243,58.339Z" transform="translate(1.888 -4.821)"/>
        <path id="Path_7122" data-name="Path 7122" d="M16.816,37.379a2.464,2.464,0,0,1,2.549,2.732,3.882,3.882,0,0,1-3.1,3.161,3.614,3.614,0,0,1-2.38-3.157,3.06,3.06,0,0,1,2.932-2.736ZM17.89,39.77c-1.147-.654-1.7-.553-2.027.343a.988.988,0,0,0,.189.9A.949.949,0,0,0,16.967,41a6.218,6.218,0,0,0,.923-1.233Z" transform="translate(7.893 -18.843)"/>
        <path id="Path_7123" data-name="Path 7123" d="M32.443,35.324c.986,1.019.885,1.552-.4,1.867-.8.2-1.618.3-2.294.416a4.183,4.183,0,0,0-1.256-1.346,1.656,1.656,0,0,0-1.792.852,7.976,7.976,0,0,1-1.281,1.16A3.117,3.117,0,0,1,26.591,35.7c-.582.3-.88.494-1.2.617a1.631,1.631,0,0,1-1,.241,3.21,3.21,0,0,0-3.361-.091l-.052-.427a3.21,3.21,0,0,1,.944-.482,8.847,8.847,0,0,1,1.943-.047,3.349,3.349,0,0,0,3.465-1.54,4.222,4.222,0,0,0,4.968-1.313c-.181.908-.327,1.644-.475,2.38l-2.436.491C30.66,37.16,31.495,37.036,32.443,35.324Z" transform="translate(14.595 -23.302)"/>
        <path id="Path_7124" data-name="Path 7124" d="M18.712,44.637a1.407,1.407,0,0,1,.687-.072,1.89,1.89,0,0,0,2.271.221,21.8,21.8,0,0,0,1.765-1.726.879.879,0,0,0,1.192-.829,5.094,5.094,0,0,1,.428-1.675,5.569,5.569,0,0,1,1.461-1.08c.421.563.819,1.066.08,1.666a.545.545,0,0,0-.205.284c-.32,1.978-2.131,2.664-3.411,3.733a9.017,9.017,0,0,1-3.094.915l-1.141-1.461Z" transform="translate(12.457 -16.858)"/>
        <path id="Path_7125" data-name="Path 7125" d="M27.747,37.311l-1.577-.648c1.282-.656,2.084-1.99,3.657-1.7C29.711,36.382,28.166,36.334,27.747,37.311Z" transform="translate(19.506 -21.162)"/>
        <path id="Path_7126" data-name="Path 7126" d="M20.935,39.772c.271,1.415-.882,2.329-1.158,3.817l-1.059-1.85,2.2-1.98Z" transform="translate(12.462 -16.59)"/>
        <path id="Path_7127" data-name="Path 7127" d="M22.832,38.424l-1.126.567c-1.043-.846-.514-1.681-.115-2.6Z" transform="translate(14.711 -19.774)"/>
        <path id="Path_7128" data-name="Path 7128" d="M24.053,38.68c-.877-.448-1.145-1.022-.817-1.632a2.616,2.616,0,0,1,1.161-.58l.254.294Z" transform="translate(16.605 -19.701)"/>
        <path id="Path_7129" data-name="Path 7129" d="M20.8,39.323a1.729,1.729,0,0,1,2.6-.554,4.726,4.726,0,0,1-2.622.533Z" transform="translate(14.415 -17.878)"/>
        <path id="Path_7130" data-name="Path 7130" d="M26.8,39.169l-1.457-.427-.021-.378,1.664-.405-.216,1.235Z" transform="translate(18.709 -18.292)"/>
        <path id="Path_7131" data-name="Path 7131" d="M19.851,40.608a1.853,1.853,0,0,1,1.832-1.724l-.018-.021-1.8,1.758Z" transform="translate(13.533 -17.438)"/>
        <path id="Path_7132" data-name="Path 7132" d="M26.3,44.214,25.755,45.4l-.36-.119L25.687,44Z" transform="translate(18.774 -12.581)"/>
        <path id="Path_7133" data-name="Path 7133" d="M27.525,43.174l-1.666.7-.2-.452,1.64-.515Z" transform="translate(19.024 -13.616)"/>
        <path id="Path_7134" data-name="Path 7134" d="M21.819,35.63l.73-.642.15.143-.67.756Z" transform="translate(15.393 -21.1)"/>
        <path id="Path_7135" data-name="Path 7135" d="M19,42.69a.808.808,0,0,1-.449-1.178.911.911,0,0,1,.418,1.2Z" transform="translate(12.199 -14.935)"/>
        <path id="Path_7136" data-name="Path 7136" d="M40.36,53.03c.151,1.864.326,3.38.382,4.9a1.8,1.8,0,0,1-2.325,2.049,8.483,8.483,0,0,1-1.36-.374,1.168,1.168,0,0,1-.884-1.159c-.1-1.28-.286-2.553-.447-3.827a1.115,1.115,0,0,1,.92-1.452C37.844,53.037,39.062,53.07,40.36,53.03Zm-2.8,3.331h.06q-.007.44-.014.88a.868.868,0,1,0,1.733.084,8.171,8.171,0,0,0,.146-1.568.945.945,0,0,0-.75-1.2,1.132,1.132,0,0,0-1.158,1.1,4.077,4.077,0,0,0-.018.7Z" transform="translate(28.483 -4.049)"/>
        <path id="Path_7137" data-name="Path 7137" d="M36.119,49.23a5.933,5.933,0,0,1,4.409-.083c-.049,1.944-.069,3.627-.152,5.307a1.112,1.112,0,0,1-.444.847,10.788,10.788,0,0,1-2.951.182,1.452,1.452,0,0,1-1.2-1.547C35.849,52.415,36,50.9,36.119,49.23ZM38.6,50.4a1.36,1.36,0,0,0-1.536,1.3,4.594,4.594,0,0,0,.456,1.983,1.225,1.225,0,0,0,1.038.342,1,1,0,0,0,.594-.72A3.463,3.463,0,0,0,38.6,50.4Z" transform="translate(28.587 -8.082)"/>
        <path id="Path_7138" data-name="Path 7138" d="M29.605,50.221a5.234,5.234,0,0,1-.536,1.143.884.884,0,0,1-.723.272.762.762,0,0,1-.434-.59.86.86,0,0,1,.4-.658A4.969,4.969,0,0,1,29.605,50.221Z" transform="translate(21.152 -6.704)"/>
        <path id="Path_7139" data-name="Path 7139" d="M31.157,52.733c.915,1.2.788,1.756-.775,2.945l.808-2.968Z" transform="translate(23.485 -4.351)"/>
        <path id="Path_7140" data-name="Path 7140" d="M30.595,54.907l-1.03.439-.17-.336.955-.573Z" transform="translate(22.553 -2.719)"/>
        <path id="Path_7141" data-name="Path 7141" d="M67.134,46.976a2.859,2.859,0,0,1-1.574-2.767,3.662,3.662,0,0,1,1.574,2.768Z" transform="translate(56.725 -12.386)"/>
        <path id="Path_7142" data-name="Path 7142" d="M63.157,40.709l-.921-1.228C62.741,39.127,62.909,39.276,63.157,40.709Z" transform="translate(53.592 -17.007)"/>
        <path id="Path_7143" data-name="Path 7143" d="M62.734,35.453l.494,2.019C61.822,36.508,61.822,36.508,62.734,35.453Z" transform="translate(53.464 -20.66)"/>
        <path id="Path_7144" data-name="Path 7144" d="M61.983,38.239l.82,1.244a1.656,1.656,0,0,1-.651-.105,9.5,9.5,0,0,1-.425-1.015Z" transform="translate(53.11 -18.028)"/>
        <path id="Path_7145" data-name="Path 7145" d="M22.84,50.013l-.663-1.2C23.116,49.187,23.116,49.187,22.84,50.013Z" transform="translate(15.731 -8.038)"/>
        <path id="Path_7146" data-name="Path 7146" d="M86.562,56.159c.4-1.346,1.73-1.271,2.487-1.987a1.637,1.637,0,0,1,1.075,1.758C88.759,54.563,87.918,56.778,86.562,56.159Z" transform="translate(76.581 -2.97)"/>
        <path id="Path_7147" data-name="Path 7147" d="M92.536,51.436l.434-.266a1.59,1.59,0,0,1,.217.529.873.873,0,0,1-.353.272Z" transform="translate(82.227 -5.806)"/>
        <path id="Path_7148" data-name="Path 7148" d="M71.436,48.727a8.076,8.076,0,0,1-1.607-1.214,2.413,2.413,0,0,1-.538-1.6,3.934,3.934,0,0,0-.917-2.759,4.748,4.748,0,0,1-.937-2.775c-.013-.848-.318-1.692-.362-2.586a20.545,20.545,0,0,1,2.554,5.362c.743,1.818,1.4,3.669,2.1,5.506Z" transform="translate(58.165 -18.446)"/>
      </g>
    </g>
    <g id="noun-girl-with-style-1503518" transform="translate(266.368 115.678)">
      <g id="Group_2331" data-name="Group 2331" transform="translate(0 0)">
        <g id="Group_2330" data-name="Group 2330">
          <path id="Path_6985" data-name="Path 6985" d="M19.785,56.921a1.517,1.517,0,0,0-.822.126.78.78,0,0,1-.048-.177,8.264,8.264,0,0,1-.086-.927q-.068-1.289-.2-2.657t-.493-4.1q-.358-2.729-.5-3.957t-.308-3.1q-.167-1.872-.216-2.818t-.08-2.53Q17,35.2,17,33.144t.074-3.124q.074-1.069.271-2.821t.3-2.4q.1-.648.573-2.941t.639-3q.171-.7.6-2.109t.6-1.819a7.313,7.313,0,0,1,.362-.754q.19-.341.787-1.2a12.865,12.865,0,0,1,1.013-1.313,8.5,8.5,0,0,1,.851-.812q.435-.359.66-.507a5.133,5.133,0,0,1,.64-.339,2.411,2.411,0,0,1,.816-.222,1.129,1.129,0,0,1,.677.13,2.747,2.747,0,0,1,.568.453,2.211,2.211,0,0,1,.441.647.967.967,0,0,0,.137.244c.033.034.082.049.149-.074a2.045,2.045,0,0,1,.193-.592,3.145,3.145,0,0,1,.468-.753,5.007,5.007,0,0,1,.727-.692A6.832,6.832,0,0,1,29.7,8.439a11.319,11.319,0,0,1,1.262-.557q.541-.193,1.124-.365a11.184,11.184,0,0,1,1.358-.3,16.087,16.087,0,0,1,1.914-.172Q36.5,7,38.3,7t2.409.039q.607.039,1.178.109t1.359.2q.787.134,1.794.379t1.572.429q.565.183,1.266.46t1.627.736a16.133,16.133,0,0,1,1.5.823q.571.365.84.573t.668.577a12.243,12.243,0,0,1,.969,1.045q.572.677.99,1.236t.788,1.117q.369.558.761,1.289t.608,1.217q.216.485.418,1.033t.443,1.3q.24.747.487,1.722T58.6,24.21q.382,1.951.72,3.325t.5,2.169q.167.8.358,1.976t.364,2.516q.172,1.337.32,2.739t.313,3.342q.165,1.941.2,2.5t.074,1.589q.036,1.035.061,2.466t.087,2.824q.062,1.39.062,3a22.907,22.907,0,0,0,.092,2.407,13.541,13.541,0,0,1,.091,1.561,6.942,6.942,0,0,1-.035.944c-.02.094-.122.158-.32.191a10.893,10.893,0,0,1-1.387.054,7.527,7.527,0,0,0-1.735.161c-.175.043-.329-.1-.456-.452a7.013,7.013,0,0,1-.279-1.756q-.16-2.408-.241-3.241t-.155-1.862q-.074-1.032-.252-2.453t-.295-2.1q-.116-.68-.314-1.676t-.326-1.752q-.129-.759-.524-2.38t-.517-2.439q-.123-.823-.3-1.553T54.325,34.8a13.574,13.574,0,0,0-.445-1.332,15.1,15.1,0,0,0-.921-1.739q-.7-1.187-.884-1.425a4.629,4.629,0,0,0-.466-.506,9.991,9.991,0,0,0-.929-.739q-.648-.472-1.136-.774t-1.211-.67q-.722-.367-1.864-.873t-2.136-.879q-.994-.373-2.479-.843t-2.468-.792q-.984-.323-1.55-.53T36.1,22.991a16.9,16.9,0,0,1-1.625-.765,8.445,8.445,0,0,1-.758-.488,9.46,9.46,0,0,1-.809-.7q-.511-.484-.978-1a7.3,7.3,0,0,1-.711-.9q-.245-.382-.847-1.65a19.438,19.438,0,0,1-.8-1.848c-.072-.214-.132-.322-.21-.341-.105-.026-.155.069-.194.272a10.972,10.972,0,0,0-.141,1.505,7,7,0,0,1-.152,1.383,3.37,3.37,0,0,1-.445.906,11.034,11.034,0,0,1-1.018,1.268,11.186,11.186,0,0,0-1.1,1.392,10.342,10.342,0,0,0-.711,1.288q-.3.656-.561,1.38t-.407,1.236q-.148.51-.739,2.258t-.82,2.5q-.228.75-.6,2.3T21.9,35.505q-.2.978-.327,1.925T21.4,39.345q-.049.966-.049,2.394t.036,1.826a5.642,5.642,0,0,0,.161.882q.124.482.3,1.008a13.875,13.875,0,0,1,.357,1.4q.185.875.284,1.735t.19,1.375q.092.511.289,1.4t.369,2.276q.173,1.393.271,2t.173.885c.041.15-.109.248-.484.294q-.6.074-1.723.093T19.785,56.921Zm9.553-41.542-.005,0s.007,0,.008,0Z" transform="translate(-17 -7)"/>
          <path id="Path_6986" data-name="Path 6986" d="M42.166,64l.009,0h0Zm.267-.1.213-.023a1.482,1.482,0,0,0,.193-.035q.142-.035.3-.069t.324-.068a2.361,2.361,0,0,0,.283-.076q.17-.057.354-.114l.382-.121a3.208,3.208,0,0,0,.358-.139q.2-.091.437-.193t.464-.214q.241-.119.5-.259t.514-.295q.257-.153.515-.317l.524-.333q.254-.162.508-.345t.517-.384q.259-.2.5-.395t.484-.412q.244-.219.447-.414t.423-.418q.217-.219.421-.438t.424-.464q.223-.247.446-.483t.41-.479q.206-.265.4-.52t.383-.518q.192-.265.37-.519t.334-.517q.163-.273.284-.5l.275-.521q.153-.292.293-.54t.257-.479q.122-.241.245-.5t.214-.506q.1-.258.208-.537t.222-.548q.106-.257.186-.513t.167-.517l.165-.489q.079-.234.132-.457l.11-.467q.054-.229.095-.436t.067-.4q.029-.209.072-.406.04-.181.066-.362.029-.2.072-.393t.066-.353l.055-.356q.028-.179.056-.347a2.11,2.11,0,0,1,.093-.361l.055-.156a.357.357,0,0,1,.42-.188.271.271,0,0,1,.233.339l-.055.156a1.652,1.652,0,0,0-.073.283q-.027.165-.055.342l-.055.356q-.029.185-.071.381t-.066.362q-.029.2-.072.394-.04.18-.066.371t-.071.424q-.042.215-.1.453l-.11.467q-.058.244-.144.5l-.165.489q-.082.242-.164.506t-.2.554q-.11.265-.219.542t-.205.53q-.1.264-.228.539t-.252.519q-.127.249-.267.5t-.286.527l-.276.524q-.127.239-.3.522t-.355.55q-.181.257-.375.525t-.389.527q-.194.257-.4.525t-.445.521q-.218.231-.437.473t-.43.47q-.21.226-.434.451t-.432.427q-.211.2-.464.43t-.509.433q-.251.2-.517.405t-.531.394q-.27.194-.54.367l-.524.333q-.266.169-.533.328t-.534.306q-.269.148-.525.274t-.5.231q-.23.1-.418.185a3.968,3.968,0,0,1-.442.172l-.391.124q-.175.054-.336.108a3.161,3.161,0,0,1-.379.1q-.162.033-.31.065t-.281.065a2.288,2.288,0,0,1-.3.054l-.2.022a.822.822,0,0,0-.12.022.711.711,0,0,1-.45.056,1.549,1.549,0,0,1-.169-.059c-.042-.017-.108-.039-.2-.065s-.229-.065-.391-.109-.355-.1-.56-.158l-.718-.211q-.409-.121-.859-.242t-.989-.281l-1.048-.311q-.533-.158-1.052-.339t-1.024-.384q-.5-.2-.972-.4l-.938-.4a9.291,9.291,0,0,1-.919-.451q-.413-.233-.853-.477t-.821-.49l-.732-.479q-.383-.252-.752-.537l-.689-.533q-.334-.258-.667-.526l-.634-.511q-.309-.249-.617-.52t-.575-.5q-.279-.236-.557-.483l-.538-.478c-.178-.159-.31-.28-.4-.366s-.155-.146-.239-.213c-.1-.08-.233-.2-.4-.36s-.323-.314-.457-.46-.257-.287-.379-.43-.364-.472-.719-.975l-.579-.822q-.06-.084-.105-.158c-.033-.052-.068-.118-.108-.2a1.475,1.475,0,0,0-.226-.264.24.24,0,0,1,.053-.385.4.4,0,0,1,.478.043,1.758,1.758,0,0,1,.326.4c.034.068.062.12.085.157s.054.083.087.131l.58.823c.344.489.576.8.688.936s.239.276.365.414.266.278.426.429.284.261.368.329q.15.121.285.254c.078.077.2.193.375.345l.537.477q.273.242.546.473t.584.5q.3.262.6.5l.634.511q.328.265.657.518l.69.534q.349.27.71.507l.73.477q.348.226.779.465t.857.479a8.566,8.566,0,0,0,.847.416l.938.4q.465.2.958.4t.99.371q.5.175,1.017.328l1.048.311q.519.154.969.275t.878.247l.716.211q.3.088.543.153t.409.114c.112.033.2.063.27.09A2.206,2.206,0,0,1,42.433,63.907Z" transform="translate(-17.808 -14.675)"/>
          <path id="Path_6987" data-name="Path 6987" d="M34.6,31.835l0,0Zm0,.01c-.081-.009-.21-.033-.4-.073l-.47-.1a7.175,7.175,0,0,0-.757-.081c-.4-.029-.7-.043-.907-.043h-.938q-.588,0-1.19.054a10.861,10.861,0,0,0-1.368.225c-.523.116-.9.21-1.127.281s-.483.161-.76.269-.48.193-.608.255-.252.123-.351.174c.02-.01.018-.008.007.014a.839.839,0,0,0-.059.222.333.333,0,0,1-.379.238.293.293,0,0,1-.3-.306.76.76,0,0,1,.361-.63q.156-.08.366-.182c.148-.072.368-.164.661-.278s.564-.21.812-.287.647-.177,1.19-.3a11.66,11.66,0,0,1,1.473-.241Q30.506,31,31.132,31h.938c.233,0,.555.015.969.046a7.429,7.429,0,0,1,.871.1l.468.1c.162.034.273.055.32.06a.759.759,0,0,1,.279.077l.041.022a.243.243,0,0,1,.094.38.393.393,0,0,1-.471.075l-.036-.019C34.622,31.848,34.618,31.847,34.6,31.845Z" transform="translate(-18.616 -11.847)"/>
          <path id="Path_6988" data-name="Path 6988" d="M58.728,29.648a1.1,1.1,0,0,0-.193-.037q-.171-.021-.425-.043t-.571-.021h-.979c-.139,0-.353.007-.641.022s-.612.033-.96.055c-.332.021-.956.1-1.863.251s-1.694.3-2.354.46-1.126.279-1.377.351c-.269.077-.468.128-.6.154l-.022.015a.56.56,0,0,0-.108.114.389.389,0,0,1-.466.094.246.246,0,0,1-.117-.376.9.9,0,0,1,.56-.381c.1-.019.282-.065.528-.136.264-.076.733-.2,1.409-.36s1.488-.323,2.417-.473,1.576-.237,1.943-.26q.527-.034.971-.056c.3-.015.528-.023.683-.023h.979q.361,0,.642.024t.457.046a1.788,1.788,0,0,1,.358.075l.046.014a.166.166,0,0,0-.035,0,.34.34,0,0,1,.374.318v.044a.312.312,0,0,1-.34.274.36.36,0,0,1-.3-.138Z" transform="translate(-23.261 -11.443)"/>
          <path id="Path_6989" data-name="Path 6989" d="M40.809,49.693c.125,0,.271.008.44.024s.322.029.5.044.373.025.587.032l.688.022q.367.011.692.034l.634.044q.3.021.563.021.286,0,.517.012.211.011.379.011h.3a1.826,1.826,0,0,1,.322.029l.124.022a.279.279,0,0,1,.258.327.348.348,0,0,1-.405.208l-.124-.022a.988.988,0,0,0-.175-.016h-.3q-.191,0-.421-.012-.209-.011-.475-.011-.291,0-.622-.023l-.634-.044q-.309-.022-.66-.032l-.691-.022q-.34-.012-.626-.035t-.516-.045c-.144-.014-.265-.02-.36-.02q-.18,0-.348-.012a.952.952,0,0,1-.2-.032c-.145-.042-.262-.128-.262-.285v-.2c0-.061.005-.138.015-.234a2.88,2.88,0,0,0,.013-.289v-.867q0-.25.014-.523t.013-.533q0-.283.014-.6t.042-.653q.028-.333.055-.677t.084-.737q.055-.377.11-.776t.1-.824q.041-.433.083-.888t.1-.918q.055-.452.1-.9T40.8,39.4q.027-.438.027-.875v-.889q0-.436-.041-1.029t-.069-.989q-.027-.388-.069-.886c-.028-.333-.046-.547-.055-.642s-.015-.259-.015-.466V31.463a.474.474,0,0,1,.182-.383.4.4,0,0,1,.481,0,.238.238,0,0,1,.005.383q.009-.009.011,2.156c0,.193,0,.336.013.424s.028.313.055.647.051.631.069.892.041.589.069.99.042.758.042,1.06v.889q0,.451-.028.9t-.069.907q-.042.459-.1.918t-.1.9q-.042.456-.083.89t-.1.843q-.055.4-.111.78t-.081.708q-.028.345-.055.678t-.041.636q-.014.306-.014.579t-.014.556q-.014.261-.014.5v.867a3.307,3.307,0,0,1-.015.334c-.007.07-.011.126-.012.168Z" transform="translate(-21.645 -11.847)"/>
          <path id="Path_6990" data-name="Path 6990" d="M29.245,38.63a1.338,1.338,0,0,0,.2.021h0a.84.84,0,0,1-.25.037,2.284,2.284,0,0,1-.3-.019c-.007,0-.017-.007-.042-.04a.758.758,0,0,1-.071-.113.391.391,0,0,0,.1-.032.536.536,0,0,0,.095.038A.756.756,0,0,0,29.245,38.63Zm.063-.653.01,0h0Zm-.005-.368h0Zm.843.081a1.3,1.3,0,0,1,.045.231,1.587,1.587,0,0,1,.115.508.682.682,0,0,1-.167.441.931.931,0,0,1-.45.293,1.666,1.666,0,0,1-.494.074,3.118,3.118,0,0,1-.414-.026.752.752,0,0,1-.509-.293,1.278,1.278,0,0,1-.206-.4A1.492,1.492,0,0,1,28,38.074q0-.209.015-.375a.624.624,0,0,1,.209-.418,1.012,1.012,0,0,1,.4-.22A1.585,1.585,0,0,1,29.071,37a1.762,1.762,0,0,1,.414.045l.016,0,.089,0a.321.321,0,0,1,.358.258.223.223,0,0,1,0,.035A.924.924,0,0,1,30.147,37.69Z" transform="translate(-19.222 -13.059)"/>
          <path id="Path_6991" data-name="Path 6991" d="M29.544,39.306a.377.377,0,0,1-.2-.083.338.338,0,0,1-.087-.1.466.466,0,0,1-.193-.229A1.759,1.759,0,0,1,29,38.571a.289.289,0,0,1,.277-.3A.357.357,0,0,1,29.671,38h.11a.47.47,0,0,1,.388.189.479.479,0,0,1,.09.3v.222a.8.8,0,0,1-.059.309.413.413,0,0,1-.419.287A.573.573,0,0,1,29.7,39.3.427.427,0,0,1,29.544,39.306ZM29.7,38.7l0,0,0,0Z" transform="translate(-19.424 -13.261)"/>
          <path id="Path_6992" data-name="Path 6992" d="M53.709,36.125h0Zm.067-.1h0Zm.8-.715a.882.882,0,0,1,.446.309,1.079,1.079,0,0,1,.214.445,2.917,2.917,0,0,1,.06.421,2.676,2.676,0,0,1,0,.4.71.71,0,0,1-.171.417.851.851,0,0,1-.387.253,1.616,1.616,0,0,1-.351.074,1.67,1.67,0,0,1-.314,0,.668.668,0,0,1-.2-.053.781.781,0,0,1-.4-.1.852.852,0,0,1-.3-.315,1,1,0,0,1-.127-.432q-.014-.2-.014-.394,0-.124.011-.236a1,1,0,0,1-.024-.143Q53,35.8,53,35.652a.827.827,0,0,1,.059-.32.525.525,0,0,1,.414-.3A1.823,1.823,0,0,1,53.8,35a.786.786,0,0,1,.458.146.743.743,0,0,1,.13.118A1.5,1.5,0,0,1,54.573,35.305Z" transform="translate(-24.271 -12.655)"/>
          <path id="Path_6993" data-name="Path 6993" d="M54.351,36a.289.289,0,1,1-.351.283A.322.322,0,0,1,54.351,36Zm0,.018a.271.271,0,1,1-.329.265A.3.3,0,0,1,54.351,36.018Z" transform="translate(-24.473 -12.857)"/>
          <path id="Path_6994" data-name="Path 6994" d="M40.232,60.156a.266.266,0,0,1-.215-.346.363.363,0,0,1,.43-.173c.023.006.035.008.03.008a2.7,2.7,0,0,1,.458.076q.3.064.525.1.238.034.518.079.261.042.607.074t.7.043c.252.007.44.015.565.023.108.007.355.01.733.01a6.285,6.285,0,0,0,.89-.051,3.331,3.331,0,0,0,.59-.138,4.31,4.31,0,0,0,.494-.2,3.3,3.3,0,0,0,.373-.21q.162-.109.281-.194a1.367,1.367,0,0,1,.336-.179l.124-.044a.376.376,0,0,1,.449.139.256.256,0,0,1-.172.362l-.124.045a.666.666,0,0,0-.16.088q-.129.092-.3.206a3.969,3.969,0,0,1-.454.257,5.061,5.061,0,0,1-.581.24,4.126,4.126,0,0,1-.734.173,7.062,7.062,0,0,1-1.013.06c-.4,0-.653,0-.785-.012-.114-.007-.294-.014-.538-.022s-.509-.023-.757-.046-.468-.05-.662-.081-.349-.055-.5-.077-.359-.059-.578-.1c-.169-.035-.294-.058-.287-.058A.942.942,0,0,1,40.232,60.156Z" transform="translate(-21.645 -17.502)"/>
          <path id="Path_6995" data-name="Path 6995" d="M59.369,88.135a.608.608,0,0,0-.047-.066.527.527,0,0,1-.1-.181.209.209,0,0,0-.029-.048.62.62,0,0,1-.114-.267.239.239,0,0,0-.044-.095,1.557,1.557,0,0,1-.142-.245q-.047-.1-.111-.218t-.141-.269q-.067-.135-.151-.3t-.177-.312l-.221-.356q-.126-.2-.233-.418l-.2-.411q-.1-.2-.22-.436l-.238-.466q-.114-.224-.262-.461t-.3-.5q-.13-.235-.293-.471t-.336-.474q-.165-.226-.364-.466t-.412-.465q-.213-.225-.477-.464t-.53-.454q-.268-.216-.554-.433t-.619-.42q-.343-.21-.718-.395t-.784-.363a8.594,8.594,0,0,0-.846-.315q-.469-.149-.955-.284t-.969-.225q-.5-.095-1.039-.176a10.64,10.64,0,0,0-1.112-.105q-.6-.027-1.137-.027H43.151q-.6,0-1.17.027t-1.126.093q-.567.067-1.2.175t-1.256.243q-.615.134-1.214.308t-1.161.387q-.564.214-1.128.481t-1.087.552q-.52.284-1.058.609t-.948.617q-.417.3-.851.646t-.779.681q-.351.337-.651.659t-.586.661q-.285.338-.537.662t-.446.626q-.2.309-.366.6a5.951,5.951,0,0,0-.278.552q-.118.272-.219.517t-.182.48q-.083.24-.149.479a2.49,2.49,0,0,0-.077.527.965.965,0,0,0,.3.6.243.243,0,0,1-.087.381.394.394,0,0,1-.473-.07A1.39,1.39,0,0,1,26,88.111a2.925,2.925,0,0,1,.093-.623q.07-.254.157-.507t.192-.506q.1-.249.223-.524a6.439,6.439,0,0,1,.3-.6q.174-.308.382-.63t.472-.663q.259-.333.551-.68t.6-.682q.312-.335.675-.683t.819-.716q.449-.362.883-.67t.989-.643q.55-.333,1.084-.624t1.123-.571q.591-.28,1.183-.5t1.219-.407q.625-.182,1.268-.322t1.293-.25q.656-.111,1.245-.181t1.185-.1Q42.529,77,43.151,77H45.5q.554,0,1.175.028a11.475,11.475,0,0,1,1.2.114q.551.083,1.068.181t1.036.241q.5.139.982.292a9.359,9.359,0,0,1,.922.343q.415.181.814.377t.777.427q.371.228.673.457t.568.444q.279.225.558.477t.509.495q.228.24.438.494t.384.492q.172.236.344.485t.32.515q.133.241.282.482t.282.5l.238.466q.12.234.222.441l.2.411q.1.195.21.376l.221.356q.107.173.2.346t.155.3q.066.132.131.251t.127.248a1.051,1.051,0,0,0,.1.166.716.716,0,0,1,.126.289.146.146,0,0,0,.023.062.666.666,0,0,1,.106.2c.035.048.065.089.093.136a.928.928,0,0,1,.069.132.444.444,0,0,1,.034.148.325.325,0,0,1,.035.144v.274a.348.348,0,0,1-.68,0v-.241a.358.358,0,0,1-.034-.153A.467.467,0,0,0,59.369,88.135Z" transform="translate(-18.818 -21.137)"/>
          <path id="Path_6996" data-name="Path 6996" d="M41.68,75.342c0,.086.005.214.017.383s.018.3.018.371a1.5,1.5,0,0,0,.06.283.279.279,0,0,1-.258.327.348.348,0,0,1-.405-.208,1.677,1.677,0,0,1-.076-.4c0-.058-.006-.173-.017-.342S41,75.439,41,75.342v-.616a.638.638,0,0,1,.027-.19.459.459,0,0,1,.257-.264,1.35,1.35,0,0,1,.285-.1,1.55,1.55,0,0,1,.348-.038,2.252,2.252,0,0,0,.284-.024q.22-.03.474-.044l.495-.027q.267-.014.6-.014h.663q.332,0,.716-.013t.8-.014h3.043a1.293,1.293,0,0,1,.423.063q.128.044.239.089a1.011,1.011,0,0,1,.258.147.971.971,0,0,1,.17.176q.057.077.1.142.028.045.073.105a.63.63,0,0,1,.114.285.411.411,0,0,0,.043.131,1.307,1.307,0,0,1,.1.268c.021.077.042.145.063.2l.068.192c.024.067.042.119.054.159a.049.049,0,0,0,0,.01.2.2,0,0,0,.026.027.319.319,0,0,1,.133.248v.027a.312.312,0,0,1-.34.274.332.332,0,0,1-.332-.214q-.027-.027-.053-.058a.527.527,0,0,1-.1-.181c-.01-.033-.026-.081-.048-.142l-.068-.192q-.037-.1-.073-.235a.839.839,0,0,0-.066-.171.878.878,0,0,1-.093-.279A.181.181,0,0,0,49.666,75q-.057-.077-.1-.142c-.018-.03-.043-.065-.072-.1a.387.387,0,0,0-.068-.071.324.324,0,0,0-.082-.045q-.093-.037-.2-.075a.5.5,0,0,0-.155-.019H45.946q-.384,0-.767.013t-.746.014h-.663q-.312,0-.555.013l-.491.027q-.223.013-.41.038a3.031,3.031,0,0,1-.4.031.72.72,0,0,0-.162.017.772.772,0,0,0-.077.021S41.68,74.93,41.68,75.342Z" transform="translate(-21.847 -20.532)"/>
          <path id="Path_6997" data-name="Path 6997" d="M43.811,74.487a.286.286,0,0,1-.277.317.34.34,0,0,1-.393-.223A6.5,6.5,0,0,1,43,73.835a.5.5,0,0,1,.034-.2.477.477,0,0,1,.324-.247,1.524,1.524,0,0,1,.324-.074c.072-.008.163-.021.27-.038q.19-.031.413-.046.207-.014.465-.028l.528-.027q.263-.013.562-.04.316-.028.649-.042l.592-.027.507-.027q.249-.014.449-.014c.111,0,.205,0,.281-.012.1-.01.2-.016.28-.016h.238a.339.339,0,0,1,.374.3v.315a.339.339,0,0,0,.011.083.846.846,0,0,1,.024.2v.137a.146.146,0,0,0,.006.042.544.544,0,0,1,.028.163v.068l.011.013a.243.243,0,0,1-.094.38.393.393,0,0,1-.471-.076l-.034-.041a.34.34,0,0,1-.091-.221v-.123a.149.149,0,0,0-.007-.03.6.6,0,0,1-.027-.175V73.9a.4.4,0,0,0-.01-.1.782.782,0,0,1-.024-.191v-.067q-.057,0-.128.01c-.106.011-.227.016-.365.016q-.174,0-.4.013l-.513.028-.6.028q-.313.013-.609.04-.314.028-.594.042l-.526.027q-.252.014-.453.027-.185.012-.336.037c-.119.019-.221.034-.308.044a.68.68,0,0,0-.093.017C43.7,73.966,43.745,74.183,43.811,74.487Z" transform="translate(-22.251 -20.33)"/>
          <path id="Path_6998" data-name="Path 6998" d="M36.406,79.557a.344.344,0,0,1-.4-.215.282.282,0,0,1,.267-.322,1.209,1.209,0,0,1,.855.149,1.747,1.747,0,0,1,.413.337q.1.121.217.255t.246.3a2.553,2.553,0,0,1,.247.382,3.263,3.263,0,0,0,.221.356,2.891,2.891,0,0,1,.261.451q.1.224.208.475t.206.511q.1.266.192.533t.171.537q.087.282.157.577a5.214,5.214,0,0,1,.107.616q.033.3.083.59t.087.6q.034.288.068.59t.068.588q.035.294.052.588t.05.562q.034.286.068.545t.052.52q.016.238.049.462t.068.45q.035.225.053.41t.018.336v.384a.348.348,0,0,1-.68,0V90.74q0-.126-.016-.294t-.049-.384q-.034-.22-.068-.454t-.053-.5q-.017-.24-.05-.493t-.068-.551q-.035-.294-.052-.588t-.05-.562q-.034-.288-.068-.59t-.068-.588q-.033-.282-.084-.578t-.087-.615a4.768,4.768,0,0,0-.1-.563q-.066-.28-.149-.546t-.169-.531q-.083-.254-.183-.508t-.2-.5q-.1-.242-.2-.456a2.383,2.383,0,0,0-.215-.371,3.776,3.776,0,0,1-.255-.411,2.035,2.035,0,0,0-.2-.3q-.115-.146-.229-.277t-.226-.266a1.2,1.2,0,0,0-.267-.21A.409.409,0,0,0,36.406,79.557Z" transform="translate(-20.837 -21.541)"/>
          <path id="Path_6999" data-name="Path 6999" d="M56.014,79.152a.2.2,0,0,0-.026.027.613.613,0,0,0-.047.067,1,1,0,0,1-.14.171.751.751,0,0,0-.1.13l-.153.247a1.842,1.842,0,0,0-.135.265l-.153.37q-.086.208-.189.443t-.18.462q-.087.251-.173.474t-.167.457q-.086.249-.172.484t-.168.475q-.084.245-.169.5t-.193.524q-.1.238-.181.49t-.171.511q-.084.245-.169.5c-.055.169-.093.3-.115.381l-.068.274c-.022.088-.05.213-.083.375s-.076.338-.122.507a2.273,2.273,0,0,0-.078.436q-.018.242-.053.47t-.068.427a4.7,4.7,0,0,0-.048.5c-.011.206-.017.345-.017.413v.493a.348.348,0,0,1-.68,0v-.493c0-.078.006-.223.017-.437a5.112,5.112,0,0,1,.054-.545q.034-.2.068-.422t.049-.434a2.724,2.724,0,0,1,.093-.523q.066-.239.115-.479c.035-.167.063-.3.087-.392l.068-.274c.024-.1.065-.235.124-.413s.114-.345.171-.51.112-.331.169-.5.123-.354.193-.524.126-.322.181-.49.114-.345.171-.51.114-.327.171-.484.112-.312.169-.475.115-.325.173-.474.111-.3.167-.457.123-.336.194-.5.129-.3.185-.434l.153-.37a2.336,2.336,0,0,1,.171-.337L55.1,79.3a1.275,1.275,0,0,1,.175-.227A.486.486,0,0,0,55.334,79a1.132,1.132,0,0,1,.089-.125.8.8,0,0,1,.088-.091.444.444,0,0,1,.124-.156.629.629,0,0,1,.093-.062.562.562,0,0,1,.077-.075.611.611,0,0,1,.156-.092l.04-.044.068-.082a.772.772,0,0,1,.106-.107.384.384,0,0,1,.465-.138.252.252,0,0,1,.152.367l-.017.027a.506.506,0,0,1-.115.126.2.2,0,0,0-.025.027l-.068.082a.886.886,0,0,1-.127.124.7.7,0,0,1-.152.1.412.412,0,0,1-.155.13A.446.446,0,0,1,56.014,79.152Zm-.052-.754h0Zm-.456.4,0,.008,0,0Z" transform="translate(-24.069 -21.339)"/>
          <path id="Path_7000" data-name="Path 7000" d="M34.805,84.416a1.715,1.715,0,0,0,.281.089,3.176,3.176,0,0,0,.5.1h.153a.28.28,0,1,1,0,.548h-.153a3.264,3.264,0,0,1-.695-.122c-.385-.1-.621-.2-.721-.383q-.071-.128-.141-.269a.259.259,0,0,1,.189-.356.372.372,0,0,1,.442.152q.06.12.119.228Z" transform="translate(-20.433 -22.551)"/>
          <path id="Path_7001" data-name="Path 7001" d="M30.789,87.371a2.479,2.479,0,0,0,.584.167q.287.039.591.051l.323.014a.3.3,0,0,1,.321.288.321.321,0,0,1-.357.259l-.323-.014q-.342-.014-.667-.058a3.25,3.25,0,0,1-.776-.217c-.39-.157-.587-.4-.432-.7a.375.375,0,0,1,.446-.144.266.266,0,0,1,.2.306A.762.762,0,0,0,30.789,87.371Z" transform="translate(-19.625 -23.157)"/>
          <path id="Path_7002" data-name="Path 7002" d="M29.061,91.431a.242.242,0,0,1,.083-.381.394.394,0,0,1,.473.067c.1.116.181.157.249.157h1.615a.28.28,0,1,1,0,.548H29.867A1.045,1.045,0,0,1,29.061,91.431Z" transform="translate(-19.424 -23.965)"/>
          <path id="Path_7003" data-name="Path 7003" d="M35.063,90.433a.242.242,0,0,1,.079-.382.4.4,0,0,1,.474.064,2.806,2.806,0,0,1,.282.365.719.719,0,0,0,.1.073,3.6,3.6,0,0,0,.366.2,2.245,2.245,0,0,0,.94.221l.595.014a.308.308,0,0,1,.33.282.317.317,0,0,1-.349.266l-.595-.014a3.049,3.049,0,0,1-1.27-.3,1.775,1.775,0,0,1-.724-.5A2.306,2.306,0,0,0,35.063,90.433Z" transform="translate(-20.635 -23.763)"/>
          <path id="Path_7004" data-name="Path 7004" d="M35.175,86.513a.248.248,0,0,1-.132-.372.386.386,0,0,1,.462-.106,3.225,3.225,0,0,0,.453.171c.124.033.282.067.476.1l.306.055a.279.279,0,0,1,.258.327.348.348,0,0,1-.405.208l-.306-.055q-.322-.058-.543-.117A3.919,3.919,0,0,1,35.175,86.513Z" transform="translate(-20.635 -22.955)"/>
          <path id="Path_7005" data-name="Path 7005" d="M35.128,81.488a.24.24,0,0,1-.053-.385.4.4,0,0,1,.478-.043,3.677,3.677,0,0,0,.577.253c.316.118.524.2.624.231l.153.055a.256.256,0,0,1,.173.361.376.376,0,0,1-.449.139l-.153-.055c-.1-.037-.315-.115-.634-.235A4.078,4.078,0,0,1,35.128,81.488Z" transform="translate(-20.635 -21.945)"/>
          <path id="Path_7006" data-name="Path 7006" d="M32.022,84.37a.262.262,0,0,1,.2-.353.368.368,0,0,1,.437.16.734.734,0,0,0,.329.279,4.416,4.416,0,0,0,.5.239l.187.068a.255.255,0,0,1,.169.363.377.377,0,0,1-.45.136l-.187-.069a4.963,4.963,0,0,1-.592-.282A1.281,1.281,0,0,1,32.022,84.37Z" transform="translate(-20.029 -22.551)"/>
          <path id="Path_7007" data-name="Path 7007" d="M37.407,87.234c.364.027.612.04.734.04h.2a.28.28,0,1,1,0,.548h-.2c-.149,0-.412-.014-.8-.042s-.608-.047-.688-.057a1.44,1.44,0,0,1-.522-.229.241.241,0,0,1-.068-.383.4.4,0,0,1,.476-.055c.081.049.148.086.2.11.029.014.044.019.027.017C36.825,87.189,37.046,87.208,37.407,87.234Z" transform="translate(-20.837 -23.157)"/>
          <path id="Path_7008" data-name="Path 7008" d="M28.168,89.372l.476.137a.264.264,0,0,1,.206.35.366.366,0,0,1-.434.166l-.476-.137c-.309-.089-.5-.143-.574-.159A.436.436,0,0,1,27,89.274.312.312,0,0,1,27.34,89a.325.325,0,0,1,.336.234C27.786,89.263,27.949,89.309,28.168,89.372Z" transform="translate(-19.02 -23.561)"/>
          <path id="Path_7009" data-name="Path 7009" d="M32.188,92.519a.252.252,0,0,1-.152-.367.381.381,0,0,1,.456-.122,2.977,2.977,0,0,0,.765.193c.3.036.528.058.687.066l.255.014a.3.3,0,0,1,.316.291.323.323,0,0,1-.362.255l-.255-.014c-.181-.01-.427-.033-.741-.071A3.779,3.779,0,0,1,32.188,92.519Z" transform="translate(-20.029 -24.167)"/>
          <path id="Path_7010" data-name="Path 7010" d="M57.232,84.534a.266.266,0,0,1-.215-.346.363.363,0,0,1,.43-.173c.052.014.21.045.458.088l.546.1q.135.024.269.036l.153.014a.3.3,0,0,1,.3.3.33.33,0,0,1-.375.242l-.153-.014q-.172-.015-.342-.046l-.542-.1C57.487,84.589,57.317,84.556,57.232,84.534Z" transform="translate(-25.078 -22.551)"/>
          <path id="Path_7011" data-name="Path 7011" d="M55.88,89.312l.006,0h0ZM56.9,89.3a.28.28,0,1,1,0,.548H55.8c-.221,0-.406-.121-.71-.391a.238.238,0,0,1,.023-.387.4.4,0,0,1,.48.018,2.368,2.368,0,0,0,.248.2l.022.014Z" transform="translate(-24.674 -23.561)"/>
          <path id="Path_7012" data-name="Path 7012" d="M54.029,92.384a.256.256,0,0,1,.175-.361.375.375,0,0,1,.447.141c.126.232.242.355.308.376a1.635,1.635,0,0,0,.422.077A4.234,4.234,0,0,0,56,92.591l.408-.041a.333.333,0,0,1,.379.238.293.293,0,0,1-.3.306l-.408.041a5.019,5.019,0,0,1-.743.029,2.455,2.455,0,0,1-.632-.115A1.254,1.254,0,0,1,54.029,92.384Z" transform="translate(-24.473 -24.167)"/>
          <path id="Path_7013" data-name="Path 7013" d="M57.674,86.448l0,0h0Zm.2-.015a1.262,1.262,0,0,0,.519.171l.34.027a.3.3,0,0,1,.3.3.329.329,0,0,1-.372.245l-.34-.027a2.036,2.036,0,0,1-.841-.267c-.373-.21-.485-.292-.485-.471a.455.455,0,0,1,.125-.289.393.393,0,0,1,.471-.076.25.25,0,0,1,.138.3C57.773,86.374,57.82,86.4,57.875,86.433Z" transform="translate(-25.078 -22.955)"/>
          <path id="Path_7014" data-name="Path 7014" d="M61.1,88.467a.238.238,0,0,1,0-.387.4.4,0,0,1,.481,0,1.471,1.471,0,0,0,.354.223,2.929,2.929,0,0,0,.573.126l.459.068a.284.284,0,0,1,.272.319.342.342,0,0,1-.4.219l-.459-.068a3.52,3.52,0,0,1-.753-.175A2.123,2.123,0,0,1,61.1,88.467Z" transform="translate(-25.886 -23.359)"/>
          <path id="Path_7015" data-name="Path 7015" d="M60.066,92.436a.241.241,0,0,1,.073-.383.4.4,0,0,1,.475.059.878.878,0,0,0,.474.328l.34.027a.3.3,0,0,1,.3.3.329.329,0,0,1-.372.245l-.34-.027A1.47,1.47,0,0,1,60.066,92.436Z" transform="translate(-25.684 -24.167)"/>
          <path id="Path_7016" data-name="Path 7016" d="M64.079,90.449a.239.239,0,0,1,.043-.386.4.4,0,0,1,.479.035.408.408,0,0,0,.136.1c.087.016.277.038.56.064s.461.039.522.039h.119a.28.28,0,1,1,0,.548h-.119c-.1,0-.291-.014-.6-.043s-.513-.052-.63-.073A.983.983,0,0,1,64.079,90.449Z" transform="translate(-26.492 -23.763)"/>
          <path id="Path_7017" data-name="Path 7017" d="M62.1,86.468a.238.238,0,0,1,0-.387.4.4,0,0,1,.481,0,.851.851,0,0,0,.225.145,2.047,2.047,0,0,0,.334.021h.255a.28.28,0,1,1,0,.548h-.255a2.8,2.8,0,0,1-.482-.034A1.268,1.268,0,0,1,62.1,86.468Z" transform="translate(-26.088 -22.955)"/>
          <path id="Path_7018" data-name="Path 7018" d="M59.2,81.347l.646.1a.284.284,0,0,1,.273.319.342.342,0,0,1-.4.22l-.646-.1a2.151,2.151,0,0,1-.926-.254.328.328,0,0,1,0-.552.4.4,0,0,1,.481,0,.251.251,0,0,1,.1.182C58.841,81.289,59,81.317,59.2,81.347Z" transform="translate(-25.28 -21.945)"/>
          <path id="Path_7019" data-name="Path 7019" d="M56.188,82.519a.252.252,0,0,1-.152-.367.382.382,0,0,1,.456-.122c.08.032.145.056.194.07.028.008.042.011.028.011.095,0,.307.023.683.072l.527.068a.287.287,0,0,1,.281.314.338.338,0,0,1-.39.227l-.527-.068c-.327-.042-.534-.065-.575-.065A1.466,1.466,0,0,1,56.188,82.519Z" transform="translate(-24.876 -22.147)"/>
        </g>
      </g>
    </g>
    <g id="noun-boy-with-spiky-hair-1503517" transform="translate(315.568 107.727)">
      <g id="Group_2338" data-name="Group 2338" transform="translate(0 0)">
        <g id="Group_2337" data-name="Group 2337">
          <path id="Path_7027" data-name="Path 7027" d="M31.084,30.192a3.488,3.488,0,0,1-.381.475c0-.008,0-.02-.126-.029-.02.019-.05.051-.092.1a.968.968,0,0,1-.37.289c-.049.012-.083-.036-.094-.193Q30,30.553,30,29.279T30.092,27q.092-1.009.248-1.844t.476-1.959q.32-1.124.606-1.883t.512-1.23q.228-.472.649-1.226t.913-1.538q.492-.784.882-1.328a15.422,15.422,0,0,1,.995-1.224q.6-.68,1.746-1.754t2.1-1.839q.962-.766,1.959-1.476t1.539-1.075q.541-.363,1.146-.715t1.146-.624q.541-.273,1.817-.83t2-.83q.726-.273,1.644-.548t1.573-.416q.655-.141,1.524-.281t1.909-.255Q56.52,4.006,57.022,4a3.141,3.141,0,0,1,.451.02,1.637,1.637,0,0,1-.3.409,11.051,11.051,0,0,0-.954,1.448q-.626,1.068-1.768,2.756a25.31,25.31,0,0,0-1.474,2.354q-.165.331-.23.5a.762.762,0,0,0-.042.133c-.01.058,0,.1.07.1a6.293,6.293,0,0,0,.978-.423q.876-.416,1.965-.83a17.5,17.5,0,0,1,2.054-.65,14.376,14.376,0,0,1,2-.339q1.032-.1,2.227-.1a14.98,14.98,0,0,1,1.774.076,4.823,4.823,0,0,1,1.154.3c.185.073.3.137.259.252a10.826,10.826,0,0,0-1.027.476,13.7,13.7,0,0,0-1.241.708q-.545.354-.832.586a10.029,10.029,0,0,0-.848.823q-.56.59-1.239,1.456t-.944,1.292a5.281,5.281,0,0,0-.433.846,2.576,2.576,0,0,0-.19.789c-.017.28.014.419.147.4a2.925,2.925,0,0,0,.74-.513,7.341,7.341,0,0,1,1.1-.749,8.424,8.424,0,0,1,.9-.424,9.838,9.838,0,0,1,1.063-.33,7.643,7.643,0,0,1,1.216-.224q.559-.052,1.464-.052a16.666,16.666,0,0,1,1.756.09q.854.09,1.445.185a10.981,10.981,0,0,1,1.25.28,5.353,5.353,0,0,1,.966.347c.2.1.309.2.335.281s-.067.174-.284.311q-.352.221-1.321.681t-2.837,1.513a27.843,27.843,0,0,0-2.61,1.6q-.372.276-.544.416a1.242,1.242,0,0,0-.158.148.056.056,0,0,0,.046.089,2.773,2.773,0,0,0,.708-.294,10.021,10.021,0,0,1,1.363-.528,11.648,11.648,0,0,1,1.631-.374q.881-.14,1.929-.223a21.029,21.029,0,0,1,2.121-.058,6.925,6.925,0,0,1,1.872.271,6.227,6.227,0,0,1,1.115.423c.167.1.259.17.264.162-.008.015-.45.21-1.162.5a11.665,11.665,0,0,0-1.63.766q-.459.289-1.346.922T68.438,23.8a2.4,2.4,0,0,0-.737.877,11.561,11.561,0,0,0-.2,1.55q-.114,1.248-.172,3.054t-.057,2.881c0,.684-.091,1.041-.232,1.06a.652.652,0,0,1-.493-.143,5.713,5.713,0,0,1-.741-.753q-.49-.566-1.16-1.492T63.628,29.5a10.583,10.583,0,0,0-.941-.958Q62.1,28,61.49,27.369t-.868-.85a6.639,6.639,0,0,0-.69-.5q-.428-.275-1.735-1.031t-1.9-1.033q-.589-.277-1.291-.528a7.732,7.732,0,0,0-1.123-.329A4.836,4.836,0,0,0,53,23.024a2.248,2.248,0,0,0-.971.238,1.633,1.633,0,0,0-.71.573,1.115,1.115,0,0,0-.2.616,2.222,2.222,0,0,0,.379.894,8,8,0,0,0,.768,1.077,11.15,11.15,0,0,0,.855.893,7.6,7.6,0,0,1,.8.87c.113.144.172.25.095.355a11.665,11.665,0,0,1-1.718-.426q-1.419-.415-2.416-.741t-2.223-.818q-1.226-.492-1.923-.842t-1.407-.672a6.206,6.206,0,0,0-.934-.371c-.2-.042-.3.113-.318.42a1.642,1.642,0,0,0,.192.866,3.686,3.686,0,0,0,.536.785,8.131,8.131,0,0,0,.919.844,9.093,9.093,0,0,0,1.337.9,14.38,14.38,0,0,0,1.3.649q.574.245,1.682.61t1.587.566a2.936,2.936,0,0,1,.784.463c.082.07.091.1.063.124a.924.924,0,0,1-.415.065,5.146,5.146,0,0,1-1.084-.069q-.388-.082-.979-.266t-1.353-.472q-.761-.287-2.46-1.01t-3.243-1.5q-1.551-.783-2.011-.957a2.683,2.683,0,0,0-.67-.189c-.171-.011-.258.1-.258.3a1.254,1.254,0,0,0,.164.579,3.825,3.825,0,0,0,.413.617q.251.31.887.976a13.528,13.528,0,0,0,1.205,1.131,18.4,18.4,0,0,0,1.74,1.2,7.934,7.934,0,0,1,.814.56,5.606,5.606,0,0,1-.911-.3,11.776,11.776,0,0,1-1.229-.585q-.647-.351-1.087-.638t-1.36-.957q-.92-.67-1.583-1.195a5.222,5.222,0,0,0-1.085-.707,3.182,3.182,0,0,0-1.042-.217,3.425,3.425,0,0,0-1.056.073,7.685,7.685,0,0,0-.886.29,5.318,5.318,0,0,0-1,.538,5.738,5.738,0,0,0-1.111,1.021A10.868,10.868,0,0,0,31.084,30.192Zm13.225,1.673h0Zm-13.975-.853,0,0h0Zm.075.055,0,.005v0ZM63.161,21h0ZM30.675,30.7l0,0,0,0Z" transform="translate(-23.483 -4)"/>
          <path id="Path_7028" data-name="Path 7028" d="M30.4,29.229a.384.384,0,0,1,.472-.212.329.329,0,0,1,.236.424,1.3,1.3,0,0,0-.1.356v1.984q0,.334-.02.652t-.059.619q-.038.29-.057.443a2.336,2.336,0,0,0-.017.288c0,.121-.007.292-.019.514s-.026.439-.038.666-.025.461-.038.7-.018.469-.018.7v3.866q0,.379.037.776.039.418.058.853t.038.873q.019.451.019.885v.89q0,.456.019.894t.038.837q.019.394.038.84t.056.841q.037.4.093.807t.115.877q.056.454.131.874t.168.8l.19.787a7.489,7.489,0,0,0,.22.739q.132.372.263.71t.28.671q.15.336.3.638t.316.6q.167.3.334.567l.343.548q.167.267.353.534t.366.536q.164.245.346.474l.381.479.381.479q.182.229.364.425t.4.426q.2.212.4.39.215.193.43.4.2.195.415.373t.444.349q.223.167.465.334t.488.35a4.61,4.61,0,0,0,.458.3q.28.162.54.341.242.167.5.335t.51.322q.242.15.5.3a5.543,5.543,0,0,0,.5.256q.262.118.543.236t.552.215q.269.1.576.178.327.086.634.173.289.081.617.147l.686.137q.333.067.666.116t.682.083q.352.033.722.05.389.017.815.052.4.033.785.033H51q.382,0,.764-.033t.743-.1q.377-.068.716-.135a4.727,4.727,0,0,0,.632-.174l.685-.239a4.454,4.454,0,0,0,.613-.267q.312-.165.606-.346t.613-.4q.312-.214.663-.5t.709-.6q.352-.316.685-.665t.68-.73q.335-.368.672-.788t.572-.779q.247-.375.513-.786t.468-.756q.2-.348.388-.731t.334-.751q.148-.366.278-.766t.247-.768q.113-.357.246-.8t.244-.878q.114-.441.208-.848t.168-.823q.076-.424.132-.8t.134-.827q.075-.44.132-.846t.114-.837q.058-.434.135-.868t.152-.871q.077-.451.174-.9t.17-.832q.076-.391.151-.817t.132-.8q.058-.382.135-.782t.132-.743q.057-.358.114-.734t.138-.725a5.269,5.269,0,0,0,.108-.647q.039-.371.1-.69.055-.3.092-.613t.077-.62q.037-.28.055-.594.02-.336.059-.638.037-.282.055-.546t.018-.51v-3.61a.376.376,0,0,1,.747,0v3.61q0,.267-.02.551t-.059.583q-.037.28-.055.594-.02.336-.059.637t-.076.612q-.039.335-.1.653-.055.3-.092.644a5.872,5.872,0,0,1-.121.722q-.073.313-.129.678t-.115.738q-.058.364-.135.763t-.131.758q-.058.38-.135.812t-.153.826q-.077.4-.173.844t-.169.877q-.076.446-.153.874t-.131.842q-.057.428-.114.84t-.135.865q-.076.442-.132.816t-.135.812q-.077.435-.175.854t-.211.863q-.116.451-.251.9t-.249.809q-.115.36-.248.772t-.293.807q-.156.386-.351.789T62,58.386q-.214.366-.484.783T61,59.958q-.257.39-.609.829t-.7.821q-.345.379-.691.742t-.724.7q-.369.331-.739.629t-.708.529q-.331.228-.644.421T55.531,65a5.238,5.238,0,0,1-.721.314l-.685.239a5.533,5.533,0,0,1-.74.2q-.347.069-.732.138t-.818.108q-.418.036-.835.036H49.323q-.417,0-.853-.036-.411-.034-.785-.05-.391-.018-.763-.053t-.727-.088q-.353-.053-.705-.123l-.686-.137q-.358-.071-.678-.161-.3-.085-.622-.169-.341-.09-.643-.2t-.591-.23q-.29-.122-.561-.244a6.319,6.319,0,0,1-.568-.292q-.272-.157-.525-.314t-.519-.328q-.272-.175-.525-.349-.235-.162-.488-.309a5.351,5.351,0,0,1-.532-.349q-.223-.167-.465-.334t-.487-.35q-.235-.176-.47-.37t-.461-.414q-.2-.2-.408-.383-.221-.2-.44-.431t-.4-.43q-.2-.215-.4-.465l-.381-.479-.381-.479q-.2-.251-.378-.519t-.359-.525q-.195-.28-.37-.561l-.343-.548q-.176-.281-.351-.6t-.331-.63q-.155-.314-.31-.662t-.291-.7q-.135-.347-.27-.728a8.1,8.1,0,0,1-.238-.8l-.19-.787q-.1-.4-.175-.839t-.136-.906q-.057-.46-.114-.868t-.1-.835q-.039-.418-.058-.87t-.038-.837q-.019-.394-.038-.84t-.019-.92v-.89q0-.421-.019-.859t-.038-.872q-.019-.421-.056-.824Q30,40.641,30,40.233V36.367q0-.367.019-.735t.038-.7q.019-.343.038-.668c.012-.211.018-.371.018-.479a2.935,2.935,0,0,1,.021-.362q.019-.155.057-.447t.055-.578q.019-.3.019-.614V29.8A1.726,1.726,0,0,1,30.4,29.229Z" transform="translate(-23.483 -5.724)"/>
          <path id="Path_7029" data-name="Path 7029" d="M67.724,40.9a.4.4,0,0,1-.511.119.317.317,0,0,1-.133-.459,9.963,9.963,0,0,1,.575-.818,2.569,2.569,0,0,1,.377-.376q.143-.112.286-.241a2.458,2.458,0,0,1,.381-.282q.168-.1.355-.218t.369-.227a2.439,2.439,0,0,1,.431-.2,2.771,2.771,0,0,1,.446-.12q.208-.037.417-.056t.4-.019h.362a2.568,2.568,0,0,1,.454.041,1.193,1.193,0,0,1,.537.249q.18.144.359.3a2.4,2.4,0,0,1,.356.4q.137.194.274.4a3.139,3.139,0,0,1,.254.476,4.7,4.7,0,0,1,.184.513,4.2,4.2,0,0,1,.123.535q.036.228.091.456a3.442,3.442,0,0,1,.084.563q.02.284.02.586v.6a2.861,2.861,0,0,1-.085.689,4.849,4.849,0,0,1-.224.676l-.267.65q-.138.335-.295.653t-.331.63a5.1,5.1,0,0,1-.407.621q-.216.282-.433.531t-.407.452a4.324,4.324,0,0,1-.436.41,2.978,2.978,0,0,1-.5.332q-.239.125-.478.233a3.7,3.7,0,0,1-.534.192,2.953,2.953,0,0,1-.6.1l-.512.034q-.261.018-.5.018t-.472-.018a1.719,1.719,0,0,1-.5-.113q-.187-.075-.372-.167a1.658,1.658,0,0,1-.369-.244,2.128,2.128,0,0,0-.178-.146,2.009,2.009,0,0,1-.164-.127l-.038-.034a.312.312,0,0,1,0-.474.4.4,0,0,1,.528,0l.038.034c.013.012.049.039.1.078a2.83,2.83,0,0,1,.24.2.923.923,0,0,0,.2.133q.157.078.313.14a.907.907,0,0,0,.263.058q.192.016.4.016t.447-.016l.516-.034a2.129,2.129,0,0,0,.431-.072,2.909,2.909,0,0,0,.419-.151q.218-.1.436-.212a2.229,2.229,0,0,0,.375-.249,3.617,3.617,0,0,0,.364-.343q.187-.2.393-.437t.4-.5a4.443,4.443,0,0,0,.355-.541q.168-.3.317-.6t.277-.613l.267-.65a4.231,4.231,0,0,0,.2-.59,2.255,2.255,0,0,0,.067-.543v-.6q0-.28-.018-.544a2.836,2.836,0,0,0-.069-.464q-.06-.25-.1-.5a3.589,3.589,0,0,0-.105-.457,4.089,4.089,0,0,0-.159-.445,2.5,2.5,0,0,0-.2-.379q-.13-.2-.259-.382a1.712,1.712,0,0,0-.254-.285q-.164-.147-.327-.277a.421.421,0,0,0-.187-.093,1.739,1.739,0,0,0-.308-.028h-.362c-.1,0-.21.005-.325.015s-.23.026-.345.047a1.96,1.96,0,0,0-.315.085,1.66,1.66,0,0,0-.293.139q-.168.1-.355.218t-.369.227a1.723,1.723,0,0,0-.267.2q-.161.144-.323.272a1.9,1.9,0,0,0-.271.274C68.149,40.269,67.971,40.523,67.724,40.9Z" transform="translate(-25.965 -6.345)"/>
          <path id="Path_7030" data-name="Path 7030" d="M44.029,51.2a.079.079,0,0,0,0,.01s0,0,0-.007Zm.064-.252q.036-.081.092-.215t.106-.286q.059-.176.137-.387t.174-.451q.092-.233.186-.5T45,48.521q.11-.3.2-.613t.188-.676l.19-.719q.094-.356.189-.746t.19-.8l.191-.821q.095-.409.19-.836t.292-1.068q.19-.615.247-.8c.04-.133.105-.321.2-.566s.159-.457.221-.677a6.841,6.841,0,0,1,.22-.663q.113-.288.207-.542t.167-.482c.052-.164.092-.282.119-.356a1.888,1.888,0,0,0,.06-.3,1.386,1.386,0,0,1,.434-.743.4.4,0,0,1,.527-.028.312.312,0,0,1,.031.474.808.808,0,0,0-.252.386,2.232,2.232,0,0,1-.092.421c-.023.063-.06.173-.109.328s-.111.334-.176.51-.135.357-.212.553a6.224,6.224,0,0,0-.2.6q-.1.355-.237.726c-.087.234-.148.411-.184.53s-.121.394-.248.806-.218.743-.279,1.02-.127.566-.191.841l-.191.821q-.1.412-.191.807t-.192.759l-.19.718q-.1.363-.193.692t-.216.654q-.113.305-.207.576t-.2.526q-.094.236-.169.438t-.13.367q-.061.182-.122.329l-.034.08c.1.013.215.031.348.055s.256.045.393.067.271.036.436.047a6,6,0,0,1,.614.073,5.1,5.1,0,0,0,.582.063,5.356,5.356,0,0,1,.66.074,4.474,4.474,0,0,0,.523.063q.3.018.565.054c.173.024.32.048.444.073a1.149,1.149,0,0,0,.185.026h.133a.6.6,0,0,1,.244.053.474.474,0,0,1,.223.2l.019.034a.32.32,0,0,1-.166.45.4.4,0,0,1-.437-.067,1.82,1.82,0,0,1-.364-.042c-.105-.021-.237-.043-.395-.064s-.321-.037-.5-.048a5.3,5.3,0,0,1-.62-.074,4.531,4.531,0,0,0-.558-.062,5.922,5.922,0,0,1-.676-.074,5.174,5.174,0,0,0-.529-.063q-.286-.018-.516-.056-.213-.035-.406-.069c-.121-.022-.222-.038-.3-.048a1.46,1.46,0,0,0-.176-.014.934.934,0,0,1-.271-.035.357.357,0,0,1-.273-.48A.671.671,0,0,1,44.093,50.948Zm5.44,1.25v0Zm-4.81-.765h0l-.007.013Z" transform="translate(-24.448 -6.276)"/>
          <path id="Path_7031" data-name="Path 7031" d="M51.266,60.1a2.522,2.522,0,0,1-.434.063q-.245.018-.545.018H48.839q-.45,0-1.108-.035c-.435-.023-.724-.04-.869-.052q-.194-.016-.347-.016a4.979,4.979,0,0,1-.607-.055l-.645-.085q-.282-.036-.546-.091-.242-.05-.427-.083a3.789,3.789,0,0,0-.428-.045q-.3-.018-.551-.055a.341.341,0,0,1-.307-.386.371.371,0,0,1,.43-.276q.21.031.478.048a4.564,4.564,0,0,1,.525.057q.2.035.449.088.232.048.483.08l.65.086a4.434,4.434,0,0,0,.5.047q.189,0,.415.019c.135.011.418.028.845.051s.78.034,1.064.034h1.447q.271,0,.483-.016a1.792,1.792,0,0,0,.29-.04l.174-.047a.734.734,0,0,1,.214-.035h.038a.337.337,0,1,1,0,.671C51.427,60.06,51.359,60.079,51.266,60.1Z" transform="translate(-24.379 -7.793)"/>
          <path id="Path_7032" data-name="Path 7032" d="M61.846,40.176l0,0v0Zm-.014-.02h0Zm.022,0h0Zm.6-1.284h0Zm.1.389v.114c0,.018,0,.014.012,0-.013.011-.012.012,0,.009l-.02,0q-.008-.1-.008-.205Q62.555,39.228,62.562,39.265Zm0-.211v.211q.014.074.021.145.017.173.017.329a.317.317,0,0,1-.037.158c-.013.023-.019.029-.023.03a.748.748,0,0,1-.185.044c-.084.009-.157.014-.207.015a.184.184,0,0,1,.078.021.32.32,0,0,1-.022-.024.419.419,0,0,1-.083-.2,1.947,1.947,0,0,1-.033-.356V39.02a.277.277,0,0,1,.052-.173.327.327,0,0,1,.123-.109.626.626,0,0,1,.171-.053c.07-.009.134-.014.18-.015a.146.146,0,0,1-.086-.04s.008.029.015.095A3.288,3.288,0,0,1,62.562,39.054Zm.014.338h0Zm-.342-.432,0,0Zm1.092.389a3.893,3.893,0,0,1,.02.389.928.928,0,0,1-.115.458.759.759,0,0,1-.4.347,1.564,1.564,0,0,1-.386.093l-.064.007a.581.581,0,0,1-.205.126,1.024,1.024,0,0,1-.348.058.752.752,0,0,1-.443-.142.784.784,0,0,1-.273-.378,1.742,1.742,0,0,1-.094-.457q-.02-.235-.02-.436a3.578,3.578,0,0,1,.021-.393.736.736,0,0,1,.241-.478,1.072,1.072,0,0,1,.388-.216,1,1,0,0,1,.28-.189,1.416,1.416,0,0,1,.4-.117,2.352,2.352,0,0,1,.3-.021.634.634,0,0,1,.482.212.773.773,0,0,1,.175.453,3.893,3.893,0,0,1,.02.389v.16Q63.319,39.282,63.326,39.349Z" transform="translate(-25.62 -6.345)"/>
          <path id="Path_7033" data-name="Path 7033" d="M32.707,35.1a.394.394,0,0,1-.5.15.32.32,0,0,1-.167-.45c.222-.4.322-.527.6-.527h.286a3.846,3.846,0,0,0,.446-.031q.289-.035.615-.069t.69-.053q.336-.017.769-.051.448-.035.971-.052T37.459,34H39.63q.608,0,1.217.053t1.175.121q.583.07,1.071.158t.936.172q.466.087.837.175t.636.156c.171.044.31.076.416.1.126.025.233.051.323.078a.518.518,0,0,1,.35.238.448.448,0,0,1,.057.217V35.5a.356.356,0,0,1-.373.335.376.376,0,0,1-.346-.209q-.074-.019-.173-.038c-.123-.024-.275-.06-.46-.108s-.382-.1-.621-.152-.5-.111-.8-.167-.614-.114-.93-.17-.65-.106-1.024-.15-.759-.085-1.148-.118-.763-.05-1.145-.05H37.459q-.507,0-1.015.017t-.934.05q-.444.035-.792.052-.331.016-.644.05t-.6.068a4.642,4.642,0,0,1-.544.037H32.8C32.774,34.985,32.743,35.038,32.707,35.1Z" transform="translate(-23.621 -6.069)"/>
          <path id="Path_7034" data-name="Path 7034" d="M52.792,34.739c.03,0,.043,0,.038,0Zm-.108.159a.4.4,0,0,1-.518.093.315.315,0,0,1-.1-.465.92.92,0,0,1,.729-.457H53.8q.811,0,1.221-.017t.936-.034Q56.48,34,57.02,34h4.266q.628,0,1.218.053t1.083.142a9.551,9.551,0,0,1,.935.215q.415.119.735.2t.565.158c.148.044.263.077.346.1a1.717,1.717,0,0,1,.274.091l.114.051a.472.472,0,0,1,.224.2l.019.034a.32.32,0,0,1-.166.45.4.4,0,0,1-.481-.117l-.045-.02a1.009,1.009,0,0,0-.145-.046c-.095-.024-.22-.06-.378-.107s-.328-.094-.539-.15-.469-.127-.751-.208a8.736,8.736,0,0,0-.855-.2q-.458-.082-1.011-.132t-1.144-.05H57.02q-.526,0-1.034.017t-.93.034q-.429.018-1.255.018H52.83A.781.781,0,0,0,52.684,34.9Zm13.539.712h0Zm-.11-.1,0,0Z" transform="translate(-25 -6.069)"/>
          <path id="Path_7035" data-name="Path 7035" d="M30.088,39.156a.894.894,0,0,1,.275.331.857.857,0,0,1,.087.372v.274c0,.243-.221.486-.728.912a.4.4,0,0,1-.528-.015.312.312,0,0,1,.017-.474,4.76,4.76,0,0,0,.424-.392.921.921,0,0,0,.068-.081v-.223a.247.247,0,0,0-.027-.107.212.212,0,0,0-.067-.08.867.867,0,0,1-.247-.262c-.057-.037-.141-.095-.257-.176a3.282,3.282,0,0,0-.325-.2,2.027,2.027,0,0,0-.335-.143q-.2-.065-.439-.131a2.113,2.113,0,0,0-.431-.072q-.254-.016-.487-.016h-.5q-.234,0-.488.016a.816.816,0,0,0-.333.092,4.444,4.444,0,0,0-.421.252,3.453,3.453,0,0,0-.379.294,2.584,2.584,0,0,0-.319.347q-.162.21-.307.437a3.5,3.5,0,0,0-.244.454,2.231,2.231,0,0,0-.15.481q-.058.293-.115.568a2.462,2.462,0,0,0-.051.5q0,.3-.02.6-.018.281-.018.579v.616q0,.3.018.579a2.481,2.481,0,0,0,.085.5,4.345,4.345,0,0,0,.178.511q.111.267.222.5a3.552,3.552,0,0,0,.227.408q.128.2.274.394t.285.353a1.744,1.744,0,0,0,.285.256q.178.128.336.222.18.108.34.216a2.523,2.523,0,0,0,.282.163q.165.082.309.147a2.258,2.258,0,0,0,.275.1q.158.047.3.078l.3.068q.147.033.314.066A1.178,1.178,0,0,0,28,48.5H29.21a.623.623,0,0,1,.09-.05.59.59,0,0,1,.244-.053h.5a.337.337,0,1,1,0,.671h-.42a.539.539,0,0,1-.322.1H28a1.981,1.981,0,0,1-.386-.042q-.176-.035-.333-.07l-.3-.068q-.167-.037-.351-.093a3.052,3.052,0,0,1-.373-.138q-.16-.072-.338-.161a3.283,3.283,0,0,1-.367-.213q-.144-.1-.307-.195-.186-.111-.388-.257a2.46,2.46,0,0,1-.4-.36q-.163-.183-.323-.4t-.3-.428a4.2,4.2,0,0,1-.268-.482q-.118-.247-.235-.527a4.966,4.966,0,0,1-.2-.584,3.089,3.089,0,0,1-.106-.626q-.02-.3-.02-.618V43.3q0-.318.02-.618.019-.281.019-.562a3.067,3.067,0,0,1,.063-.627q.057-.272.114-.561a2.849,2.849,0,0,1,.192-.614,4.142,4.142,0,0,1,.289-.538q.16-.252.341-.486a3.275,3.275,0,0,1,.4-.44,4.178,4.178,0,0,1,.459-.356,5.2,5.2,0,0,1,.493-.3,1.624,1.624,0,0,1,.657-.182q.28-.018.541-.018h.5q.261,0,.541.018a2.933,2.933,0,0,1,.6.1q.256.071.475.142a2.811,2.811,0,0,1,.464.2,4.034,4.034,0,0,1,.4.245l.243.168a.7.7,0,0,1,.223.237S30.048,39.125,30.088,39.156Zm-.96,9.412h0Z" transform="translate(-23 -6.345)"/>
          <path id="Path_7036" data-name="Path 7036" d="M36.135,39.389a1.851,1.851,0,0,1,.233.014c-.009,0,0,0,.016.023a.276.276,0,0,1,.072.128,1.048,1.048,0,0,1,.029.252v.1a.57.57,0,0,1-.13.031.376.376,0,0,1-.137-.007c.016,0,0-.008-.03-.055a.513.513,0,0,1-.081-.247q-.01-.118-.014-.236Zm.4.494-.054.022v.21c0-.022.01-.038,0-.029a.321.321,0,0,1-.156.055q-.172.015-.324.015a.256.256,0,0,1-.12-.024.657.657,0,0,1-.04-.088,1.383,1.383,0,0,1-.077-.378q-.018-.245-.018-.491a.676.676,0,0,1,.062-.306.359.359,0,0,1,.105-.139.263.263,0,0,1,.115-.043,2.516,2.516,0,0,1,.277-.014.172.172,0,0,1,.1.035.527.527,0,0,1,.152.2,1.232,1.232,0,0,1,.122.355,2.234,2.234,0,0,1,.034.377.211.211,0,0,1-.04.141A.375.375,0,0,1,36.54,39.883Zm.879-.726a2.836,2.836,0,0,1,.042.479.827.827,0,0,1-.189.543q-.026.031-.054.06a.65.65,0,0,1-.287.383,1.118,1.118,0,0,1-.53.185q-.208.019-.4.019a1.064,1.064,0,0,1-.49-.113.8.8,0,0,1-.379-.459l-.019-.053a.482.482,0,0,1-.115-.31v-.24a.656.656,0,0,1,.01-.1q-.01-.187-.01-.375a1.278,1.278,0,0,1,.129-.584,1.01,1.01,0,0,1,.351-.408,1.059,1.059,0,0,1,.457-.163,3.343,3.343,0,0,1,.37-.02l.064,0,.126,0a1.064,1.064,0,0,1,.49.113.76.76,0,0,1,.349.348,1.221,1.221,0,0,1,.1.3,1.182,1.182,0,0,1,.024.209.365.365,0,0,1-.045.176Z" transform="translate(-23.827 -6.345)"/>
          <path id="Path_7037" data-name="Path 7037" d="M35.988,38.344v0S35.988,38.346,35.988,38.344ZM35.779,40a.417.417,0,0,1-.5-.05.86.86,0,0,1-.211-.442,1.156,1.156,0,0,1-.043-.58.346.346,0,0,1,.221-.244v-.341a.357.357,0,0,1,0-.044c0-.037,0-.037.108-.2.224-.121.224-.121.459-.049.1.076.1.076.127.116a.341.341,0,0,1,.036.071A.709.709,0,0,1,36,38.33c.011.047.027.107.05.179s.073.249.138.493l.1.359a.336.336,0,0,1-.277.4.416.416,0,0,1-.052.008A.364.364,0,0,1,35.779,40Zm.073-.466,0,0h0Z" transform="translate(-23.827 -6.345)"/>
          <path id="Path_7038" data-name="Path 7038" d="M26.988,80.414q-.123.718-.184,1.086a3.689,3.689,0,0,0-.057.448V93.281a.785.785,0,0,1,.03.1.335.335,0,0,1-.271.407.378.378,0,0,1-.453-.244l-.021-.075A.715.715,0,0,1,26,93.281V81.948a3.85,3.85,0,0,1,.066-.547q.061-.37.185-1.089c.076-.446.119-.725.119-.76A.922.922,0,0,1,26.4,79.3a.43.43,0,0,1,.652-.234l.122.073c.026.016.075.04.145.071a1.6,1.6,0,0,0,.2.074,1.455,1.455,0,0,1,.366.174.9.9,0,0,0,.229.1q.2.059.41.136t.447.172q.232.095.485.208a4.708,4.708,0,0,0,.492.187q.29.093.621.2a5.015,5.015,0,0,0,.664.17q.4.075.814.169t.837.183l.862.184q.433.093.845.185l.821.184q.4.09.82.162.437.075.9.168.439.09.94.162.525.075.988.17.434.089.889.142.475.056,1.032.13t1.056.128q.511.055,1.064.11.533.053,1.087.053h5.683q.54,0,1.08-.036Q51.5,82.7,52,82.681q.479-.018,1-.072l1.089-.111q.551-.055,1.019-.11t.96-.144q.514-.092.947-.166t.838-.147q.4-.071.753-.16t.713-.183q.346-.091.671-.183t.629-.182q.3-.09.558-.179t.5-.181q.254-.1.488-.171t.42-.144L63,80.4l.41-.147q.2-.071.377-.143.2-.08.4-.141l.369-.111q.2-.061.407-.1t.409-.061q.205-.02.431-.02H66.85a2.235,2.235,0,0,1,.328.023c.086.013.165.026.238.039a1.2,1.2,0,0,1,.278.084.8.8,0,0,0,.095.037.7.7,0,0,1,.268.154l.124.111a.834.834,0,0,1,.172.216c.023.041.052.089.089.143a2.092,2.092,0,0,1,.146.262l.123.258a3.073,3.073,0,0,1,.137.349q.065.2.129.445.059.228.137.456.087.254.152.526t.125.583q.063.323.106.646t.082.606q.043.307.064.669a4.117,4.117,0,0,0,.076.6,4.739,4.739,0,0,1,.088.689,5.773,5.773,0,0,0,.078.665q.063.36.105.738t.063.754q.02.359.06.7l.082.7q.042.358.063.679.02.306.06.668t.082.717a4.549,4.549,0,0,0,.115.621,5.819,5.819,0,0,1,.13.622q.041.277.1.7a5.248,5.248,0,0,1,.065.725,7.4,7.4,0,0,0,.119.945.343.343,0,0,1-.314.381.37.37,0,0,1-.425-.282,7.574,7.574,0,0,1-.127-1.045,4.712,4.712,0,0,0-.058-.638q-.062-.423-.1-.7a5.214,5.214,0,0,0-.117-.557,5.155,5.155,0,0,1-.131-.7q-.041-.351-.082-.721t-.063-.7q-.02-.305-.06-.648l-.082-.7q-.042-.359-.063-.737-.02-.36-.06-.721t-.1-.7a6.379,6.379,0,0,1-.086-.735,4.135,4.135,0,0,0-.076-.6,4.717,4.717,0,0,1-.088-.689q-.02-.339-.059-.621t-.083-.61q-.04-.3-.1-.607t-.12-.559q-.058-.244-.136-.469-.086-.251-.15-.5-.059-.23-.117-.4a2.474,2.474,0,0,0-.108-.277l-.123-.258a1.461,1.461,0,0,0-.1-.181c-.046-.068-.084-.131-.117-.189a2.093,2.093,0,0,0-.155-.152,1.631,1.631,0,0,1-.17-.066,2.945,2.945,0,0,0-.3-.061,1.4,1.4,0,0,0-.206-.014H65.8q-.185,0-.348.016t-.33.049q-.166.033-.332.083l-.369.111q-.167.05-.335.117-.191.077-.4.152l-.41.147-.411.148q-.211.076-.442.151t-.455.16q-.251.094-.523.188t-.59.189q-.311.093-.643.186t-.683.186q-.352.093-.724.186T58,82.59q-.412.074-.845.148t-.94.165q-.525.094-1.01.151t-1.033.111l-1.086.111q-.547.056-1.053.076-.486.018-1.034.055-.567.038-1.135.038H44.18q-.595,0-1.17-.057-.555-.055-1.07-.111t-1.077-.13q-.551-.073-1.019-.128-.489-.057-.957-.153-.439-.09-.941-.162-.524-.075-.988-.17-.445-.091-.869-.164-.441-.075-.862-.17l-.821-.184q-.408-.092-.837-.183l-.861-.184q-.433-.093-.845-.185t-.787-.163a5.823,5.823,0,0,1-.772-.2q-.326-.11-.61-.2a5.5,5.5,0,0,1-.575-.219q-.24-.108-.46-.2t-.415-.16q-.2-.07-.369-.122a1.678,1.678,0,0,1-.427-.193.708.708,0,0,0-.168-.084q-.1-.03-.2-.07C27.06,79.993,27.029,80.176,26.988,80.414Zm40.555.08.01,0-.005,0Z" transform="translate(-23.207 -16.969)"/>
          <path id="Path_7039" data-name="Path 7039" d="M53.261,82.927a3.23,3.23,0,0,1-.253.249q-.158.142-.4.317t-.5.357q-.279.193-.64.4a7.08,7.08,0,0,1-.781.39,8.21,8.21,0,0,1-.863.31,3.473,3.473,0,0,1-1,.146q-.46,0-.92-.019T46.97,85q-.471-.058-.9-.154t-.837-.207q-.43-.116-.838-.27t-.768-.326q-.345-.164-.628-.291a4.116,4.116,0,0,1-.565-.305,2.929,2.929,0,0,1-.468-.379c-.13-.13-.218-.222-.267-.281a3.084,3.084,0,0,1-.235-.356,1.848,1.848,0,0,1-.2-.391,1.059,1.059,0,0,1-.032-.284c0-.223.164-.411.495-.675a.4.4,0,0,1,.527.028.312.312,0,0,1-.031.474,1.878,1.878,0,0,0-.231.209.178.178,0,0,0,0,.085,2.517,2.517,0,0,0,.131.236,2.938,2.938,0,0,0,.175.271c.032.039.109.119.225.235a2.2,2.2,0,0,0,.353.285,3.36,3.36,0,0,0,.46.248q.291.131.644.3.334.159.709.3t.763.246q.4.108.8.2t.822.141q.435.053.869.071t.886.018a2.648,2.648,0,0,0,.764-.112,7.418,7.418,0,0,0,.779-.28,6.309,6.309,0,0,0,.7-.347q.337-.2.591-.371t.483-.344q.212-.156.342-.273a2.585,2.585,0,0,0,.2-.193.649.649,0,0,0,.081-.106.412.412,0,0,1,.248-.315.605.605,0,0,1,.25-.054h.779a.9.9,0,0,1,.261.035,1.216,1.216,0,0,1,.152.055.392.392,0,0,1,.248.356v1.143a1.841,1.841,0,0,1-.048.4,4.036,4.036,0,0,1-.111.4,3.028,3.028,0,0,1-.16.39,2.766,2.766,0,0,1-.209.355q-.111.159-.244.318a2.867,2.867,0,0,1-.281.294,1.749,1.749,0,0,1-.391.259q-.192.1-.4.191a2.764,2.764,0,0,1-.528.173q-.249.056-.519.112t-.585.112q-.323.058-.686.1t-.744.074l-.757.073q-.39.039-.8.039H46.713a3.971,3.971,0,0,1-.824-.083q-.369-.078-.736-.194-.346-.11-.65-.2t-.636-.209a6.24,6.24,0,0,1-.613-.256q-.282-.136-.543-.293t-.478-.312a4.962,4.962,0,0,1-.42-.338,4.8,4.8,0,0,1-.376-.378,2.409,2.409,0,0,1-.309-.428q-.106-.19-.211-.4l-.205-.406a3.937,3.937,0,0,1-.178-.4q-.059-.16-.119-.3a1.5,1.5,0,0,0-.118-.228,1.594,1.594,0,0,1-.153-.3,1.893,1.893,0,0,1-.074-.243q-.019-.084-.037-.149l-.021-.074a.335.335,0,0,1,.271-.407.378.378,0,0,1,.453.244l.021.074c.015.055.03.116.045.181a1.284,1.284,0,0,0,.05.163.971.971,0,0,0,.093.179,2.146,2.146,0,0,1,.169.325q.064.153.128.325a3.319,3.319,0,0,0,.15.336l.205.406q.1.2.2.376a1.745,1.745,0,0,0,.224.309,4.1,4.1,0,0,0,.321.323,4.239,4.239,0,0,0,.359.288q.192.138.425.278t.483.26a5.458,5.458,0,0,0,.536.223q.3.107.595.2t.663.2q.33.1.659.174a3.145,3.145,0,0,0,.653.065h1.518q.369,0,.718-.035l.761-.074q.388-.037.734-.073t.627-.088q.3-.054.564-.108t.506-.109a1.966,1.966,0,0,0,.375-.122q.2-.089.375-.177a1.014,1.014,0,0,0,.225-.146,2.175,2.175,0,0,0,.212-.222q.114-.136.208-.271a2.117,2.117,0,0,0,.16-.272,2.4,2.4,0,0,0,.127-.31,3.421,3.421,0,0,0,.094-.338,1.249,1.249,0,0,0,.034-.266V82.7h-.524A1.277,1.277,0,0,1,53.261,82.927Zm-.5-.486s0,0,0,0S52.761,82.44,52.761,82.441Zm-10.795-.614,0,0h0Z" transform="translate(-24.172 -17.107)"/>
          <path id="Path_7040" data-name="Path 7040" d="M26.721,79.671h0Zm-.229.056a.384.384,0,0,1-.472-.212.329.329,0,0,1,.236-.424A1.758,1.758,0,0,1,26.743,79a1.143,1.143,0,0,1,.641.274,5.267,5.267,0,0,1,.464.358,3.666,3.666,0,0,1,.317.326,3.868,3.868,0,0,1,.293.384,3.332,3.332,0,0,1,.25.449q.1.215.22.449c.083.162.146.288.189.377s.125.268.248.539a5.213,5.213,0,0,1,.283.746q.083.3.165.613t.163.6q.083.3.166.635l.164.663q.081.33.163.641t.148.667q.061.33.123.642t.122.6q.06.29.121.544t.139.518q.084.284.148.55t.12.468q.059.214.118.39a2.322,2.322,0,0,1,.094.363.582.582,0,0,0,.039.144l.082.184a1.538,1.538,0,0,1,.077.209.784.784,0,0,1,.032.211c.018.05.034.1.05.158.008.028.014.044.012.042a.773.773,0,0,1,.076.243,1.177,1.177,0,0,1,.025.2s0,.022.013.063c.013.057.025.107.037.15s.023.076.034.105a.567.567,0,0,1,.039.2v.072a.52.52,0,0,1,.041.194.314.314,0,0,1,.1.356.384.384,0,0,1-.473.212l-.062-.019a.414.414,0,0,1-.316-.392v-.129a.463.463,0,0,1-.041-.2v-.076c-.018-.047-.034-.1-.051-.156s-.03-.114-.045-.181a.909.909,0,0,1-.028-.2s-.005-.037-.015-.092-.015-.067-.007-.054a.822.822,0,0,1-.069-.179c-.011-.041-.022-.076-.033-.1a.622.622,0,0,1-.039-.216.22.22,0,0,0-.009-.047.934.934,0,0,0-.046-.123l-.082-.184a1.179,1.179,0,0,1-.085-.3,1.747,1.747,0,0,0-.07-.265q-.064-.192-.127-.42t-.126-.49q-.06-.25-.139-.518-.085-.284-.148-.551T30.13,88.1q-.062-.3-.124-.612t-.124-.648q-.06-.321-.139-.623t-.165-.649l-.164-.663q-.081-.328-.162-.618t-.165-.613q-.082-.311-.163-.6a4.624,4.624,0,0,0-.25-.655c-.122-.268-.2-.446-.244-.529s-.1-.2-.181-.36-.161-.321-.231-.472a2.687,2.687,0,0,0-.2-.362,3.193,3.193,0,0,0-.242-.317,2.971,2.971,0,0,0-.256-.264,4.646,4.646,0,0,0-.4-.305,1.586,1.586,0,0,0-.2-.122A.753.753,0,0,0,26.492,79.727ZM31.421,93.02c0,.006.007.016.014.029l-.01-.019Z" transform="translate(-23.207 -16.969)"/>
          <path id="Path_7041" data-name="Path 7041" d="M69.075,94.009a.356.356,0,0,1-.373.335h-.123a.389.389,0,0,1-.414-.372v-.866a.487.487,0,0,0-.013-.081c-.015-.065-.029-.137-.043-.213s-.029-.169-.043-.272-.028-.205-.042-.318A3.176,3.176,0,0,1,68,91.835V88.5q0-.288.021-.575t.041-.57q.021-.3.063-.626l.082-.626q.042-.323.106-.646a6.6,6.6,0,0,1,.172-.677,5.992,5.992,0,0,0,.156-.613q.06-.305.1-.591a3.646,3.646,0,0,1,.134-.6q.081-.253.141-.468t.122-.455a2.974,2.974,0,0,1,.161-.473q.076-.171.133-.34t.116-.416a1.417,1.417,0,0,1,.548-.733.4.4,0,0,1,.527.028.312.312,0,0,1-.031.473.846.846,0,0,0-.314.373q-.064.27-.131.468t-.155.4a2.364,2.364,0,0,0-.126.375q-.062.242-.125.467t-.147.49a3.039,3.039,0,0,0-.111.5q-.042.3-.105.625a6.6,6.6,0,0,1-.172.677,5.983,5.983,0,0,0-.156.614q-.06.3-.1.607l-.082.627q-.04.3-.06.59t-.041.573q-.02.265-.02.531v3.335a2.579,2.579,0,0,0,.018.313q.02.164.04.309t.039.245q.019.105.039.191a.989.989,0,0,1,.028.214v.625A.327.327,0,0,1,69.075,94.009Z" transform="translate(-26.103 -17.038)"/>
        </g>
      </g>
    </g>
  </g>
</svg>
